<svg width="74" height="87" viewBox="0 0 74 87" fill="none" xmlns="http://www.w3.org/2000/svg">
<g clip-path="url(#clip0_86_73)">
<path d="M61.7038 24.1087H61.4467C61.3463 24.0925 61.243 24.0675 61.1363 24.0339L59.9293 23.6136C59.9288 23.6134 59.9284 23.6133 59.9279 23.6131C58.2076 23.003 57.0488 21.3745 57.0488 19.5488V10.4877C57.0488 8.36091 55.7127 6.44532 53.7071 5.71573L53.6982 5.7125L53.6892 5.7096L48.8097 4.14057C47.9572 3.8372 47.1001 3.93957 46.4042 4.41226L46.4042 4.41223L46.3986 4.41611C45.7088 4.89842 45.3037 5.66342 45.3037 6.50881V13.3854C45.3037 14.2461 45.8406 15.048 46.6637 15.3574L48.3119 15.9915C48.3121 15.9916 48.3123 15.9917 48.3126 15.9917C49.2029 16.3375 49.6461 17.3405 49.3091 18.2328C48.9627 19.1207 47.9692 19.5644 47.0632 19.2261C47.0626 19.2259 47.062 19.2257 47.0614 19.2254L45.4151 18.5921C45.4149 18.592 45.4148 18.592 45.4146 18.5919C43.2742 17.7631 41.8405 15.674 41.8405 13.3966V6.50881C41.8405 4.54444 42.7976 2.71279 44.4058 1.57963C46.0124 0.458816 48.0731 0.190993 49.9179 0.860093L49.9265 0.863235L49.9353 0.866055L54.8132 2.43455C58.2512 3.69225 60.5009 6.91455 60.5009 10.4765V19.5265C60.5009 19.8707 60.7135 20.2072 61.0777 20.3243L62.284 20.7444C62.2844 20.7445 62.2848 20.7447 62.2853 20.7448C63.1882 21.0664 63.6604 22.0527 63.3417 22.9475L63.3414 22.9484C63.09 23.6584 62.4227 24.1087 61.7038 24.1087Z" fill="#90BEE6" stroke="#2B3990"/>
<path d="M44.487 86.4204L3.40316 73.0906C1.70714 72.5445 0.557861 70.9619 0.557861 69.1898V21.4323C0.557861 21.2762 0.714074 21.1648 0.859128 21.2094L44.3419 35.3193C44.7102 35.4419 44.9556 35.7874 44.9556 36.1663V86.0637C44.9556 86.3089 44.7102 86.4872 44.4758 86.4092L44.487 86.4204Z" fill="#90BEE6"/>
<path d="M44.5986 86.9999C44.4982 86.9999 44.4089 86.9888 44.3085 86.9554L3.22467 73.6145C1.29433 72.9903 0 71.2071 0 69.1786V21.4323C0 21.176 0.122738 20.9419 0.323583 20.797C0.524427 20.6521 0.79222 20.6076 1.0377 20.6856L44.5205 34.7955C45.123 34.985 45.5247 35.5422 45.5247 36.1775V86.0749C45.5247 86.3647 45.3797 86.6544 45.1454 86.8216C44.9891 86.9331 44.7995 86.9999 44.5986 86.9999ZM1.1158 21.8781V69.1786C1.1158 70.7167 2.09771 72.0764 3.57057 72.5557L44.4089 85.8074V36.1775C44.4089 36.0326 44.3197 35.8989 44.1746 35.8543L1.1158 21.8781Z" fill="#2B3990"/>
<path d="M43.4269 34.8178L0.680557 20.9419C0.680557 20.9419 0.624767 20.8639 0.680557 20.8416L26.5225 7.94651C28.1293 7.14405 29.9927 7.01031 31.6999 7.55642L72.7502 20.875C73.0069 20.953 73.0292 21.2985 72.7949 21.4211L46.4061 34.5837C45.48 35.0407 44.4088 35.1187 43.4269 34.8066V34.8178Z" fill="white"/>
<path d="M44.6543 35.5645C44.1857 35.5645 43.7171 35.4865 43.2596 35.3416L0.156159 21.3543L0.0668945 20.563L0.435109 20.3401L26.2771 7.45615C28.0289 6.58682 30.015 6.43078 31.8784 7.04377L72.9288 20.3624C73.2635 20.4738 73.4867 20.7636 73.5202 21.1091C73.5425 21.4546 73.3639 21.7778 73.0515 21.9339L46.6516 35.0964C46.0156 35.4085 45.335 35.5757 44.6543 35.5757V35.5645ZM2.03071 20.7859L43.6055 34.2828C44.4535 34.5615 45.3573 34.4946 46.1607 34.0934L71.9803 21.2206L31.5325 8.09143C29.9481 7.57875 28.2632 7.70134 26.768 8.44808L2.03071 20.7859Z" fill="#2B3990"/>
<path d="M71.1994 73.3025L45.4578 86.3313C45.2347 86.4427 44.978 86.2867 44.978 86.0304V36.5454C44.978 35.9212 45.3351 35.3417 45.893 35.063L72.9512 21.3766C73.1855 21.254 73.4645 21.4324 73.4645 21.6887V69.6357C73.4645 71.1849 72.5941 72.6003 71.2105 73.3025H71.1994Z" fill="#558DCA"/>
<path d="M45.3016 86.922C45.1342 86.922 44.978 86.8774 44.8329 86.7882C44.5651 86.621 44.4089 86.3424 44.4089 86.0303V36.5453C44.4089 35.6983 44.8776 34.9404 45.6252 34.5615L72.6834 20.8751C72.9623 20.7302 73.2971 20.7413 73.576 20.9085C73.8438 21.0757 74.0112 21.3655 74.0112 21.6887V69.6356C74.0112 71.4077 73.0293 73.0015 71.456 73.7928L45.7144 86.8217C45.5805 86.8885 45.4466 86.922 45.3127 86.922H45.3016ZM72.8954 22.0119L46.1384 35.5534C45.7591 35.7429 45.5359 36.1218 45.5359 36.5453V85.6737L70.9539 72.812C72.1589 72.1991 72.9065 70.9954 72.9065 69.6468V22.0119H72.8954Z" fill="#2B3990"/>
<path d="M30.1936 40.5242C31.4569 40.5242 32.481 39.5012 32.481 38.2394C32.481 36.9775 31.4569 35.9546 30.1936 35.9546C28.9304 35.9546 27.9062 36.9775 27.9062 38.2394C27.9062 39.5012 28.9304 40.5242 30.1936 40.5242Z" fill="#29256A"/>
<path d="M16.1457 35.8209C17.409 35.8209 18.4331 34.798 18.4331 33.5361C18.4331 32.2743 17.409 31.2513 16.1457 31.2513C14.8824 31.2513 13.8583 32.2743 13.8583 33.5361C13.8583 34.798 14.8824 35.8209 16.1457 35.8209Z" fill="#29256A"/>
<path d="M31.4406 38.7078C31.1899 39.4159 30.5255 39.8657 29.8088 39.8681C29.6277 39.8675 29.4376 39.8347 29.2355 39.771L28.0285 39.3507C28.0282 39.3506 28.0278 39.3505 28.0274 39.3503C26.307 38.7403 25.1481 37.1117 25.1481 35.2859V26.2359C25.1481 24.1092 23.8119 22.1936 21.8063 21.464L21.7975 21.4608L21.7885 21.4579L16.9109 19.8895C16.0408 19.572 15.1947 19.691 14.5035 20.1605C13.805 20.6349 13.4029 21.4159 13.4029 22.2571V29.1337C13.4029 29.9944 13.9399 30.7963 14.763 31.1057L16.4112 31.7398C16.4114 31.7398 16.4116 31.7399 16.4119 31.74C17.3022 32.0858 17.7454 33.0888 17.4084 33.981C17.0619 34.8689 16.0684 35.3127 15.1624 34.9744C15.1618 34.9742 15.1612 34.9739 15.1606 34.9737L13.5144 34.3404C13.5142 34.3403 13.514 34.3402 13.5138 34.3402C11.3734 33.5113 9.9397 31.4223 9.9397 29.1449V22.2682C9.9397 20.3035 10.8972 18.4715 12.506 17.3384C14.1103 16.2085 16.1703 15.9496 18.0171 16.6195L18.0258 16.6226L18.0345 16.6255L22.9125 18.194C26.3505 19.4517 28.6001 22.674 28.6001 26.2359V35.2859C28.6001 35.6301 28.8128 35.9666 29.1769 36.0837L30.3832 36.5038C30.3837 36.5039 30.3841 36.5041 30.3846 36.5042C31.2875 36.8259 31.7596 37.8122 31.4409 38.7069L31.4406 38.7078Z" fill="#90BEE6" stroke="#2B3990"/>
<path d="M17.9421 70.1483C12.6197 68.4207 9.00452 63.4611 9.00452 57.8662V55.2916C9.00452 46.5203 17.5739 40.3012 25.9312 43.0095C31.2536 44.737 34.8688 49.6967 34.8688 55.2916V57.8662C34.8688 66.6375 26.2994 72.8566 17.9421 70.1483Z" fill="white"/>
<path d="M21.9813 71.3409C20.5754 71.3409 19.1583 71.118 17.7747 70.6721C12.1957 68.8666 8.45776 63.7175 8.45776 57.8551V55.2805C8.45776 50.9116 10.4885 46.9439 14.0145 44.3804C17.5516 41.817 21.959 41.126 26.1098 42.4635C31.6888 44.269 35.4267 49.4181 35.4267 55.2805V57.8551C35.4267 62.224 33.3959 66.1917 29.87 68.7552C27.5157 70.4604 24.7819 71.3409 21.9813 71.3409ZM21.9032 42.9093C19.3368 42.9093 16.8263 43.7117 14.6728 45.2832C11.4258 47.6349 9.57357 51.2794 9.57357 55.2805V57.8551C9.57357 63.2271 13.0102 67.9527 18.1206 69.6133C21.9255 70.8505 25.9759 70.2152 29.2117 67.8635C32.4587 65.5119 34.3109 61.8674 34.3109 57.8662V55.2917C34.3109 49.9196 30.8742 45.194 25.7639 43.5334C24.4918 43.121 23.1864 42.9204 21.9032 42.9204V42.9093Z" fill="#2B3990"/>
<path d="M25.987 61.2767C25.8978 61.2767 25.8085 61.2767 25.7081 61.2433L21.8474 60.2736C20.7986 60.0062 20.0621 59.0699 20.0621 57.9889V51.1457C20.0621 50.5327 20.5642 50.0311 21.1779 50.0311C21.7916 50.0311 22.2937 50.5327 22.2937 51.1457V57.9889C22.2937 58.0446 22.3384 58.1003 22.3942 58.1115L26.2548 59.0811C26.8574 59.2371 27.2144 59.839 27.0582 60.4297C26.9355 60.9312 26.478 61.2656 25.9759 61.2656L25.987 61.2767Z" fill="#2B3990"/>
</g>
<defs>
<clipPath id="clip0_86_73">
<rect width="74" height="87" fill="white"/>
</clipPath>
</defs>
</svg>
