<svg width="50" height="101" viewBox="0 0 50 101" fill="none" xmlns="http://www.w3.org/2000/svg">
<g clip-path="url(#clip0_89_234)">
<path d="M49.5798 28.5138V85.667L43.5115 89.7787V96.6538L42.982 97.0307C42.7719 97.1814 42.4609 97.0977 42.3517 96.8548L38.3762 87.6182L9.16962 69.8986C8.67374 69.6055 8.37957 69.0696 8.37957 68.4918V17.8703L2.89966 5.15845L8.85864 0.904406C8.98471 0.778795 9.1276 0.678306 9.27888 0.602939C9.75795 0.351716 10.3547 0.334968 10.8842 0.661557L45.8312 21.8564C48.1594 23.2716 49.5798 25.7922 49.5798 28.5138Z" fill="white" stroke="#2B3990" stroke-miterlimit="10"/>
<path d="M43.5116 89.7787L4.37896 66.2307L4.47141 75.1073L3.09303 74.2699C2.60555 73.9684 2.30298 73.4325 2.30298 72.863V6.43131C2.30298 5.15008 3.71498 4.34616 4.81601 5.02447L41.007 26.9814C42.5618 27.9193 43.5116 29.6024 43.5116 31.4196V89.7787Z" fill="white" stroke="#2B3990" stroke-miterlimit="10"/>
<path d="M26.7945 27.6262L16.5659 21.1698C16.3725 21.0442 16.2549 20.8348 16.2549 20.6003V18.5906C16.2549 18.063 16.8432 17.7448 17.2887 18.0211L27.5173 24.4776C27.7106 24.6032 27.8283 24.8125 27.8283 25.047V27.0568C27.8283 27.5843 27.2399 27.9026 26.7945 27.6262Z" fill="#86B7E2" stroke="#2B3990" stroke-miterlimit="10"/>
<path d="M43.5115 89.7787V95.8415C43.5115 97.1228 42.0911 97.9267 40.9901 97.2484L4.47136 75.1073L4.37891 66.2307L43.5115 89.7871V89.7787Z" fill="#90BEE6" stroke="#2B3990" stroke-miterlimit="10"/>
<path d="M35.7875 38.9228L7.42982 21.714C6.77425 21.2534 6.12708 21.6889 6.12708 21.6889C6.02622 21.7559 1.13464 25.1976 1.13464 25.1976L5.4547 36.8879V77.7451C5.4547 78.1973 5.69003 78.616 6.07665 78.8505L28.5258 92.4667L32.3164 100.23L37.292 96.7627V96.7459C37.5693 96.5114 37.7542 96.1765 37.7542 95.7661V42.4064C37.7542 40.9828 37.0146 39.6681 35.7959 38.9311L35.7875 38.9228Z" fill="#558DCA" stroke="#2B3990" stroke-miterlimit="10"/>
<path d="M30.7531 42.4484L2.39541 25.2396C1.52972 24.712 0.420288 25.3317 0.420288 26.345V81.2623C0.420288 81.7145 0.655622 82.1332 1.04224 82.3677L30.7447 100.389C31.6104 100.916 32.7198 100.297 32.7198 99.2834V45.9236C32.7198 44.5 31.9802 43.1853 30.7615 42.4484H30.7531Z" fill="#90B9E2" stroke="#2B3990" stroke-miterlimit="10"/>
<path d="M49.5798 85.667V91.487C49.5798 92.0313 49.3277 92.4751 48.9495 92.7682V92.785L43.5116 96.6622V89.787L49.5798 85.6754V85.667Z" fill="#558DCA" stroke="#2B3990" stroke-miterlimit="10"/>
<path d="M27.3239 58.3507L5.96741 45.5049C5.26981 45.0862 4.37891 45.5886 4.37891 46.4009V62.9816C4.37891 63.3501 4.57222 63.685 4.88319 63.8777L19.3142 72.5532C19.3142 72.5532 19.3394 72.57 19.3478 72.5783L23.7435 79.0096C23.8023 79.0934 23.9284 79.0431 23.92 78.951L23.6595 75.3334C23.6595 75.2581 23.7351 75.2078 23.8023 75.2413L26.2397 76.7068C26.9373 77.1255 27.8282 76.623 27.8282 75.8107V59.23C27.8282 58.8616 27.6349 58.5266 27.3239 58.334V58.3507Z" fill="white" stroke="#2B3990" stroke-miterlimit="10"/>
<path d="M10.3379 54.6243L16.6079 58.669" stroke="#2B3990" stroke-miterlimit="10" stroke-linecap="round"/>
<path d="M18.5997 59.9836L21.2388 61.5663" stroke="#2B3990" stroke-miterlimit="10" stroke-linecap="round"/>
<path d="M9.32092 58.9536L15.5825 62.9899" stroke="#2B3990" stroke-miterlimit="10" stroke-linecap="round"/>
<path d="M17.5743 64.3131L20.2218 65.8958" stroke="#2B3990" stroke-miterlimit="10" stroke-linecap="round"/>
</g>
<defs>
<clipPath id="clip0_89_234">
<rect width="50" height="101" fill="white"/>
</clipPath>
</defs>
</svg>
