<svg width="63" height="85" viewBox="0 0 63 85" fill="none" xmlns="http://www.w3.org/2000/svg">
<g clip-path="url(#clip0_85_54)">
<path d="M55.18 73.1721L14.7915 58.7975V7.87952L55.18 22.2541V73.1721Z" fill="white" stroke="#2B3990" stroke-miterlimit="10"/>
<path d="M14.7916 14.9045C18.6419 14.9045 21.7633 11.7593 21.7633 7.87955C21.7633 3.99978 18.6419 0.854614 14.7916 0.854614C10.9412 0.854614 7.81982 3.99978 7.81982 7.87955C7.81982 11.7593 10.9412 14.9045 14.7916 14.9045Z" fill="#D7DF23" stroke="#2B3990" stroke-miterlimit="10"/>
<path d="M55.1801 26.8349C59.0305 26.8349 62.1518 23.6897 62.1518 19.81C62.1518 15.9302 59.0305 12.785 55.1801 12.785C51.3297 12.785 48.2084 15.9302 48.2084 19.81C48.2084 23.6897 51.3297 26.8349 55.1801 26.8349Z" fill="#D7DF23" stroke="#2B3990" stroke-miterlimit="10"/>
<path d="M14.7916 67.5317C18.6419 67.5317 21.7633 64.3865 21.7633 60.5067C21.7633 56.627 18.6419 53.4818 14.7916 53.4818C10.9412 53.4818 7.81982 56.627 7.81982 60.5067C7.81982 64.3865 10.9412 67.5317 14.7916 67.5317Z" fill="#D7DF23" stroke="#2B3990" stroke-miterlimit="10"/>
<path d="M55.1801 79.4621C59.0305 79.4621 62.1518 76.3169 62.1518 72.4372C62.1518 68.5574 59.0305 65.4122 55.1801 65.4122C51.3297 65.4122 48.2084 68.5574 48.2084 72.4372C48.2084 76.3169 51.3297 79.4621 55.1801 79.4621Z" fill="#D7DF23" stroke="#2B3990" stroke-miterlimit="10"/>
<path d="M48.2253 77.8725L7.81982 63.4979V12.58L48.2253 26.9546V77.8725Z" fill="#90BEE6" stroke="#2B3990" stroke-miterlimit="10"/>
<path d="M7.81987 19.6049C11.6703 19.6049 14.7916 16.4598 14.7916 12.58C14.7916 8.70022 11.6703 5.55505 7.81987 5.55505C3.96949 5.55505 0.848145 8.70022 0.848145 12.58C0.848145 16.4598 3.96949 19.6049 7.81987 19.6049Z" fill="#558DCA" stroke="#2B3990" stroke-miterlimit="10"/>
<path d="M48.2254 31.5183C52.0758 31.5183 55.1971 28.3731 55.1971 24.4933C55.1971 20.6136 52.0758 17.4684 48.2254 17.4684C44.375 17.4684 41.2537 20.6136 41.2537 24.4933C41.2537 28.3731 44.375 31.5183 48.2254 31.5183Z" fill="#558DCA" stroke="#2B3990" stroke-miterlimit="10"/>
<path d="M7.81987 72.232C11.6703 72.232 14.7916 69.0868 14.7916 65.2071C14.7916 61.3273 11.6703 58.1821 7.81987 58.1821C3.96949 58.1821 0.848145 61.3273 0.848145 65.2071C0.848145 69.0868 3.96949 72.232 7.81987 72.232Z" fill="#558DCA" stroke="#2B3990" stroke-miterlimit="10"/>
<path d="M48.2254 84.1624C52.0758 84.1624 55.1971 81.0172 55.1971 77.1375C55.1971 73.2577 52.0758 70.1125 48.2254 70.1125C44.375 70.1125 41.2537 73.2577 41.2537 77.1375C41.2537 81.0172 44.375 84.1624 48.2254 84.1624Z" fill="#558DCA" stroke="#2B3990" stroke-miterlimit="10"/>
<path d="M14.7916 28.4929L28.9726 33.5864" stroke="#2B3990" stroke-miterlimit="10" stroke-linecap="round"/>
<path d="M33.5016 35.2786L39.4216 37.1929" stroke="#2B3990" stroke-miterlimit="10" stroke-linecap="round"/>
<path d="M14.7916 37.5518L28.9726 42.6624" stroke="#2B3990" stroke-miterlimit="10" stroke-linecap="round"/>
<path d="M33.5016 44.3545L39.4216 46.2688" stroke="#2B3990" stroke-miterlimit="10" stroke-linecap="round"/>
<path d="M14.7916 46.6449L28.9726 51.7555" stroke="#2B3990" stroke-miterlimit="10" stroke-linecap="round"/>
<path d="M33.5016 53.4476L39.4216 55.3449" stroke="#2B3990" stroke-miterlimit="10" stroke-linecap="round"/>
</g>
<defs>
<clipPath id="clip0_85_54">
<rect width="63" height="85" fill="white"/>
</clipPath>
</defs>
</svg>
