<svg width="249" height="239" viewBox="0 0 249 239" fill="none" xmlns="http://www.w3.org/2000/svg">
<g clip-path="url(#clip0_123_2)">
<path d="M24.9747 238.778L0.803115 224.647C-0.267707 224.026 -0.256552 222.472 0.814269 221.861L36.3298 201.192C36.8318 200.903 37.4564 200.903 37.9584 201.192L62.1969 215.478C63.2677 216.111 63.2565 217.654 62.1746 218.264L26.5921 238.778C26.0901 239.067 25.4766 239.055 24.9747 238.767V238.778Z" fill="#DFE8F6"/>
<path d="M23.5246 229.787L2.16395 217.388C1.75124 217.143 1.49469 216.699 1.49469 216.222V146.167C1.49469 146.09 1.58393 146.034 1.65085 146.079L23.6808 158.877V229.698C23.6808 229.787 23.5915 229.831 23.5135 229.787H23.5246Z" fill="#90BEE6" stroke="#2B3990" stroke-miterlimit="10"/>
<path d="M23.8816 229.787L60.6576 208.507C61.0703 208.263 61.3269 207.819 61.3269 207.342V137.476C61.3269 137.309 61.1484 137.209 61.0034 137.287L23.6808 158.889V229.665C23.6808 229.764 23.7923 229.831 23.8816 229.776V229.787Z" fill="#558DCA" stroke="#2B3990" stroke-miterlimit="10"/>
<path d="M61.3268 137.476L23.7588 158.822C23.7588 158.822 23.6584 158.844 23.6027 158.822L1.71775 146.112C1.61736 146.056 1.61736 145.912 1.71775 145.857L37.7576 124.999C38.7392 124.411 39.9773 124.411 40.9589 124.999L61.3268 137.221C61.4272 137.276 61.4272 137.42 61.3268 137.476Z" fill="white" stroke="#2B3990" stroke-miterlimit="10"/>
<path d="M56.8316 153.627L29.1464 168.923C28.4772 169.29 27.6517 168.812 27.6517 168.046V161.675C27.6517 161.308 27.8525 160.975 28.1648 160.798L55.85 145.501C56.5193 145.135 57.3447 145.612 57.3447 146.378V152.75C57.3447 153.116 57.1439 153.449 56.8316 153.627Z" fill="#558DCA" stroke="#2B3990" stroke-miterlimit="10"/>
<path d="M33.9428 162.829L32.0689 163.861C31.935 163.928 31.7789 163.839 31.7789 163.695V161.886C31.7789 161.819 31.8123 161.752 31.8793 161.719L33.7532 160.687C33.887 160.62 34.0432 160.709 34.0432 160.853V162.663C34.0432 162.729 34.0097 162.796 33.9428 162.829Z" stroke="#2B3990" stroke-miterlimit="10"/>
<path d="M42.8329 156.247L43.0114 155.78C43.2679 155.103 44.1491 154.948 44.6176 155.503L44.7291 155.636C44.9522 155.891 45.0191 156.258 44.8964 156.58L44.718 157.046C44.4614 157.723 43.5802 157.878 43.1117 157.323L43.0002 157.19C42.7771 156.935 42.7102 156.569 42.8329 156.247Z" fill="#FFF200" stroke="#FFF200" stroke-miterlimit="10"/>
<path d="M47.54 153.583L47.7185 153.116C47.9751 152.439 48.8563 152.284 49.3247 152.839L49.4363 152.972C49.6594 153.227 49.7263 153.594 49.6036 153.916L49.4251 154.382C49.1686 155.059 48.2874 155.214 47.8189 154.659L47.7074 154.526C47.4843 154.271 47.4173 153.904 47.54 153.583Z" stroke="#2B3990" stroke-miterlimit="10"/>
<path d="M52.0464 152.04L54.5784 150.597" stroke="#FFF200" stroke-miterlimit="10" stroke-linecap="round"/>
<path d="M56.8316 166.77L29.1464 182.066C28.4772 182.432 27.6517 181.955 27.6517 181.189V174.818C27.6517 174.451 27.8525 174.118 28.1648 173.941L55.85 158.644C56.5193 158.278 57.3447 158.755 57.3447 159.521V165.893C57.3447 166.259 57.1439 166.592 56.8316 166.77Z" fill="#558DCA" stroke="#2B3990" stroke-miterlimit="10"/>
<path d="M33.9428 175.972L32.0689 177.004C31.935 177.071 31.7789 176.982 31.7789 176.838V175.028C31.7789 174.962 31.8123 174.895 31.8793 174.862L33.7532 173.83C33.887 173.763 34.0432 173.852 34.0432 173.996V175.806C34.0432 175.872 34.0097 175.939 33.9428 175.972Z" stroke="#2B3990" stroke-miterlimit="10"/>
<path d="M42.8329 169.401L43.0114 168.934C43.2679 168.257 44.1491 168.102 44.6176 168.657L44.7291 168.79C44.9522 169.045 45.0191 169.412 44.8964 169.734L44.718 170.2C44.4614 170.877 43.5802 171.032 43.1117 170.477L43.0002 170.344C42.7771 170.089 42.7102 169.722 42.8329 169.401Z" fill="#FFF200" stroke="#FFF200" stroke-miterlimit="10"/>
<path d="M47.54 166.736L47.7185 166.27C47.9751 165.593 48.8563 165.438 49.3247 165.993L49.4363 166.126C49.6594 166.381 49.7263 166.748 49.6036 167.07L49.4251 167.536C49.1686 168.213 48.2874 168.368 47.8189 167.813L47.7074 167.68C47.4843 167.425 47.4173 167.058 47.54 166.736Z" stroke="#2B3990" stroke-miterlimit="10"/>
<path d="M52.0464 165.182L54.5784 163.739" stroke="#FFF200" stroke-miterlimit="10" stroke-linecap="round"/>
<path d="M56.8316 179.924L29.1464 195.22C28.4772 195.586 27.6517 195.109 27.6517 194.343V187.972C27.6517 187.605 27.8525 187.272 28.1648 187.095L55.85 171.798C56.5193 171.432 57.3447 171.909 57.3447 172.675V179.047C57.3447 179.413 57.1439 179.746 56.8316 179.924Z" fill="#558DCA" stroke="#2B3990" stroke-miterlimit="10"/>
<path d="M33.9428 189.126L32.0689 190.158C31.935 190.225 31.7789 190.136 31.7789 189.992V188.182C31.7789 188.116 31.8123 188.049 31.8793 188.016L33.7532 186.984C33.887 186.917 34.0432 187.006 34.0432 187.15V188.959C34.0432 189.026 34.0097 189.093 33.9428 189.126Z" fill="#FFF200" stroke="#FFF200" stroke-miterlimit="10"/>
<path d="M42.8329 182.555L43.0114 182.088C43.2679 181.411 44.1491 181.256 44.6176 181.811L44.7291 181.944C44.9522 182.199 45.0191 182.566 44.8964 182.888L44.718 183.354C44.4614 184.031 43.5802 184.186 43.1117 183.631L43.0002 183.498C42.7771 183.243 42.7102 182.876 42.8329 182.555Z" stroke="#2B3990" stroke-miterlimit="10"/>
<path d="M47.54 179.879L47.7185 179.413C47.9751 178.736 48.8563 178.581 49.3247 179.136L49.4363 179.269C49.6594 179.524 49.7263 179.89 49.6036 180.212L49.4251 180.679C49.1686 181.356 48.2874 181.511 47.8189 180.956L47.7074 180.823C47.4843 180.568 47.4173 180.201 47.54 179.879Z" fill="#FFF200" stroke="#FFF200" stroke-miterlimit="10"/>
<path d="M52.0464 178.336L54.5784 176.893" stroke="#FFF200" stroke-miterlimit="10" stroke-linecap="round"/>
<path d="M56.8316 193.078L29.1464 208.374C28.4772 208.74 27.6517 208.263 27.6517 207.497V201.125C27.6517 200.759 27.8525 200.426 28.1648 200.249L55.85 184.952C56.5193 184.586 57.3447 185.063 57.3447 185.829V192.201C57.3447 192.567 57.1439 192.9 56.8316 193.078Z" fill="#558DCA" stroke="#2B3990" stroke-miterlimit="10"/>
<path d="M33.9428 202.269L32.0689 203.301C31.935 203.368 31.7789 203.279 31.7789 203.135V201.325C31.7789 201.259 31.8123 201.192 31.8793 201.159L33.7532 200.126C33.887 200.06 34.0432 200.149 34.0432 200.293V202.102C34.0432 202.169 34.0097 202.236 33.9428 202.269Z" stroke="#2B3990" stroke-miterlimit="10"/>
<path d="M42.8329 195.697L43.0114 195.231C43.2679 194.554 44.1491 194.399 44.6176 194.954L44.7291 195.087C44.9522 195.342 45.0191 195.709 44.8964 196.03L44.718 196.497C44.4614 197.174 43.5802 197.329 43.1117 196.774L43.0002 196.641C42.7771 196.386 42.7102 196.019 42.8329 195.697Z" fill="#FFF200" stroke="#FFF200" stroke-miterlimit="10"/>
<path d="M47.54 193.033L47.7185 192.567C47.9751 191.89 48.8563 191.735 49.3247 192.29L49.4363 192.423C49.6594 192.678 49.7263 193.044 49.6036 193.366L49.4251 193.833C49.1686 194.51 48.2874 194.665 47.8189 194.11L47.7074 193.977C47.4843 193.722 47.4173 193.355 47.54 193.033Z" stroke="#2B3990" stroke-miterlimit="10"/>
<path d="M52.0464 191.49L54.5784 190.047" stroke="#FFF200" stroke-miterlimit="10" stroke-linecap="round"/>
<path d="M56.8316 206.221L29.1464 221.517C28.4772 221.883 27.6517 221.406 27.6517 220.64V214.268C27.6517 213.902 27.8525 213.569 28.1648 213.391L55.85 198.095C56.5193 197.729 57.3447 198.206 57.3447 198.972V205.344C57.3447 205.71 57.1439 206.043 56.8316 206.221Z" fill="#558DCA" stroke="#2B3990" stroke-miterlimit="10"/>
<path d="M33.9428 215.423L32.0689 216.455C31.935 216.522 31.7789 216.433 31.7789 216.289V214.479C31.7789 214.413 31.8123 214.346 31.8793 214.313L33.7532 213.28C33.887 213.214 34.0432 213.303 34.0432 213.447V215.256C34.0432 215.323 34.0097 215.389 33.9428 215.423Z" fill="#FFF200" stroke="#FFF200" stroke-miterlimit="10"/>
<path d="M42.8329 208.851L43.0114 208.385C43.2679 207.708 44.1491 207.553 44.6176 208.108L44.7291 208.241C44.9522 208.496 45.0191 208.862 44.8964 209.184L44.718 209.651C44.4614 210.328 43.5802 210.483 43.1117 209.928L43.0002 209.795C42.7771 209.54 42.7102 209.173 42.8329 208.851Z" fill="#FFF200" stroke="#FFF200" stroke-miterlimit="10"/>
<path d="M47.54 206.187L47.7185 205.721C47.9751 205.044 48.8563 204.889 49.3247 205.444L49.4363 205.577C49.6594 205.832 49.7263 206.198 49.6036 206.52L49.4251 206.986C49.1686 207.664 48.2874 207.819 47.8189 207.264L47.7074 207.131C47.4843 206.875 47.4173 206.509 47.54 206.187Z" stroke="#2B3990" stroke-miterlimit="10"/>
<path d="M52.0464 204.633L54.5784 203.19" stroke="#FFF200" stroke-miterlimit="10" stroke-linecap="round"/>
<path d="M5.98991 164.217L17.557 171.388C18.2263 171.754 19.0517 171.277 19.0517 170.511V164.139C19.0517 163.773 18.8509 163.44 18.5386 163.262L6.9715 156.091C6.30223 155.725 5.47681 156.202 5.47681 156.968V163.34C5.47681 163.706 5.67759 164.039 5.98991 164.217Z" fill="#1C75BC" stroke="#2B3990" stroke-miterlimit="10"/>
<path d="M8.61119 162.829L10.4851 163.861C10.619 163.928 10.7751 163.839 10.7751 163.695V161.886C10.7751 161.819 10.7417 161.752 10.6748 161.719L8.80082 160.687C8.66696 160.62 8.5108 160.709 8.5108 160.853V162.663C8.5108 162.729 8.54427 162.796 8.61119 162.829Z" fill="#FFF200"/>
<path d="M13.3852 165.626L15.2592 166.659C15.393 166.725 15.5492 166.637 15.5492 166.492V164.683C15.5492 164.616 15.5157 164.55 15.4488 164.516L13.5749 163.484C13.441 163.417 13.2849 163.506 13.2849 163.651V165.46C13.2849 165.527 13.3183 165.593 13.3852 165.626Z" fill="#2B3990"/>
<path d="M5.98991 180.001L17.557 187.172C18.2263 187.539 19.0517 187.061 19.0517 186.295V179.924C19.0517 179.557 18.8509 179.224 18.5386 179.047L6.9715 171.876C6.30223 171.51 5.47681 171.987 5.47681 172.753V179.125C5.47681 179.491 5.67759 179.824 5.98991 180.001Z" fill="#1C75BC" stroke="#2B3990" stroke-miterlimit="10"/>
<path d="M8.61119 178.614L10.4851 179.646C10.619 179.713 10.7751 179.624 10.7751 179.48V177.67C10.7751 177.604 10.7417 177.537 10.6748 177.504L8.80082 176.472C8.66696 176.405 8.5108 176.494 8.5108 176.638V178.447C8.5108 178.514 8.54427 178.581 8.61119 178.614Z" fill="#FFF200"/>
<path d="M13.3852 181.411L15.2592 182.444C15.393 182.51 15.5492 182.421 15.5492 182.277V180.468C15.5492 180.401 15.5157 180.334 15.4488 180.301L13.5749 179.269C13.441 179.202 13.2849 179.291 13.2849 179.435V181.245C13.2849 181.311 13.3183 181.378 13.3852 181.411Z" fill="#2B3990"/>
<path d="M5.98991 195.786L17.557 202.957C18.2263 203.323 19.0517 202.846 19.0517 202.08V195.708C19.0517 195.342 18.8509 195.009 18.5386 194.832L6.9715 187.661C6.30223 187.294 5.47681 187.772 5.47681 188.538V194.909C5.47681 195.276 5.67759 195.609 5.98991 195.786Z" fill="#1C75BC" stroke="#2B3990" stroke-miterlimit="10"/>
<path d="M8.61119 194.399L10.4851 195.431C10.619 195.498 10.7751 195.409 10.7751 195.264V193.455C10.7751 193.389 10.7417 193.322 10.6748 193.289L8.80082 192.256C8.66696 192.19 8.5108 192.278 8.5108 192.423V194.232C8.5108 194.299 8.54427 194.365 8.61119 194.399Z" fill="#FFF200"/>
<path d="M13.3852 197.207L15.2592 198.239C15.393 198.306 15.5492 198.217 15.5492 198.073V196.264C15.5492 196.197 15.5157 196.13 15.4488 196.097L13.5749 195.065C13.441 194.998 13.2849 195.087 13.2849 195.231V197.041C13.2849 197.107 13.3183 197.174 13.3852 197.207Z" fill="#2B3990"/>
<path d="M5.98991 211.582L17.557 218.753C18.2263 219.119 19.0517 218.642 19.0517 217.876V211.504C19.0517 211.138 18.8509 210.805 18.5386 210.627L6.9715 203.457C6.30223 203.09 5.47681 203.568 5.47681 204.333V210.705C5.47681 211.071 5.67759 211.404 5.98991 211.582Z" fill="#1C75BC" stroke="#2B3990" stroke-miterlimit="10"/>
<path d="M8.61119 210.183L10.4851 211.216C10.619 211.282 10.7751 211.194 10.7751 211.049V209.24C10.7751 209.173 10.7417 209.107 10.6748 209.073L8.80082 208.041C8.66696 207.974 8.5108 208.063 8.5108 208.208V210.017C8.5108 210.083 8.54427 210.15 8.61119 210.183Z" fill="#FFF200"/>
<path d="M13.3852 212.992L15.2592 214.024C15.393 214.091 15.5492 214.002 15.5492 213.858V212.048C15.5492 211.982 15.5157 211.915 15.4488 211.882L13.5749 210.849C13.441 210.783 13.2849 210.872 13.2849 211.016V212.825C13.2849 212.892 13.3183 212.958 13.3852 212.992Z" fill="#2B3990"/>
<path d="M21.3161 143.315L38.2819 133.557C38.6054 133.369 39.0069 133.369 39.3304 133.535L42.2194 135.034C42.9779 135.433 43.0002 136.51 42.264 136.932L25.2982 146.689C24.9747 146.878 24.5731 146.878 24.2497 146.711L21.3607 145.213C20.6022 144.813 20.5799 143.736 21.3161 143.315Z" fill="#86B7E2" stroke="#2B3990" stroke-miterlimit="10"/>
</g>
<g clip-path="url(#clip1_123_2)">
<path d="M24.5783 114.778L0.790394 100.647C-0.26343 100.026 -0.252453 98.4715 0.801372 97.861L35.7532 77.1921C36.2472 76.9035 36.8619 76.9035 37.3559 77.1921L61.2097 91.4783C62.2635 92.111 62.2525 93.6539 61.1877 94.2645L26.17 114.778C25.676 115.067 25.0723 115.055 24.5783 114.767V114.778Z" fill="#DFE8F6"/>
<path d="M23.1512 105.787L2.12959 93.3875C1.72343 93.1433 1.47095 92.6993 1.47095 92.222V22.1675C1.47095 22.0898 1.55877 22.0343 1.62463 22.0787L23.3049 34.8774V105.698C23.3049 105.787 23.2171 105.831 23.1402 105.787H23.1512Z" fill="#90BEE6" stroke="#2B3990" stroke-miterlimit="10"/>
<path d="M23.5025 105.787L59.6947 84.5072C60.1009 84.263 60.3534 83.819 60.3534 83.3417V13.4759C60.3534 13.3094 60.1777 13.2095 60.035 13.2872L23.3049 34.8885V105.665C23.3049 105.764 23.4146 105.831 23.5025 105.776V105.787Z" fill="#558DCA" stroke="#2B3990" stroke-miterlimit="10"/>
<path d="M60.3534 13.4759L23.3817 34.8219C23.3817 34.8219 23.2829 34.8441 23.228 34.8219L1.69049 22.112C1.5917 22.0565 1.5917 21.9122 1.69049 21.8567L37.1583 0.999033C38.1243 0.410713 39.3428 0.410713 40.3088 0.999033L60.3534 13.2206C60.4522 13.2761 60.4522 13.4204 60.3534 13.4759Z" fill="white" stroke="#2B3990" stroke-miterlimit="10"/>
<path d="M55.9295 29.6269L28.6838 44.9233C28.0252 45.2896 27.2128 44.8123 27.2128 44.0463V37.6747C27.2128 37.3084 27.4104 36.9754 27.7178 36.7978L54.9635 21.5014C55.6222 21.1351 56.4345 21.6125 56.4345 22.3784V28.75C56.4345 29.1163 56.2369 29.4493 55.9295 29.6269Z" fill="#558DCA" stroke="#2B3990" stroke-miterlimit="10"/>
<path d="M33.404 38.8291L31.5598 39.8615C31.4281 39.9281 31.2744 39.8393 31.2744 39.695V37.8856C31.2744 37.819 31.3073 37.7524 31.3732 37.7191L33.2174 36.6868C33.3491 36.6202 33.5028 36.709 33.5028 36.8533V38.6626C33.5028 38.7292 33.4699 38.7958 33.404 38.8291Z" stroke="#2B3990" stroke-miterlimit="10"/>
<path d="M42.153 32.2466L42.3286 31.7804C42.5811 31.1033 43.4483 30.9479 43.9093 31.5029L44.0191 31.6361C44.2387 31.8914 44.3045 32.2577 44.1838 32.5796L44.0081 33.0459C43.7557 33.723 42.8884 33.8784 42.4274 33.3234L42.3176 33.1902C42.0981 32.9348 42.0322 32.5685 42.153 32.2466Z" fill="#FFF200" stroke="#FFF200" stroke-miterlimit="10"/>
<path d="M46.7854 29.5825L46.961 29.1163C47.2135 28.4392 48.0807 28.2838 48.5418 28.8388L48.6516 28.972C48.8711 29.2273 48.937 29.5936 48.8162 29.9155L48.6406 30.3818C48.3881 31.0589 47.5209 31.2143 47.0598 30.6593L46.9501 30.5261C46.7305 30.2707 46.6647 29.9044 46.7854 29.5825Z" stroke="#2B3990" stroke-miterlimit="10"/>
<path d="M51.2203 28.0396L53.7121 26.5965" stroke="#FFF200" stroke-miterlimit="10" stroke-linecap="round"/>
<path d="M55.9295 42.7698L28.6838 58.0661C28.0252 58.4324 27.2128 57.9551 27.2128 57.1892V50.8176C27.2128 50.4513 27.4104 50.1182 27.7178 49.9406L54.9635 34.6443C55.6222 34.278 56.4345 34.7553 56.4345 35.5212V41.8929C56.4345 42.2592 56.2369 42.5922 55.9295 42.7698Z" fill="#558DCA" stroke="#2B3990" stroke-miterlimit="10"/>
<path d="M33.404 51.972L31.5598 53.0043C31.4281 53.0709 31.2744 52.9821 31.2744 52.8378V51.0285C31.2744 50.9619 31.3073 50.8953 31.3732 50.862L33.2174 49.8296C33.3491 49.763 33.5028 49.8518 33.5028 49.9961V51.8055C33.5028 51.8721 33.4699 51.9387 33.404 51.972Z" stroke="#2B3990" stroke-miterlimit="10"/>
<path d="M42.153 45.4006L42.3286 44.9344C42.5811 44.2572 43.4483 44.1018 43.9093 44.6569L44.0191 44.7901C44.2387 45.0454 44.3045 45.4117 44.1838 45.7336L44.0081 46.1998C43.7557 46.8769 42.8884 47.0323 42.4274 46.4773L42.3176 46.3441C42.0981 46.0888 42.0322 45.7225 42.153 45.4006Z" fill="#FFF200" stroke="#FFF200" stroke-miterlimit="10"/>
<path d="M46.7854 42.7365L46.961 42.2703C47.2135 41.5932 48.0807 41.4377 48.5418 41.9928L48.6516 42.126C48.8711 42.3813 48.937 42.7476 48.8162 43.0695L48.6406 43.5357C48.3881 44.2128 47.5209 44.3682 47.0598 43.8132L46.9501 43.68C46.7305 43.4247 46.6647 43.0584 46.7854 42.7365Z" stroke="#2B3990" stroke-miterlimit="10"/>
<path d="M51.2203 41.1824L53.7121 39.7394" stroke="#FFF200" stroke-miterlimit="10" stroke-linecap="round"/>
<path d="M55.9295 55.9237L28.6838 71.2201C28.0252 71.5864 27.2128 71.1091 27.2128 70.3431V63.9715C27.2128 63.6052 27.4104 63.2722 27.7178 63.0946L54.9635 47.7983C55.6222 47.4319 56.4345 47.9093 56.4345 48.6752V55.0468C56.4345 55.4131 56.2369 55.7461 55.9295 55.9237Z" fill="#558DCA" stroke="#2B3990" stroke-miterlimit="10"/>
<path d="M33.404 65.126L31.5598 66.1583C31.4281 66.2249 31.2744 66.1361 31.2744 65.9918V64.1824C31.2744 64.1158 31.3073 64.0492 31.3732 64.0159L33.2174 62.9836C33.3491 62.917 33.5028 63.0058 33.5028 63.1501V64.9595C33.5028 65.0261 33.4699 65.0927 33.404 65.126Z" fill="#FFF200" stroke="#FFF200" stroke-miterlimit="10"/>
<path d="M42.153 58.5545L42.3286 58.0883C42.5811 57.4112 43.4483 57.2558 43.9093 57.8108L44.0191 57.944C44.2387 58.1993 44.3045 58.5656 44.1838 58.8876L44.0081 59.3538C43.7557 60.0309 42.8884 60.1863 42.4274 59.6313L42.3176 59.4981C42.0981 59.2428 42.0322 58.8765 42.153 58.5545Z" stroke="#2B3990" stroke-miterlimit="10"/>
<path d="M46.7854 55.8793L46.961 55.4131C47.2135 54.736 48.0807 54.5806 48.5418 55.1356L48.6516 55.2688C48.8711 55.5241 48.937 55.8904 48.8162 56.2124L48.6406 56.6786C48.3881 57.3557 47.5209 57.5111 47.0598 56.9561L46.9501 56.8229C46.7305 56.5676 46.6647 56.2013 46.7854 55.8793Z" fill="#FFF200" stroke="#FFF200" stroke-miterlimit="10"/>
<path d="M51.2203 54.3364L53.7121 52.8933" stroke="#FFF200" stroke-miterlimit="10" stroke-linecap="round"/>
<path d="M55.9295 69.0777L28.6838 84.374C28.0252 84.7404 27.2128 84.263 27.2128 83.4971V77.1255C27.2128 76.7592 27.4104 76.4262 27.7178 76.2486L54.9635 60.9522C55.6222 60.5859 56.4345 61.0632 56.4345 61.8292V68.2008C56.4345 68.5671 56.2369 68.9001 55.9295 69.0777Z" fill="#558DCA" stroke="#2B3990" stroke-miterlimit="10"/>
<path d="M33.404 78.2688L31.5598 79.3012C31.4281 79.3678 31.2744 79.279 31.2744 79.1347V77.3253C31.2744 77.2587 31.3073 77.1921 31.3732 77.1588L33.2174 76.1265C33.3491 76.0598 33.5028 76.1487 33.5028 76.293V78.1023C33.5028 78.1689 33.4699 78.2355 33.404 78.2688Z" stroke="#2B3990" stroke-miterlimit="10"/>
<path d="M42.153 71.6974L42.3286 71.2312C42.5811 70.5541 43.4483 70.3987 43.9093 70.9537L44.0191 71.0869C44.2387 71.3422 44.3045 71.7085 44.1838 72.0304L44.0081 72.4966C43.7557 73.1738 42.8884 73.3292 42.4274 72.7741L42.3176 72.6409C42.0981 72.3856 42.0322 72.0193 42.153 71.6974Z" fill="#FFF200" stroke="#FFF200" stroke-miterlimit="10"/>
<path d="M46.7854 69.0333L46.961 68.5671C47.2135 67.89 48.0807 67.7346 48.5418 68.2896L48.6516 68.4228C48.8711 68.6781 48.937 69.0444 48.8162 69.3663L48.6406 69.8325C48.3881 70.5097 47.5209 70.6651 47.0598 70.11L46.9501 69.9768C46.7305 69.7215 46.6647 69.3552 46.7854 69.0333Z" stroke="#2B3990" stroke-miterlimit="10"/>
<path d="M51.2203 67.4904L53.7121 66.0473" stroke="#FFF200" stroke-miterlimit="10" stroke-linecap="round"/>
<path d="M55.9295 82.2206L28.6838 97.5169C28.0252 97.8832 27.2128 97.4059 27.2128 96.64V90.2683C27.2128 89.902 27.4104 89.569 27.7178 89.3914L54.9635 74.0951C55.6222 73.7288 56.4345 74.2061 56.4345 74.972V81.3436C56.4345 81.7099 56.2369 82.043 55.9295 82.2206Z" fill="#558DCA" stroke="#2B3990" stroke-miterlimit="10"/>
<path d="M33.404 91.4228L31.5598 92.4551C31.4281 92.5217 31.2744 92.4329 31.2744 92.2886V90.4792C31.2744 90.4126 31.3073 90.346 31.3732 90.3127L33.2174 89.2804C33.3491 89.2138 33.5028 89.3026 33.5028 89.4469V91.2563C33.5028 91.3229 33.4699 91.3895 33.404 91.4228Z" fill="#FFF200" stroke="#FFF200" stroke-miterlimit="10"/>
<path d="M42.153 84.8514L42.3286 84.3851C42.5811 83.708 43.4483 83.5526 43.9093 84.1076L44.0191 84.2408C44.2387 84.4961 44.3045 84.8624 44.1838 85.1844L44.0081 85.6506C43.7557 86.3277 42.8884 86.4831 42.4274 85.9281L42.3176 85.7949C42.0981 85.5396 42.0322 85.1733 42.153 84.8514Z" fill="#FFF200" stroke="#FFF200" stroke-miterlimit="10"/>
<path d="M46.7854 82.1873L46.961 81.721C47.2135 81.0439 48.0807 80.8885 48.5418 81.4435L48.6516 81.5767C48.8711 81.832 48.937 82.1983 48.8162 82.5203L48.6406 82.9865C48.3881 83.6636 47.5209 83.819 47.0598 83.264L46.9501 83.1308C46.7305 82.8755 46.6647 82.5092 46.7854 82.1873Z" stroke="#2B3990" stroke-miterlimit="10"/>
<path d="M51.2203 80.6332L53.7121 79.1901" stroke="#FFF200" stroke-miterlimit="10" stroke-linecap="round"/>
<path d="M5.89479 40.2167L17.2783 47.3875C17.9369 47.7539 18.7492 47.2765 18.7492 46.5106V40.139C18.7492 39.7727 18.5517 39.4397 18.2443 39.2621L6.86079 32.0912C6.20215 31.7249 5.38983 32.2022 5.38983 32.9681V39.3398C5.38983 39.7061 5.58742 40.0391 5.89479 40.2167Z" fill="#1C75BC" stroke="#2B3990" stroke-miterlimit="10"/>
<path d="M8.47447 38.8291L10.3187 39.8615C10.4504 39.9281 10.6041 39.8393 10.6041 39.695V37.8856C10.6041 37.819 10.5711 37.7524 10.5053 37.7191L8.66108 36.6868C8.52935 36.6202 8.37567 36.709 8.37567 36.8533V38.6626C8.37567 38.7292 8.4086 38.7958 8.47447 38.8291Z" fill="#FFF200"/>
<path d="M13.1728 41.6264L15.017 42.6588C15.1487 42.7254 15.3024 42.6366 15.3024 42.4923V40.6829C15.3024 40.6163 15.2694 40.5497 15.2036 40.5164L13.3594 39.4841C13.2277 39.4175 13.074 39.5063 13.074 39.6506V41.4599C13.074 41.5265 13.1069 41.5931 13.1728 41.6264Z" fill="#2B3990"/>
<path d="M5.89479 56.0014L17.2783 63.1723C17.9369 63.5386 18.7492 63.0613 18.7492 62.2954V55.9237C18.7492 55.5574 18.5517 55.2244 18.2443 55.0468L6.86079 47.876C6.20215 47.5096 5.38983 47.987 5.38983 48.7529V55.1245C5.38983 55.4908 5.58742 55.8238 5.89479 56.0014Z" fill="#1C75BC" stroke="#2B3990" stroke-miterlimit="10"/>
<path d="M8.47447 54.6139L10.3187 55.6462C10.4504 55.7128 10.6041 55.624 10.6041 55.4797V53.6704C10.6041 53.6038 10.5711 53.5372 10.5053 53.5039L8.66108 52.4715C8.52935 52.4049 8.37567 52.4937 8.37567 52.638V54.4474C8.37567 54.514 8.4086 54.5806 8.47447 54.6139Z" fill="#FFF200"/>
<path d="M13.1728 57.4112L15.017 58.4435C15.1487 58.5101 15.3024 58.4213 15.3024 58.277V56.4677C15.3024 56.4011 15.2694 56.3345 15.2036 56.3012L13.3594 55.2688C13.2277 55.2022 13.074 55.291 13.074 55.4353V57.2447C13.074 57.3113 13.1069 57.3779 13.1728 57.4112Z" fill="#2B3990"/>
<path d="M5.89479 71.7862L17.2783 78.957C17.9369 79.3233 18.7492 78.846 18.7492 78.0801V71.7085C18.7492 71.3422 18.5517 71.0092 18.2443 70.8316L6.86079 63.6607C6.20215 63.2944 5.38983 63.7717 5.38983 64.5376V70.9093C5.38983 71.2756 5.58742 71.6086 5.89479 71.7862Z" fill="#1C75BC" stroke="#2B3990" stroke-miterlimit="10"/>
<path d="M8.47447 70.3986L10.3187 71.431C10.4504 71.4976 10.6041 71.4088 10.6041 71.2645V69.4551C10.6041 69.3885 10.5711 69.3219 10.5053 69.2886L8.66108 68.2563C8.52935 68.1897 8.37567 68.2785 8.37567 68.4228V70.2321C8.37567 70.2987 8.4086 70.3653 8.47447 70.3986Z" fill="#FFF200"/>
<path d="M13.1728 73.207L15.017 74.2394C15.1487 74.306 15.3024 74.2172 15.3024 74.0729V72.2635C15.3024 72.1969 15.2694 72.1303 15.2036 72.097L13.3594 71.0647C13.2277 70.9981 13.074 71.0869 13.074 71.2312V73.0405C13.074 73.1071 13.1069 73.1737 13.1728 73.207Z" fill="#2B3990"/>
<path d="M5.89479 87.582L17.2783 94.7529C17.9369 95.1192 18.7492 94.6419 18.7492 93.876V87.5043C18.7492 87.138 18.5517 86.805 18.2443 86.6274L6.86079 79.4566C6.20215 79.0902 5.38983 79.5676 5.38983 80.3335V86.7051C5.38983 87.0714 5.58742 87.4044 5.89479 87.582Z" fill="#1C75BC" stroke="#2B3990" stroke-miterlimit="10"/>
<path d="M8.47447 86.1834L10.3187 87.2157C10.4504 87.2823 10.6041 87.1935 10.6041 87.0492V85.2398C10.6041 85.1732 10.5711 85.1066 10.5053 85.0733L8.66108 84.041C8.52935 83.9744 8.37567 84.0632 8.37567 84.2075V86.0169C8.37567 86.0835 8.4086 86.1501 8.47447 86.1834Z" fill="#FFF200"/>
<path d="M13.1728 88.9918L15.017 90.0241C15.1487 90.0907 15.3024 90.0019 15.3024 89.8576V88.0483C15.3024 87.9817 15.2694 87.9151 15.2036 87.8817L13.3594 86.8494C13.2277 86.7828 13.074 86.8716 13.074 87.0159V88.8253C13.074 88.8919 13.1069 88.9585 13.1728 88.9918Z" fill="#2B3990"/>
<path d="M20.9777 19.3147L37.6742 9.55743C37.9926 9.36872 38.3877 9.36872 38.7061 9.53523L41.5492 11.0338C42.2957 11.4334 42.3176 12.5101 41.5931 12.9319L24.8966 22.6892C24.5783 22.8779 24.1831 22.8779 23.8647 22.7114L21.0216 21.2128C20.2751 20.8132 20.2532 19.7365 20.9777 19.3147Z" fill="#86B7E2" stroke="#2B3990" stroke-miterlimit="10"/>
</g>
<path d="M72.488 92.584C70.696 92.584 69.672 91.704 69.672 89.992C69.672 88.28 70.696 87.4 72.488 87.4L72.84 87.4L72.84 89.064L72.376 89.064C71.576 89.064 71.272 89.384 71.272 89.944C71.272 90.504 71.576 90.824 72.376 90.824C74.68 90.824 75.112 87.384 78.312 87.384C80.104 87.384 81.128 88.28 81.128 90.008C81.128 91.736 80.104 92.632 78.312 92.632L77.624 92.632L77.624 90.968L78.424 90.968C79.224 90.968 79.512 90.616 79.512 90.056C79.512 89.496 79.224 89.144 78.424 89.144C76.12 89.144 75.688 92.584 72.488 92.584ZM69.8 83.7836C69.8 82.0236 70.776 81.1596 72.568 81.1596L74.024 81.1596C75.816 81.1596 76.792 82.0236 76.792 83.7836L76.792 84.6156L81 84.6156L81 86.3756L69.8 86.3756L69.8 83.7836ZM71.4 83.7836L71.4 84.6156L75.192 84.6156L75.192 83.7836C75.192 83.2236 74.936 82.9196 74.136 82.9196L72.456 82.9196C71.656 82.9196 71.4 83.2236 71.4 83.7836ZM71.4 78.5062L74.52 78.5062L74.52 76.0902L76.12 76.0902L76.12 78.5062L79.4 78.5063L79.4 75.4663L81 75.4663L81 80.2663L69.8 80.2662L69.8 75.4662L71.4 75.4662L71.4 78.5062ZM76.824 70.9356L76.824 69.2716L78.312 69.2716C80.104 69.2716 81.128 70.1676 81.128 71.8956C81.128 73.6236 80.104 74.5196 78.312 74.5196L72.488 74.5196C70.696 74.5196 69.672 73.6236 69.672 71.8956C69.672 70.1676 70.696 69.2716 72.488 69.2716L73.576 69.2716L73.576 70.9356L72.376 70.9356C71.576 70.9356 71.272 71.2876 71.272 71.8476C71.272 72.4076 71.576 72.7596 72.376 72.7596L78.424 72.7596C79.224 72.7596 79.512 72.4076 79.512 71.8476C79.512 71.2876 79.224 70.9356 78.424 70.9356L76.824 70.9356ZM81 68.2038L69.8 68.2037L69.8 66.4437L81 66.4438L81 68.2038ZM69.8 61.2529L81 59.4609L81 61.2369L78.968 61.5409L78.968 63.7009L81 64.0049L81 65.6209L69.8 63.8289L69.8 61.2529ZM71.784 62.6289L77.448 63.4769L77.448 61.7809L71.784 62.6289ZM81 58.6413L69.8 58.6412L69.8 56.8812L79.4 56.8813L79.4 53.9852L81 53.9852L81 58.6413ZM71.4 54.5283L69.8 54.5283L69.8 49.0882L71.4 49.0882L71.4 50.9282L81 50.9282L81 52.6883L71.4 52.6882L71.4 54.5283ZM81 46.6651L77.288 46.6651L69.8 48.8891L69.8 47.0491L74.904 45.7051L69.8 44.3611L69.8 42.6811L77.288 44.9051L81 44.9051L81 46.6651ZM76.824 36.045L76.824 34.381L78.312 34.381C80.104 34.381 81.128 35.277 81.128 37.005C81.128 38.733 80.104 39.629 78.312 39.629L72.488 39.629C70.696 39.629 69.672 38.733 69.672 37.005C69.672 35.277 70.696 34.381 72.488 34.381L73.576 34.381L73.576 36.045L72.376 36.045C71.576 36.045 71.272 36.397 71.272 36.957C71.272 37.517 71.576 37.869 72.376 37.869L78.424 37.869C79.224 37.869 79.512 37.517 79.512 36.957C79.512 36.397 79.224 36.045 78.424 36.045L76.824 36.045ZM72.376 31.6971L78.424 31.6971C79.224 31.6971 79.528 31.3451 79.528 30.7851C79.528 30.2251 79.224 29.8731 78.424 29.8731L72.376 29.8731C71.576 29.8731 71.272 30.2251 71.272 30.7851C71.272 31.3451 71.576 31.6971 72.376 31.6971ZM78.312 33.4571L72.488 33.4571C70.696 33.4571 69.672 32.5131 69.672 30.7851C69.672 29.0571 70.696 28.1131 72.488 28.1131L78.312 28.1131C80.104 28.1131 81.128 29.0571 81.128 30.7851C81.128 32.5131 80.104 33.4571 78.312 33.4571ZM81 21.4974L81 23.2894C80.712 23.3854 80.536 23.4494 79.624 23.4494L77.864 23.4494C76.824 23.4494 76.44 23.8014 76.44 24.6014L76.44 25.2094L81 25.2094L81 26.9694L69.8 26.9694L69.8 24.3134C69.8 22.4894 70.648 21.7054 72.376 21.7054L73.256 21.7054C74.408 21.7054 75.16 22.0734 75.528 22.8574C75.896 21.9774 76.744 21.6894 77.912 21.6894L79.64 21.6894C80.184 21.6894 80.584 21.6734 81 21.4974ZM71.4 24.3614L71.4 25.2094L74.84 25.2094L74.84 24.5214C74.84 23.8654 74.552 23.4654 73.656 23.4654L72.552 23.4654C71.752 23.4654 71.4 23.7374 71.4 24.3614ZM71.4 18.7719L74.52 18.7719L74.52 16.3559L76.12 16.3559L76.12 18.7719L79.4 18.7719L79.4 15.7319L81 15.7319L81 20.5319L69.8 20.5319L69.8 15.7319L71.4 15.7319L71.4 18.7719ZM85.8 87.2996L85.8 86.7556L87.24 86.7556L87.24 87.1876C87.24 87.7476 87.448 88.0036 88.248 88.0036L94.552 88.0036C95.352 88.0036 95.56 87.7476 95.56 87.1876L95.56 86.7556L97 86.7556L97 87.2996C97 89.0596 96.344 89.7636 94.552 89.7636L88.248 89.7636C86.456 89.7636 85.8 89.0596 85.8 87.2996ZM97 85.86L85.8 85.86L85.8 84.1L95.4 84.1L95.4 81.204L97 81.204L97 85.86ZM87.4 78.6781L90.52 78.6781L90.52 76.2621L92.12 76.2621L92.12 78.6781L95.4 78.6781L95.4 75.6381L97 75.6381L97 80.4381L85.8 80.4381L85.8 75.6381L87.4 75.6381L87.4 78.6781ZM92.36 71.9075L90.76 71.9075L90.76 69.4435L94.312 69.4435C96.104 69.4435 97.128 70.3395 97.128 72.0675C97.128 73.7955 96.104 74.6915 94.312 74.6915L88.488 74.6915C86.696 74.6915 85.672 73.7955 85.672 72.0675C85.672 70.3395 86.696 69.4435 88.488 69.4435L89.576 69.4435L89.576 71.1075L88.376 71.1075C87.576 71.1075 87.272 71.4595 87.272 72.0195C87.272 72.5795 87.576 72.9315 88.376 72.9315L94.424 72.9315C95.224 72.9315 95.512 72.5795 95.512 72.0195C95.512 71.4595 95.224 71.1075 94.424 71.1075L92.36 71.1075L92.36 71.9075ZM85.8 64.4248L97 62.6327L97 64.4087L94.968 64.7128L94.968 66.8728L97 67.1768L97 68.7928L85.8 67.0008L85.8 64.4248ZM87.784 65.8008L93.448 66.6488L93.448 64.9528L87.784 65.8008ZM92.824 58.3887L92.824 56.7247L94.312 56.7247C96.104 56.7247 97.128 57.6208 97.128 59.3488C97.128 61.0768 96.104 61.9728 94.312 61.9728L88.488 61.9728C86.696 61.9728 85.672 61.0768 85.672 59.3488C85.672 57.6208 86.696 56.7247 88.488 56.7247L89.576 56.7247L89.576 58.3887L88.376 58.3887C87.576 58.3887 87.272 58.7408 87.272 59.3007C87.272 59.8608 87.576 60.2128 88.376 60.2128L94.424 60.2128C95.224 60.2128 95.512 59.8608 95.512 59.3008C95.512 58.7408 95.224 58.3887 94.424 58.3887L92.824 58.3887ZM97 54.1808L93.288 54.1808L85.8 56.4048L85.8 54.5648L90.904 53.2208L85.8 51.8768L85.8 50.1967L93.288 52.4207L97 52.4207L97 54.1808ZM85.8 49.7909L85.8 49.2469C85.8 47.4869 86.456 46.7829 88.248 46.7829L94.552 46.7829C96.344 46.7829 97 47.4869 97 49.2469L97 49.7909L95.56 49.7909L95.56 49.3589C95.56 48.7989 95.352 48.5429 94.552 48.5429L88.248 48.5429C87.448 48.5429 87.24 48.7989 87.24 49.3589L87.24 49.7909L85.8 49.7909Z" fill="#212121"/>
<path d="M69.8 183.928L77.752 182.632L69.8 181.432L69.8 178.984L81 178.984L81 180.648L72.968 180.648L81 181.864L81 183.528L73.08 184.84L81 184.84L81 186.376L69.8 186.376L69.8 183.928ZM69.8 173.8L81 172.008L81 173.784L78.968 174.088L78.968 176.248L81 176.552L81 178.168L69.8 176.376L69.8 173.8ZM71.784 175.176L77.448 176.024L77.448 174.328L71.784 175.176ZM81 171.188L69.8 171.188L69.8 169.428L81 169.428L81 171.188ZM81 164.381L72.888 166.573L81 166.573L81 168.157L69.8 168.157L69.8 165.949L76.504 164.141L69.8 164.141L69.8 162.573L81 162.573L81 164.381ZM76.824 155.389L76.824 153.725L78.312 153.725C80.104 153.725 81.128 154.621 81.128 156.349C81.128 158.077 80.104 158.973 78.312 158.973L72.488 158.973C70.696 158.973 69.672 158.077 69.672 156.349C69.672 154.621 70.696 153.725 72.488 153.725L73.576 153.725L73.576 155.389L72.376 155.389C71.576 155.389 71.272 155.741 71.272 156.301C71.272 156.861 71.576 157.213 72.376 157.213L78.424 157.213C79.224 157.213 79.512 156.861 79.512 156.301C79.512 155.741 79.224 155.389 78.424 155.389L76.824 155.389ZM72.376 151.041L78.424 151.041C79.224 151.041 79.528 150.689 79.528 150.129C79.528 149.569 79.224 149.217 78.424 149.217L72.376 149.217C71.576 149.217 71.272 149.569 71.272 150.129C71.272 150.689 71.576 151.041 72.376 151.041ZM78.312 152.801L72.488 152.801C70.696 152.801 69.672 151.857 69.672 150.129C69.672 148.401 70.696 147.457 72.488 147.457L78.312 147.457C80.104 147.457 81.128 148.401 81.128 150.129C81.128 151.857 80.104 152.801 78.312 152.801ZM81 140.841L81 142.633C80.712 142.729 80.536 142.793 79.624 142.793L77.864 142.793C76.824 142.793 76.44 143.145 76.44 143.945L76.44 144.553L81 144.553L81 146.313L69.8 146.313L69.8 143.657C69.8 141.833 70.648 141.049 72.376 141.049L73.256 141.049C74.408 141.049 75.16 141.417 75.528 142.201C75.896 141.321 76.744 141.033 77.912 141.033L79.64 141.033C80.184 141.033 80.584 141.017 81 140.841ZM71.4 143.705L71.4 144.553L74.84 144.553L74.84 143.865C74.84 143.209 74.552 142.809 73.656 142.809L72.552 142.809C71.752 142.809 71.4 143.081 71.4 143.705ZM71.4 138.116L74.52 138.116L74.52 135.7L76.12 135.7L76.12 138.116L79.4 138.116L79.4 135.076L81 135.076L81 139.876L69.8 139.876L69.8 135.076L71.4 135.076L71.4 138.116ZM85.8 181.3L85.8 180.756L87.24 180.756L87.24 181.188C87.24 181.748 87.448 182.004 88.248 182.004L94.552 182.004C95.352 182.004 95.56 181.748 95.56 181.188L95.56 180.756L97 180.756L97 181.3C97 183.06 96.344 183.764 94.552 183.764L88.248 183.764C86.456 183.764 85.8 183.06 85.8 181.3ZM97 179.86L85.8 179.86L85.8 178.1L95.4 178.1L95.4 175.204L97 175.204L97 179.86ZM87.4 172.678L90.52 172.678L90.52 170.262L92.12 170.262L92.12 172.678L95.4 172.678L95.4 169.638L97 169.638L97 174.438L85.8 174.438L85.8 169.638L87.4 169.638L87.4 172.678ZM92.36 165.908L90.76 165.908L90.76 163.443L94.312 163.443C96.104 163.443 97.128 164.34 97.128 166.068C97.128 167.796 96.104 168.692 94.312 168.692L88.488 168.692C86.696 168.692 85.672 167.796 85.672 166.068C85.672 164.34 86.696 163.443 88.488 163.443L89.576 163.443L89.576 165.107L88.376 165.107C87.576 165.107 87.272 165.46 87.272 166.019C87.272 166.58 87.576 166.932 88.376 166.932L94.424 166.932C95.224 166.932 95.512 166.58 95.512 166.02C95.512 165.46 95.224 165.107 94.424 165.107L92.36 165.107L92.36 165.908ZM85.8 158.425L97 156.633L97 158.409L94.968 158.713L94.968 160.873L97 161.177L97 162.793L85.8 161.001L85.8 158.425ZM87.784 159.801L93.448 160.649L93.448 158.953L87.784 159.801ZM92.824 152.389L92.824 150.725L94.312 150.725C96.104 150.725 97.128 151.621 97.128 153.349C97.128 155.077 96.104 155.973 94.312 155.973L88.488 155.973C86.696 155.973 85.672 155.077 85.672 153.349C85.672 151.621 86.696 150.725 88.488 150.725L89.576 150.725L89.576 152.389L88.376 152.389C87.576 152.389 87.272 152.741 87.272 153.301C87.272 153.861 87.576 154.213 88.376 154.213L94.424 154.213C95.224 154.213 95.512 153.861 95.512 153.301C95.512 152.741 95.224 152.389 94.424 152.389L92.824 152.389ZM97 148.181L93.288 148.181L85.8 150.405L85.8 148.565L90.904 147.221L85.8 145.877L85.8 144.197L93.288 146.421L97 146.421L97 148.181ZM85.8 143.791L85.8 143.247C85.8 141.487 86.456 140.783 88.248 140.783L94.552 140.783C96.344 140.783 97 141.487 97 143.247L97 143.791L95.56 143.791L95.56 143.359C95.56 142.799 95.352 142.543 94.552 142.543L88.248 142.543C87.448 142.543 87.24 142.799 87.24 143.359L87.24 143.791L85.8 143.791Z" fill="#212121"/>
<path d="M144.122 160.051L149.847 150.424L152.239 151.847C153.752 152.747 153.996 154.027 153.08 155.567L150.185 160.436C149.269 161.976 148.028 162.373 146.515 161.474L144.122 160.051ZM151.394 153.206L150.542 152.699L146.453 159.575L147.305 160.082C147.787 160.368 148.223 160.293 148.631 159.605L151.608 154.599C152.017 153.912 151.876 153.492 151.394 153.206ZM149.736 163.389L155.46 153.762L156.973 154.662L151.248 164.289L149.736 163.389ZM156.995 162.308L157.813 160.932L159.931 162.192L158.115 165.245C157.199 166.785 155.906 167.207 154.421 166.324C152.935 165.441 152.689 164.103 153.605 162.562L156.581 157.557C157.497 156.016 158.791 155.594 160.276 156.477C161.761 157.361 162.008 158.699 161.092 160.239L160.536 161.174L159.106 160.324L159.719 159.292C160.128 158.605 159.981 158.163 159.5 157.877C159.018 157.591 158.56 157.672 158.151 158.36L155.06 163.558C154.651 164.246 154.807 164.673 155.288 164.959C155.769 165.246 156.219 165.178 156.628 164.49L157.683 162.716L156.995 162.308ZM157.713 168.133L163.438 158.506L164.95 159.406L159.226 169.032L157.713 168.133ZM164.799 161.177L165.616 159.802L170.292 162.583L169.474 163.958L167.893 163.017L162.986 171.269L161.473 170.369L166.38 162.118L164.799 161.177ZM173.79 164.663L169.606 175.205L168.079 174.297L168.856 172.395L167 171.291L165.7 172.883L164.311 172.057L171.576 163.346L173.79 164.663ZM171.593 165.665L167.969 170.099L169.427 170.966L171.593 165.665ZM170.31 175.624L176.035 165.998L177.547 166.897L172.641 175.148L175.13 176.629L174.312 178.004L170.31 175.624ZM145.783 174.795L147.213 175.645L146.452 176.924C145.536 178.465 144.243 178.887 142.758 178.004C141.272 177.12 141.026 175.782 141.942 174.242L144.918 169.236C145.834 167.696 147.128 167.274 148.613 168.157C150.098 169.04 150.345 170.378 149.429 171.919L148.873 172.854L147.443 172.003L148.056 170.972C148.465 170.284 148.318 169.843 147.836 169.557C147.355 169.271 146.897 169.352 146.488 170.04L143.397 175.238C142.988 175.925 143.144 176.353 143.625 176.639C144.106 176.925 144.556 176.858 144.965 176.17L145.783 174.795ZM151.793 173.194L148.702 178.392C148.293 179.08 148.44 179.521 148.921 179.807C149.403 180.094 149.861 180.012 150.27 179.325L153.361 174.126C153.77 173.439 153.623 172.998 153.141 172.711C152.66 172.425 152.202 172.507 151.793 173.194ZM147.246 177.397L150.223 172.391C151.139 170.851 152.474 170.453 153.959 171.336C155.444 172.219 155.732 173.582 154.816 175.122L151.84 180.128C150.924 181.668 149.589 182.066 148.104 181.183C146.618 180.299 146.33 178.937 147.246 177.397ZM156.152 185.82L154.612 184.904C154.676 184.607 154.711 184.423 155.177 183.639L156.077 182.127C156.609 181.233 156.502 180.723 155.815 180.314L155.292 180.003L152.961 183.923L151.449 183.023L157.173 173.397L159.456 174.754C161.024 175.686 161.264 176.816 160.381 178.301L159.931 179.058C159.342 180.048 158.642 180.506 157.78 180.422C158.348 181.188 158.162 182.064 157.565 183.068L156.682 184.553C156.404 185.02 156.213 185.372 156.152 185.82ZM158.597 176.105L157.868 175.671L156.11 178.628L156.701 178.98C157.265 179.315 157.756 179.272 158.214 178.502L158.778 177.553C159.187 176.865 159.133 176.424 158.597 176.105ZM163.401 178.962L161.807 181.643L163.883 182.878L163.065 184.253L160.989 183.019L159.312 185.838L161.925 187.392L161.107 188.767L156.982 186.313L162.706 176.687L166.832 179.14L166.014 180.516L163.401 178.962Z" fill="#212121"/>
<g clip-path="url(#clip2_123_2)">
<path d="M194.285 153.997L153.072 129.7C151.245 128.618 151.26 125.967 153.088 124.901L194.129 101.2C194.988 100.698 196.05 100.714 196.91 101.216L238.216 125.779C240.044 126.861 240.013 129.528 238.169 130.579L197.019 154.013C196.16 154.499 195.113 154.499 194.254 153.997H194.285Z" fill="#DFE8F6"/>
<path d="M195.426 142.358L165.524 124.822C164.946 124.477 164.586 123.85 164.586 123.175V89.0442C164.586 88.9344 164.711 88.856 164.805 88.9187L195.66 107.004V142.233C195.66 142.358 195.535 142.421 195.426 142.358Z" fill="#90BEE6" stroke="#2B3990" stroke-miterlimit="10"/>
<path d="M195.925 142.343L225.78 124.838C226.359 124.493 226.718 123.866 226.718 123.191V89.3422C226.718 89.107 226.468 88.9658 226.265 89.0756L195.644 107.02V142.186C195.644 142.327 195.801 142.421 195.925 142.343Z" fill="#558DCA" stroke="#2B3990" stroke-miterlimit="10"/>
<path d="M226.421 88.9658L195.754 106.941C195.754 106.941 195.613 106.972 195.535 106.941L164.883 88.9658C164.743 88.8874 164.743 88.6835 164.883 88.605L193.41 71.3356C194.785 70.5042 196.519 70.5042 197.894 71.3356L226.421 88.605C226.562 88.6835 226.562 88.8874 226.421 88.9658Z" fill="white" stroke="#2B3990" stroke-miterlimit="10"/>
<path d="M203.315 112.87L212.423 107.616" stroke="#2B3990" stroke-miterlimit="10" stroke-linecap="round"/>
<path d="M215.516 105.718L219.063 103.679" stroke="#2B3990" stroke-miterlimit="10" stroke-linecap="round"/>
<path d="M203.315 121.372L212.423 116.117" stroke="#2B3990" stroke-miterlimit="10" stroke-linecap="round"/>
<path d="M215.516 114.219L219.063 112.18" stroke="#2B3990" stroke-miterlimit="10" stroke-linecap="round"/>
<path d="M203.315 129.449L212.423 124.195" stroke="#2B3990" stroke-miterlimit="10" stroke-linecap="round"/>
<path d="M215.516 122.297L219.063 120.258" stroke="#2B3990" stroke-miterlimit="10" stroke-linecap="round"/>
<path d="M171.757 93.1067L182.646 87.0051L188.239 88.1658L193.129 85.2484" stroke="#2B3990" stroke-miterlimit="10" stroke-linecap="round"/>
<path d="M178.475 97.028L186.521 92.6989L190.067 93.1067L193.129 91.2715" stroke="#2B3990" stroke-miterlimit="10" stroke-linecap="round"/>
<path d="M175.35 95.036L183.693 90.2206" stroke="#2B3990" stroke-miterlimit="10" stroke-linecap="round"/>
<path d="M186.833 101.749L195.191 96.9339V94.0478L199.737 90.9892" stroke="#2B3990" stroke-miterlimit="10" stroke-linecap="round"/>
<path d="M182.646 99.3337L188.302 96.0869" stroke="#2B3990" stroke-miterlimit="10" stroke-linecap="round"/>
<path d="M195.644 165.965C195.644 166.169 195.426 166.294 195.254 166.184L145.011 136.727C144.027 136.147 143.433 135.096 143.433 133.967V76.6058C143.433 76.4176 143.636 76.2921 143.808 76.3862" stroke="#2B3990" stroke-miterlimit="10"/>
<path d="M247.105 76.6529C247.449 76.4489 247.871 76.6999 247.871 77.092V134.014C247.871 135.143 247.277 136.194 246.293 136.774L196.129 166.184C195.925 166.31 195.66 166.153 195.66 165.918V150.907" stroke="#2B3990" stroke-miterlimit="10"/>
<path d="M158.556 85.2484L143.949 76.4646C143.714 76.3235 143.714 75.9941 143.949 75.8529L191.879 46.8352C194.191 45.4392 197.097 45.4392 199.409 46.8352L247.355 75.8529C247.59 75.9941 247.59 76.3235 247.355 76.4646L232.483 85.2484" stroke="#2B3990" stroke-miterlimit="10"/>
</g>
<defs>
<clipPath id="clip0_123_2">
<rect width="63" height="115" fill="white" transform="translate(0 124)"/>
</clipPath>
<clipPath id="clip1_123_2">
<rect width="62" height="115" fill="white"/>
</clipPath>
<clipPath id="clip2_123_2">
<rect width="106" height="122" fill="white" transform="translate(142.652 45)"/>
</clipPath>
</defs>
</svg>
