<svg width="189" height="189" viewBox="0 0 189 189" fill="none" xmlns="http://www.w3.org/2000/svg">
<g clip-path="url(#clip0_56_224)">
<path d="M97.5946 117.63L65.2768 98.6152C63.8451 97.7787 63.86 95.6875 65.2917 94.866L97.4902 76.3289C98.1613 75.9406 98.9964 75.9406 99.6676 76.3289L132.075 95.5531C133.506 96.4045 133.492 98.4808 132.045 99.3023L99.7719 117.63C99.1008 118.019 98.2806 118.004 97.6095 117.615L97.5946 117.63Z" fill="#DFE8F6"/>
<path d="M97.5944 92.8942L65.2767 73.8792C63.845 73.0427 63.8599 70.9515 65.2916 70.13L97.49 51.593C98.1612 51.2046 98.9963 51.2046 99.6674 51.593L132.075 70.8171C133.506 71.6685 133.491 73.7448 132.045 74.5663L99.7718 92.8942C99.1007 93.2826 98.2805 93.2677 97.6093 92.8793L97.5944 92.8942Z" fill="white" stroke="#2B3990" stroke-miterlimit="10"/>
<path d="M133.134 73.0577V86.531C133.134 86.6355 133.089 86.7252 132.999 86.7849L98.9964 106.741C98.8622 106.831 98.6832 106.726 98.6832 106.562V93.178L133.149 73.0427L133.134 73.0577Z" fill="#558DCA" stroke="#2B3990" stroke-miterlimit="10"/>
<path d="M98.6683 93.193V106.547C98.6683 106.726 98.4744 106.831 98.3253 106.741L64.3521 86.7999C64.2627 86.7401 64.203 86.6505 64.203 86.546V73.0726L98.6683 93.2079V93.193Z" fill="#90BEE6" stroke="#2B3990" stroke-miterlimit="10"/>
<path d="M70.6307 85.4705C71.6356 85.4705 72.4502 84.6546 72.4502 83.6481C72.4502 82.6417 71.6356 81.8258 70.6307 81.8258C69.6259 81.8258 68.8113 82.6417 68.8113 83.6481C68.8113 84.6546 69.6259 85.4705 70.6307 85.4705Z" stroke="#2B3990" stroke-miterlimit="10"/>
<path d="M78.2665 90.0413C79.2713 90.0413 80.0859 89.2254 80.0859 88.2189C80.0859 87.2125 79.2713 86.3966 78.2665 86.3966C77.2616 86.3966 76.447 87.2125 76.447 88.2189C76.447 89.2254 77.2616 90.0413 78.2665 90.0413Z" stroke="#2B3990" stroke-miterlimit="10"/>
<path d="M85.9918 94.6419C86.9967 94.6419 87.8113 93.826 87.8113 92.8195C87.8113 91.8131 86.9967 90.9972 85.9918 90.9972C84.987 90.9972 84.1724 91.8131 84.1724 92.8195C84.1724 93.826 84.987 94.6419 85.9918 94.6419Z" stroke="#2B3990" stroke-miterlimit="10"/>
<path d="M105.797 95.7323L115.893 89.9218" stroke="#2B3990" stroke-miterlimit="10" stroke-linecap="round"/>
<path d="M119.324 87.8156L123.261 85.5601" stroke="#2B3990" stroke-miterlimit="10" stroke-linecap="round"/>
<path d="M97.5944 67.4413L65.2767 48.4263C63.845 47.5898 63.8599 45.4986 65.2916 44.6771L97.49 26.14C98.1612 25.7517 98.9963 25.7517 99.6674 26.14L132.075 45.3642C133.506 46.2156 133.491 48.2919 132.045 49.1134L99.7718 67.4413C99.1007 67.8297 98.2805 67.8147 97.6093 67.4264L97.5944 67.4413Z" fill="white" stroke="#2B3990" stroke-miterlimit="10"/>
<path d="M133.134 47.6047V61.078C133.134 61.1826 133.089 61.2722 132.999 61.332L98.9964 81.288C98.8622 81.3777 98.6832 81.2731 98.6832 81.1088V67.7251L133.149 47.5898L133.134 47.6047Z" fill="#558DCA" stroke="#2B3990" stroke-miterlimit="10"/>
<path d="M98.6683 67.7401V81.0939C98.6683 81.2731 98.4744 81.3777 98.3253 81.2881L64.3521 61.3469C64.2627 61.2872 64.203 61.1976 64.203 61.093V47.6197L98.6683 67.755V67.7401Z" fill="#90BEE6" stroke="#2B3990" stroke-miterlimit="10"/>
<path d="M70.6307 60.0175C71.6356 60.0175 72.4502 59.2016 72.4502 58.1952C72.4502 57.1887 71.6356 56.3729 70.6307 56.3729C69.6259 56.3729 68.8113 57.1887 68.8113 58.1952C68.8113 59.2016 69.6259 60.0175 70.6307 60.0175Z" stroke="#2B3990" stroke-miterlimit="10"/>
<path d="M78.2665 64.5734C79.2713 64.5734 80.0859 63.7575 80.0859 62.751C80.0859 61.7446 79.2713 60.9287 78.2665 60.9287C77.2616 60.9287 76.447 61.7446 76.447 62.751C76.447 63.7575 77.2616 64.5734 78.2665 64.5734Z" stroke="#2B3990" stroke-miterlimit="10"/>
<path d="M85.9918 69.189C86.9967 69.189 87.8113 68.3731 87.8113 67.3666C87.8113 66.3602 86.9967 65.5443 85.9918 65.5443C84.987 65.5443 84.1724 66.3602 84.1724 67.3666C84.1724 68.3731 84.987 69.189 85.9918 69.189Z" stroke="#2B3990" stroke-miterlimit="10"/>
<path d="M105.797 70.2644L115.893 64.4688" stroke="#2B3990" stroke-miterlimit="10" stroke-linecap="round"/>
<path d="M119.324 62.3627L123.261 60.1072" stroke="#2B3990" stroke-miterlimit="10" stroke-linecap="round"/>
<path d="M97.5944 42.3319L65.2767 23.3169C63.845 22.4804 63.8599 20.3892 65.2916 19.5677L97.49 1.03065C98.1612 0.642288 98.9963 0.642288 99.6674 1.03065L132.075 20.2548C133.506 21.1062 133.491 23.1825 132.045 24.004L99.7718 42.3319C99.1007 42.7203 98.2805 42.7054 97.6093 42.317L97.5944 42.3319Z" fill="white" stroke="#2B3990" stroke-miterlimit="10"/>
<path d="M133.134 22.5103V35.9836C133.134 36.0882 133.089 36.1778 132.999 36.2376L98.9964 56.1936C98.8622 56.2832 98.6832 56.1787 98.6832 56.0144V42.6307L133.149 22.4954L133.134 22.5103Z" fill="#558DCA" stroke="#2B3990" stroke-miterlimit="10"/>
<path d="M98.6683 42.6307V55.9845C98.6683 56.1638 98.4744 56.2683 98.3253 56.1787L64.3521 36.2376C64.2627 36.1778 64.203 36.0882 64.203 35.9836V22.5103L98.6683 42.6456V42.6307Z" fill="#90BEE6" stroke="#2B3990" stroke-miterlimit="10"/>
<path d="M70.6307 34.9231C71.6356 34.9231 72.4502 34.1072 72.4502 33.1008C72.4502 32.0943 71.6356 31.2784 70.6307 31.2784C69.6259 31.2784 68.8113 32.0943 68.8113 33.1008C68.8113 34.1072 69.6259 34.9231 70.6307 34.9231Z" stroke="#2B3990" stroke-miterlimit="10"/>
<path d="M78.2665 39.4789C79.2713 39.4789 80.0859 38.663 80.0859 37.6566C80.0859 36.6501 79.2713 35.8342 78.2665 35.8342C77.2616 35.8342 76.447 36.6501 76.447 37.6566C76.447 38.663 77.2616 39.4789 78.2665 39.4789Z" stroke="#2B3990" stroke-miterlimit="10"/>
<path d="M85.9918 44.0945C86.9967 44.0945 87.8113 43.2786 87.8113 42.2722C87.8113 41.2657 86.9967 40.4498 85.9918 40.4498C84.987 40.4498 84.1724 41.2657 84.1724 42.2722C84.1724 43.2786 84.987 44.0945 85.9918 44.0945Z" stroke="#2B3990" stroke-miterlimit="10"/>
<path d="M105.797 45.17L115.893 39.3594" stroke="#2B3990" stroke-miterlimit="10" stroke-linecap="round"/>
<path d="M119.324 37.2533L123.261 34.9978" stroke="#2B3990" stroke-miterlimit="10" stroke-linecap="round"/>
<path d="M152.715 149.297L120.398 130.282C118.966 129.446 118.981 127.354 120.412 126.533L152.611 107.996C153.282 107.607 154.117 107.607 154.788 107.996L187.196 127.22C188.627 128.071 188.612 130.148 187.166 130.969L154.893 149.297C154.222 149.685 153.401 149.67 152.73 149.282L152.715 149.297Z" fill="#DFE8F6"/>
<path d="M152.715 124.561L120.397 105.546C118.966 104.71 118.981 102.618 120.412 101.797L152.611 83.2598C153.282 82.8714 154.117 82.8714 154.788 83.2598L187.195 102.484C188.627 103.335 188.612 105.412 187.166 106.233L154.893 124.561C154.221 124.949 153.401 124.934 152.73 124.546L152.715 124.561Z" fill="white" stroke="#2B3990" stroke-miterlimit="10"/>
<path d="M188.254 104.724V118.198C188.254 118.302 188.21 118.392 188.12 118.452L154.117 138.408C153.983 138.497 153.804 138.393 153.804 138.229V124.845L188.269 104.71L188.254 104.724Z" fill="#558DCA" stroke="#2B3990" stroke-miterlimit="10"/>
<path d="M153.789 124.86V138.214C153.789 138.393 153.595 138.497 153.446 138.408L119.473 118.467C119.383 118.407 119.324 118.317 119.324 118.213V104.739L153.789 124.875V124.86Z" fill="#90BEE6" stroke="#2B3990" stroke-miterlimit="10"/>
<path d="M125.751 117.137C126.756 117.137 127.571 116.321 127.571 115.315C127.571 114.308 126.756 113.493 125.751 113.493C124.747 113.493 123.932 114.308 123.932 115.315C123.932 116.321 124.747 117.137 125.751 117.137Z" stroke="#2B3990" stroke-miterlimit="10"/>
<path d="M133.387 121.708C134.392 121.708 135.207 120.892 135.207 119.886C135.207 118.879 134.392 118.063 133.387 118.063C132.382 118.063 131.568 118.879 131.568 119.886C131.568 120.892 132.382 121.708 133.387 121.708Z" stroke="#2B3990" stroke-miterlimit="10"/>
<path d="M141.113 126.309C142.117 126.309 142.932 125.493 142.932 124.486C142.932 123.48 142.117 122.664 141.113 122.664C140.108 122.664 139.293 123.48 139.293 124.486C139.293 125.493 140.108 126.309 141.113 126.309Z" stroke="#2B3990" stroke-miterlimit="10"/>
<path d="M160.918 127.399L171.029 121.589" stroke="#2B3990" stroke-miterlimit="10" stroke-linecap="round"/>
<path d="M174.459 119.482L178.382 117.227" stroke="#2B3990" stroke-miterlimit="10" stroke-linecap="round"/>
<path d="M152.715 99.1081L120.397 80.0931C118.966 79.2566 118.981 77.1654 120.412 76.3439L152.611 57.8068C153.282 57.4185 154.117 57.4185 154.788 57.8068L187.195 77.031C188.627 77.8824 188.612 79.9587 187.166 80.7802L154.893 99.1081C154.221 99.4965 153.401 99.4815 152.73 99.0932L152.715 99.1081Z" fill="white" stroke="#2B3990" stroke-miterlimit="10"/>
<path d="M188.254 79.2715V92.7449C188.254 92.8494 188.21 92.939 188.12 92.9988L154.117 112.955C153.983 113.044 153.804 112.94 153.804 112.776V99.3919L188.269 79.2566L188.254 79.2715Z" fill="#558DCA" stroke="#2B3990" stroke-miterlimit="10"/>
<path d="M153.789 99.3919V112.746C153.789 112.925 153.595 113.03 153.446 112.94L119.473 92.9988C119.383 92.9391 119.324 92.8494 119.324 92.7449V79.2715L153.789 99.4069V99.3919Z" fill="#90BEE6" stroke="#2B3990" stroke-miterlimit="10"/>
<path d="M125.751 91.6843C126.756 91.6843 127.571 90.8685 127.571 89.862C127.571 88.8556 126.756 88.0397 125.751 88.0397C124.747 88.0397 123.932 88.8556 123.932 89.862C123.932 90.8685 124.747 91.6843 125.751 91.6843Z" stroke="#2B3990" stroke-miterlimit="10"/>
<path d="M133.387 96.2402C134.392 96.2402 135.207 95.4243 135.207 94.4179C135.207 93.4114 134.392 92.5955 133.387 92.5955C132.382 92.5955 131.568 93.4114 131.568 94.4179C131.568 95.4243 132.382 96.2402 133.387 96.2402Z" stroke="#2B3990" stroke-miterlimit="10"/>
<path d="M141.113 100.856C142.117 100.856 142.932 100.04 142.932 99.0335C142.932 98.027 142.117 97.2111 141.113 97.2111C140.108 97.2111 139.293 98.027 139.293 99.0335C139.293 100.04 140.108 100.856 141.113 100.856Z" stroke="#2B3990" stroke-miterlimit="10"/>
<path d="M160.918 101.931L171.029 96.1356" stroke="#2B3990" stroke-miterlimit="10" stroke-linecap="round"/>
<path d="M174.459 94.0295L178.382 91.759" stroke="#2B3990" stroke-miterlimit="10" stroke-linecap="round"/>
<path d="M152.715 73.9987L120.397 54.9837C118.966 54.1472 118.981 52.056 120.412 51.2345L152.611 32.6975C153.282 32.3091 154.117 32.3091 154.788 32.6975L187.195 51.9216C188.627 52.773 188.612 54.8493 187.166 55.6708L154.893 73.9987C154.221 74.3871 153.401 74.3722 152.73 73.9838L152.715 73.9987Z" fill="white" stroke="#2B3990" stroke-miterlimit="10"/>
<path d="M188.254 54.1771V67.6504C188.254 67.755 188.21 67.8446 188.12 67.9044L154.117 87.8604C153.983 87.95 153.804 87.8455 153.804 87.6812V74.2975L188.269 54.1622L188.254 54.1771Z" fill="#558DCA" stroke="#2B3990" stroke-miterlimit="10"/>
<path d="M153.789 74.2975V87.6513C153.789 87.8306 153.595 87.9351 153.446 87.8455L119.473 67.9044C119.383 67.8446 119.324 67.755 119.324 67.6505V54.1771L153.789 74.3124V74.2975Z" fill="#90BEE6" stroke="#2B3990" stroke-miterlimit="10"/>
<path d="M125.751 66.575C126.756 66.575 127.571 65.7591 127.571 64.7526C127.571 63.7462 126.756 62.9303 125.751 62.9303C124.747 62.9303 123.932 63.7462 123.932 64.7526C123.932 65.7591 124.747 66.575 125.751 66.575Z" stroke="#2B3990" stroke-miterlimit="10"/>
<path d="M133.387 71.1457C134.392 71.1457 135.207 70.3298 135.207 69.3234C135.207 68.3169 134.392 67.501 133.387 67.501C132.382 67.501 131.568 68.3169 131.568 69.3234C131.568 70.3298 132.382 71.1457 133.387 71.1457Z" stroke="#2B3990" stroke-miterlimit="10"/>
<path d="M141.113 75.7613C142.117 75.7613 142.932 74.9454 142.932 73.939C142.932 72.9325 142.117 72.1166 141.113 72.1166C140.108 72.1166 139.293 72.9325 139.293 73.939C139.293 74.9454 140.108 75.7613 141.113 75.7613Z" stroke="#2B3990" stroke-miterlimit="10"/>
<path d="M160.918 76.8368L171.029 71.0262" stroke="#2B3990" stroke-miterlimit="10" stroke-linecap="round"/>
<path d="M174.459 68.9201L178.382 66.6646" stroke="#2B3990" stroke-miterlimit="10" stroke-linecap="round"/>
<path d="M34.1373 157.034L1.81953 138.034C0.38782 137.198 0.402733 135.107 1.83444 134.285L34.0329 115.748C34.704 115.36 35.5392 115.36 36.2103 115.748L68.6175 134.972C70.0492 135.824 70.0343 137.9 68.5877 138.721L36.3147 157.049C35.6436 157.438 34.8233 157.423 34.1522 157.034H34.1373Z" fill="#DFE8F6"/>
<path d="M34.1372 132.313L1.8194 113.298C0.387698 112.462 0.402611 110.371 1.83432 109.549L34.0328 91.0122C34.7039 90.6238 35.539 90.6238 36.2102 91.0122L68.6174 110.236C70.0491 111.088 70.0342 113.164 68.5876 113.986L36.3146 132.313C35.6434 132.702 34.8232 132.687 34.1521 132.298L34.1372 132.313Z" fill="white" stroke="#2B3990" stroke-miterlimit="10"/>
<path d="M69.6764 112.477V125.95C69.6764 126.055 69.6316 126.144 69.5421 126.204L35.5391 146.16C35.4049 146.25 35.226 146.145 35.226 145.981V132.597L69.6913 112.462L69.6764 112.477Z" fill="#558DCA" stroke="#2B3990" stroke-miterlimit="10"/>
<path d="M35.211 132.612V145.966C35.211 146.145 35.0172 146.25 34.868 146.16L0.894864 126.219C0.805382 126.159 0.745728 126.07 0.745728 125.965V112.492L35.211 132.627V132.612Z" fill="#90BEE6" stroke="#2B3990" stroke-miterlimit="10"/>
<path d="M7.17346 124.89C8.17832 124.89 8.99292 124.074 8.99292 123.067C8.99292 122.061 8.17832 121.245 7.17346 121.245C6.1686 121.245 5.354 122.061 5.354 123.067C5.354 124.074 6.1686 124.89 7.17346 124.89Z" stroke="#2B3990" stroke-miterlimit="10"/>
<path d="M14.8092 129.46C15.8141 129.46 16.6287 128.645 16.6287 127.638C16.6287 126.632 15.8141 125.816 14.8092 125.816C13.8043 125.816 12.9897 126.632 12.9897 127.638C12.9897 128.645 13.8043 129.46 14.8092 129.46Z" stroke="#2B3990" stroke-miterlimit="10"/>
<path d="M22.5345 134.061C23.5394 134.061 24.354 133.245 24.354 132.239C24.354 131.232 23.5394 130.416 22.5345 130.416C21.5297 130.416 20.7151 131.232 20.7151 132.239C20.7151 133.245 21.5297 134.061 22.5345 134.061Z" stroke="#2B3990" stroke-miterlimit="10"/>
<path d="M42.3397 135.137L52.4362 129.341" stroke="#2B3990" stroke-miterlimit="10" stroke-linecap="round"/>
<path d="M55.8663 127.235L59.8035 124.979" stroke="#2B3990" stroke-miterlimit="10" stroke-linecap="round"/>
<path d="M34.1372 106.846L1.8194 87.8305C0.387698 86.994 0.402611 84.9028 1.83432 84.0813L34.0328 65.5443C34.7039 65.1559 35.539 65.1559 36.2102 65.5443L68.6174 84.7684C70.0491 85.6198 70.0342 87.6961 68.5876 88.5176L36.3146 106.846C35.6434 107.234 34.8232 107.219 34.1521 106.831L34.1372 106.846Z" fill="white" stroke="#2B3990" stroke-miterlimit="10"/>
<path d="M69.6764 87.0239V100.497C69.6764 100.602 69.6316 100.691 69.5421 100.751L35.5391 120.707C35.4049 120.797 35.226 120.692 35.226 120.528V107.144L69.6913 87.009L69.6764 87.0239Z" fill="#558DCA" stroke="#2B3990" stroke-miterlimit="10"/>
<path d="M35.211 107.144V120.498C35.211 120.677 35.0172 120.782 34.868 120.692L0.894864 100.751C0.805382 100.691 0.745728 100.602 0.745728 100.497V87.0239L35.211 107.159V107.144Z" fill="#90BEE6" stroke="#2B3990" stroke-miterlimit="10"/>
<path d="M7.17346 99.4218C8.17832 99.4218 8.99292 98.6059 8.99292 97.5994C8.99292 96.593 8.17832 95.7771 7.17346 95.7771C6.1686 95.7771 5.354 96.593 5.354 97.5994C5.354 98.6059 6.1686 99.4218 7.17346 99.4218Z" stroke="#2B3990" stroke-miterlimit="10"/>
<path d="M14.8092 103.993C15.8141 103.993 16.6287 103.177 16.6287 102.17C16.6287 101.164 15.8141 100.348 14.8092 100.348C13.8043 100.348 12.9897 101.164 12.9897 102.17C12.9897 103.177 13.8043 103.993 14.8092 103.993Z" stroke="#2B3990" stroke-miterlimit="10"/>
<path d="M22.5345 108.608C23.5394 108.608 24.354 107.792 24.354 106.786C24.354 105.779 23.5394 104.963 22.5345 104.963C21.5297 104.963 20.7151 105.779 20.7151 106.786C20.7151 107.792 21.5297 108.608 22.5345 108.608Z" stroke="#2B3990" stroke-miterlimit="10"/>
<path d="M42.3397 109.684L52.4362 103.873" stroke="#2B3990" stroke-miterlimit="10" stroke-linecap="round"/>
<path d="M55.8663 101.767L59.8035 99.5114" stroke="#2B3990" stroke-miterlimit="10" stroke-linecap="round"/>
<path d="M34.1372 81.7511L1.8194 62.7361C0.387698 61.8996 0.402611 59.8084 1.83432 58.9869L34.0328 40.4498C34.7039 40.0615 35.539 40.0615 36.2102 40.4498L68.6174 59.674C70.0491 60.5254 70.0342 62.6017 68.5876 63.4232L36.3146 81.7511C35.6434 82.1395 34.8232 82.1245 34.1521 81.7362L34.1372 81.7511Z" fill="white" stroke="#2B3990" stroke-miterlimit="10"/>
<path d="M69.6764 61.9295V75.4028C69.6764 75.5074 69.6316 75.597 69.5421 75.6567L35.5391 95.6128C35.4049 95.7024 35.226 95.5979 35.226 95.4336V82.0499L69.6913 61.9146L69.6764 61.9295Z" fill="#558DCA" stroke="#2B3990" stroke-miterlimit="10"/>
<path d="M35.211 82.0499V95.4037C35.211 95.5829 35.0172 95.6875 34.868 95.5979L0.894864 75.6568C0.805382 75.597 0.745728 75.5074 0.745728 75.4028V61.9295L35.211 82.0648V82.0499Z" fill="#90BEE6" stroke="#2B3990" stroke-miterlimit="10"/>
<path d="M7.17346 74.3273C8.17832 74.3273 8.99292 73.5115 8.99292 72.505C8.99292 71.4986 8.17832 70.6827 7.17346 70.6827C6.1686 70.6827 5.354 71.4986 5.354 72.505C5.354 73.5115 6.1686 74.3273 7.17346 74.3273Z" stroke="#2B3990" stroke-miterlimit="10"/>
<path d="M14.8092 78.8981C15.8141 78.8981 16.6287 78.0822 16.6287 77.0757C16.6287 76.0693 15.8141 75.2534 14.8092 75.2534C13.8043 75.2534 12.9897 76.0693 12.9897 77.0757C12.9897 78.0822 13.8043 78.8981 14.8092 78.8981Z" stroke="#2B3990" stroke-miterlimit="10"/>
<path d="M22.5345 83.4988C23.5394 83.4988 24.354 82.6829 24.354 81.6765C24.354 80.67 23.5394 79.8541 22.5345 79.8541C21.5297 79.8541 20.7151 80.67 20.7151 81.6765C20.7151 82.6829 21.5297 83.4988 22.5345 83.4988Z" stroke="#2B3990" stroke-miterlimit="10"/>
<path d="M42.3397 84.5892L52.4362 78.7786" stroke="#2B3990" stroke-miterlimit="10" stroke-linecap="round"/>
<path d="M55.8663 76.6725L59.8035 74.417" stroke="#2B3990" stroke-miterlimit="10" stroke-linecap="round"/>
<path d="M89.2579 188.701L56.9401 169.686C55.5084 168.85 55.5233 166.759 56.955 165.937L89.1535 147.4C89.8246 147.012 90.6598 147.012 91.3309 147.4L123.738 166.624C125.17 167.476 125.155 169.552 123.708 170.373L91.4353 188.701C90.7642 189.09 89.9439 189.075 89.2728 188.686L89.2579 188.701Z" fill="#DFE8F6"/>
<path d="M89.2578 163.98L56.94 144.965C55.5083 144.129 55.5232 142.038 56.9549 141.216L89.1534 122.679C89.8245 122.291 90.6596 122.291 91.3308 122.679L123.738 141.903C125.17 142.755 125.155 144.831 123.708 145.652L91.4352 163.98C90.764 164.369 89.9438 164.354 89.2727 163.965L89.2578 163.98Z" fill="white" stroke="#2B3990" stroke-miterlimit="10"/>
<path d="M124.797 144.144V157.617C124.797 157.722 124.752 157.811 124.663 157.871L90.6597 177.827C90.5255 177.917 90.3466 177.812 90.3466 177.648V164.264L124.812 144.129L124.797 144.144Z" fill="#558DCA" stroke="#2B3990" stroke-miterlimit="10"/>
<path d="M90.3317 164.264V177.618C90.3317 177.797 90.1378 177.902 89.9886 177.812L56.0155 157.871C55.926 157.811 55.8663 157.722 55.8663 157.617V144.144L90.3317 164.279V164.264Z" fill="#90BEE6" stroke="#2B3990" stroke-miterlimit="10"/>
<path d="M62.2941 156.556C63.2989 156.556 64.1135 155.741 64.1135 154.734C64.1135 153.728 63.2989 152.912 62.2941 152.912C61.2892 152.912 60.4746 153.728 60.4746 154.734C60.4746 155.741 61.2892 156.556 62.2941 156.556Z" stroke="#2B3990" stroke-miterlimit="10"/>
<path d="M69.9298 161.112C70.9347 161.112 71.7493 160.296 71.7493 159.29C71.7493 158.284 70.9347 157.468 69.9298 157.468C68.925 157.468 68.1104 158.284 68.1104 159.29C68.1104 160.296 68.925 161.112 69.9298 161.112Z" stroke="#2B3990" stroke-miterlimit="10"/>
<path d="M77.6552 165.728C78.66 165.728 79.4746 164.912 79.4746 163.906C79.4746 162.899 78.66 162.083 77.6552 162.083C76.6503 162.083 75.8357 162.899 75.8357 163.906C75.8357 164.912 76.6503 165.728 77.6552 165.728Z" stroke="#2B3990" stroke-miterlimit="10"/>
<path d="M97.4603 166.803L107.572 161.008" stroke="#2B3990" stroke-miterlimit="10" stroke-linecap="round"/>
<path d="M111.002 158.902L114.924 156.631" stroke="#2B3990" stroke-miterlimit="10" stroke-linecap="round"/>
<path d="M89.2578 138.512L56.94 119.497C55.5083 118.661 55.5232 116.57 56.9549 115.748L89.1534 97.2111C89.8245 96.8227 90.6596 96.8227 91.3308 97.2111L123.738 116.435C125.17 117.287 125.155 119.363 123.708 120.184L91.4352 138.512C90.764 138.901 89.9438 138.886 89.2727 138.497L89.2578 138.512Z" fill="white" stroke="#2B3990" stroke-miterlimit="10"/>
<path d="M124.797 118.691V132.164C124.797 132.269 124.752 132.358 124.663 132.418L90.6597 152.374C90.5255 152.464 90.3466 152.359 90.3466 152.195V138.811L124.812 118.676L124.797 118.691Z" fill="#558DCA" stroke="#2B3990" stroke-miterlimit="10"/>
<path d="M90.3317 138.811V152.165C90.3317 152.344 90.1378 152.449 89.9886 152.359L56.0155 132.418C55.926 132.358 55.8663 132.269 55.8663 132.164V118.691L90.3317 138.826V138.811Z" fill="#90BEE6" stroke="#2B3990" stroke-miterlimit="10"/>
<path d="M62.2941 131.089C63.2989 131.089 64.1135 130.273 64.1135 129.266C64.1135 128.26 63.2989 127.444 62.2941 127.444C61.2892 127.444 60.4746 128.26 60.4746 129.266C60.4746 130.273 61.2892 131.089 62.2941 131.089Z" stroke="#2B3990" stroke-miterlimit="10"/>
<path d="M69.9298 135.659C70.9347 135.659 71.7493 134.843 71.7493 133.837C71.7493 132.831 70.9347 132.015 69.9298 132.015C68.925 132.015 68.1104 132.831 68.1104 133.837C68.1104 134.843 68.925 135.659 69.9298 135.659Z" stroke="#2B3990" stroke-miterlimit="10"/>
<path d="M77.6552 140.26C78.66 140.26 79.4746 139.444 79.4746 138.438C79.4746 137.431 78.66 136.615 77.6552 136.615C76.6503 136.615 75.8357 137.431 75.8357 138.438C75.8357 139.444 76.6503 140.26 77.6552 140.26Z" stroke="#2B3990" stroke-miterlimit="10"/>
<path d="M97.4603 141.35L107.572 135.54" stroke="#2B3990" stroke-miterlimit="10" stroke-linecap="round"/>
<path d="M111.002 133.434L114.924 131.178" stroke="#2B3990" stroke-miterlimit="10" stroke-linecap="round"/>
<path d="M89.2578 113.418L56.94 94.4029C55.5083 93.5664 55.5232 91.4752 56.9549 90.6537L89.1534 72.1167C89.8245 71.7283 90.6596 71.7283 91.3308 72.1167L123.738 91.3408C125.17 92.1922 125.155 94.2685 123.708 95.09L91.4352 113.418C90.764 113.806 89.9438 113.791 89.2727 113.403L89.2578 113.418Z" fill="white" stroke="#2B3990" stroke-miterlimit="10"/>
<path d="M124.797 93.5813V107.055C124.797 107.159 124.752 107.249 124.663 107.309L90.6597 127.265C90.5255 127.354 90.3466 127.25 90.3466 127.085V113.702L124.812 93.5664L124.797 93.5813Z" fill="#558DCA" stroke="#2B3990" stroke-miterlimit="10"/>
<path d="M90.3317 113.717V127.071C90.3317 127.25 90.1378 127.354 89.9886 127.265L56.0155 107.324C55.926 107.264 55.8663 107.174 55.8663 107.07V93.5963L90.3317 113.732V113.717Z" fill="#90BEE6" stroke="#2B3990" stroke-miterlimit="10"/>
<path d="M62.2941 105.994C63.2989 105.994 64.1135 105.178 64.1135 104.172C64.1135 103.165 63.2989 102.349 62.2941 102.349C61.2892 102.349 60.4746 103.165 60.4746 104.172C60.4746 105.178 61.2892 105.994 62.2941 105.994Z" stroke="#2B3990" stroke-miterlimit="10"/>
<path d="M69.9298 110.565C70.9347 110.565 71.7493 109.749 71.7493 108.743C71.7493 107.736 70.9347 106.92 69.9298 106.92C68.925 106.92 68.1104 107.736 68.1104 108.743C68.1104 109.749 68.925 110.565 69.9298 110.565Z" stroke="#2B3990" stroke-miterlimit="10"/>
<path d="M77.6552 115.166C78.66 115.166 79.4746 114.35 79.4746 113.343C79.4746 112.337 78.66 111.521 77.6552 111.521C76.6503 111.521 75.8357 112.337 75.8357 113.343C75.8357 114.35 76.6503 115.166 77.6552 115.166Z" stroke="#2B3990" stroke-miterlimit="10"/>
<path d="M97.4603 116.256L107.572 110.445" stroke="#2B3990" stroke-miterlimit="10" stroke-linecap="round"/>
<path d="M111.002 108.339L114.924 106.084" stroke="#2B3990" stroke-miterlimit="10" stroke-linecap="round"/>
<path d="M91.7931 90.3251L37.5524 58.4043C35.1513 56.9853 35.1662 53.505 37.5822 52.1009L91.6142 21.0017C92.7476 20.3444 94.1495 20.3594 95.2829 21.0316L149.673 53.2958C152.074 54.7149 152.044 58.2102 149.613 59.5993L95.447 90.3699C94.3135 91.0122 92.9266 90.9972 91.8081 90.34L91.7931 90.3251Z" fill="white" stroke="#2B3990" stroke-miterlimit="10"/>
<path d="M93.5976 29.4411C95.0226 29.4411 96.1777 28.2842 96.1777 26.857C96.1777 25.4298 95.0226 24.2729 93.5976 24.2729C92.1727 24.2729 91.0176 25.4298 91.0176 26.857C91.0176 28.2842 92.1727 29.4411 93.5976 29.4411Z" fill="#90BEE6" stroke="#2B3990" stroke-miterlimit="10"/>
<path d="M142.425 58.957C143.85 58.957 145.005 57.8001 145.005 56.3729C145.005 54.9457 143.85 53.7888 142.425 53.7888C141 53.7888 139.845 54.9457 139.845 56.3729C139.845 57.8001 141 58.957 142.425 58.957Z" fill="#90BEE6" stroke="#2B3990" stroke-miterlimit="10"/>
<path d="M44.6214 57.1347C46.0464 57.1347 47.2015 55.9777 47.2015 54.5506C47.2015 53.1234 46.0464 51.9664 44.6214 51.9664C43.1965 51.9664 42.0414 53.1234 42.0414 54.5506C42.0414 55.9777 43.1965 57.1347 44.6214 57.1347Z" fill="#90BEE6" stroke="#2B3990" stroke-miterlimit="10"/>
<path d="M93.5976 86.3219C95.0226 86.3219 96.1777 85.165 96.1777 83.7378C96.1777 82.3106 95.0226 81.1537 93.5976 81.1537C92.1727 81.1537 91.0176 82.3106 91.0176 83.7378C91.0176 85.165 92.1727 86.3219 93.5976 86.3219Z" fill="#90BEE6" stroke="#2B3990" stroke-miterlimit="10"/>
</g>
<defs>
<clipPath id="clip0_56_224">
<rect width="189" height="189" fill="white"/>
</clipPath>
</defs>
</svg>
