<svg width="81" height="106" viewBox="0 0 81 106" fill="none" xmlns="http://www.w3.org/2000/svg">
<g clip-path="url(#clip0_87_133)">
<path d="M25.84 80.62L21.53 77.99C21.24 77.82 20.91 77.75 20.58 77.79L17.23 78.27L17.29 78.74L17.75 82.24L23.39 88.61C23.39 88.61 23.5 88.67 23.56 88.64C23.99 88.39 25.78 87.36 25.79 87.36C26.04 87.24 26.22 86.99 26.22 86.68V81.26C26.22 81 26.08 80.75 25.86 80.62H25.84Z" fill="#558DCA" stroke="#2B3990" stroke-miterlimit="10"/>
<path d="M52.41 97.14L47.66 94.24L43.8 94.8L43.86 95.27L44.32 98.77L49.96 105.14C49.96 105.14 50.07 105.2 50.13 105.17C50.56 104.92 52.35 103.89 52.36 103.89C52.61 103.77 52.79 103.52 52.79 103.21V97.79C52.79 97.53 52.65 97.28 52.43 97.15L52.41 97.14Z" fill="#558DCA" stroke="#2B3990" stroke-miterlimit="10"/>
<path d="M43.8 91.87L47.66 94.23L43.8 94.79L22.5 81.77V78.83L43.8 91.87Z" fill="#558DCA" stroke="#2B3990" stroke-miterlimit="10"/>
<path d="M43.8 88.04V95.23L22.5 82.24V75.05L43.8 88.04Z" fill="white" stroke="#2B3990" stroke-miterlimit="10"/>
<path d="M43.8 95.23V94.79L43.86 95.26L43.8 95.23Z" fill="#90BEE6" stroke="#2B3990" stroke-miterlimit="10"/>
<path d="M47.66 94.23L43.8 94.79V88.04L47.66 90.35V94.23Z" fill="#90BEE6" stroke="#2B3990" stroke-miterlimit="10"/>
<path d="M78.22 42.6199L10.65 0.609946C10.38 0.439946 10.07 0.479946 9.83998 0.629946C9.83998 0.629946 9.82998 0.629946 9.81998 0.629946L0.939983 5.37995C0.939983 5.37995 0.929983 5.41995 0.919983 5.44995L9.48998 17.7899V57.0999C9.48998 57.3599 9.62998 57.6099 9.84998 57.7499L58.05 87.7099L70.2 105.21C70.25 105.28 70.33 105.3 70.4 105.26L79.25 100.52C79.51 100.41 79.72 100.16 79.72 99.8299V45.3099C79.72 44.2099 79.15 43.1899 78.21 42.6199H78.22Z" fill="white" stroke="#2B3990" stroke-miterlimit="10"/>
<path d="M69.58 105.26L0.86 62.5499C0.64 62.4099 0.5 62.1699 0.5 61.8999V6.06993C0.5 5.47993 1.15 5.10993 1.65 5.41993L69.22 47.4299C70.16 47.9999 70.73 49.0199 70.73 50.1199V104.62C70.73 105.21 70.08 105.58 69.58 105.27V105.26Z" fill="white" stroke="#2B3990" stroke-miterlimit="10"/>
<path d="M50.31 99.2V104.62C50.31 104.87 50.2 105.08 50.02 105.21C49.79 105.4 49.45 105.44 49.15 105.26L16.34 85.19C16.12 85.05 15.98 84.8 15.98 84.54V79.12C15.98 78.53 16.63 78.17 17.14 78.48L18.45 79.28C18.45 79.28 50.31 98.93 50.31 99.19V99.2Z" fill="white" stroke="#2B3990" stroke-miterlimit="10"/>
<path d="M62.36 51.55L10.56 19.34C10.35 19.21 10.12 19.24 9.94004 19.35C9.94004 19.35 9.93004 19.35 9.92004 19.35L3.11004 22.99C3.11004 22.99 3.11004 23.02 3.10004 23.04L9.67004 32.5V62.63C9.67004 62.83 9.77004 63.02 9.95004 63.12L46.9 86.08L56.22 99.49C56.25 99.54 56.32 99.56 56.38 99.53L63.17 95.89C63.37 95.8 63.53 95.61 63.53 95.36V53.61C63.53 52.77 63.09 51.99 62.38 51.55H62.36Z" fill="#558DCA" stroke="#2B3990" stroke-miterlimit="10"/>
<path d="M55.74 99.57L3.06003 66.83C2.89003 66.72 2.78003 66.54 2.78003 66.34V23.53C2.78003 23.08 3.28003 22.8 3.66003 23.04L55.47 55.24C56.19 55.68 56.62 56.46 56.62 57.3V99.08C56.62 99.53 56.12 99.81 55.74 99.57Z" fill="white" stroke="#2B3990" stroke-miterlimit="10"/>
<path d="M41.28 72.59L21.03 60.1401C20.83 60.0201 20.61 60.0201 20.43 60.1101C20.4 60.1201 20.38 60.1401 20.36 60.1601L18.16 61.5701L20.09 63.5701V68.6901C20.09 68.9101 20.2 69.1101 20.39 69.2301L33.1 77.0401L39 83.1501L41.25 81.7C41.45 81.6 41.6 81.4001 41.6 81.1401V73.1201C41.6 72.9001 41.49 72.7001 41.3 72.5801L41.28 72.59Z" fill="#A6A436" stroke="#2B3990" stroke-miterlimit="10"/>
<path d="M38.37 83.13L18.12 70.68C17.93 70.57 17.82 70.36 17.82 70.14V62.12C17.82 61.63 18.36 61.33 18.78 61.58L39.03 74.03C39.22 74.14 39.33 74.35 39.33 74.57V82.59C39.33 83.08 38.79 83.38 38.37 83.13Z" fill="#D7DF23" stroke="#2B3990" stroke-miterlimit="10"/>
<path d="M20.34 43.75L33.85 52.15" stroke="#2B3990" stroke-miterlimit="10" stroke-linecap="round"/>
<path d="M9.21002 36.83L15.37 40.66" stroke="#2B3990" stroke-miterlimit="10" stroke-linecap="round"/>
<path d="M36.88 62.05L47.94 68.93" stroke="#2B3990" stroke-miterlimit="10" stroke-linecap="round"/>
<path d="M26.08 55.34L30.22 57.91" stroke="#2B3990" stroke-miterlimit="10" stroke-linecap="round"/>
<path d="M9.21002 44.85L21.53 52.51" stroke="#2B3990" stroke-miterlimit="10" stroke-linecap="round"/>
</g>
<defs>
<clipPath id="clip0_87_133">
<rect width="80.22" height="105.88" fill="white"/>
</clipPath>
</defs>
</svg>
