<svg width="113" height="85" viewBox="0 0 113 85" fill="none" xmlns="http://www.w3.org/2000/svg">
<path d="M99.8093 83.8154L34.9659 59.1723C34.392 58.9486 34 58.4035 34 57.7745V9.00535C34 8.58601 34.42 8.29247 34.8119 8.44623L100.677 33.4668V83.2144C100.677 83.6617 100.229 83.9831 99.7953 83.8154H99.8093Z" fill="#90BEE6" stroke="#2B3990" stroke-miterlimit="10"/>
<path d="M100.677 67.8386L78.3488 59.4378C77.1029 58.9766 76.277 57.7884 76.277 56.4605V45.404C76.277 44.132 77.5509 43.2653 78.7268 43.7126L100.677 51.9736V67.8526V67.8386Z" fill="#558DCA" stroke="#2B3990" stroke-miterlimit="10"/>
<path d="M100.677 33.4668L34.63 8.47417C34.392 8.37633 34.364 8.04086 34.602 7.92903L40.0896 5.04957C40.2016 4.99366 40.3136 4.97968 40.4396 5.03559L106.081 29.8744C106.417 30.0002 106.445 30.4615 106.123 30.6292L100.691 33.4807L100.677 33.4668Z" fill="white" stroke="#2B3990" stroke-miterlimit="10"/>
<path d="M105.759 81.4112L101.615 83.6337C101.195 83.8574 100.677 83.5499 100.677 83.0746V33.4668L106.123 30.5314C106.235 30.4755 106.375 30.5594 106.375 30.6852V80.3629C106.375 80.7962 106.137 81.2016 105.745 81.4112H105.759Z" fill="white" stroke="#2B3990" stroke-miterlimit="10"/>
<path d="M106.333 49.7092L100.677 51.9597V67.8386L106.389 65.6441L106.333 49.7092Z" fill="#90BEE6" stroke="#2B3990" stroke-miterlimit="10"/>
<path d="M82.7586 57.5787C81.2467 57.0895 80.2247 55.6917 80.2247 54.0982V53.3714C80.2247 50.8833 82.6466 49.1361 85.0124 49.8909C86.5243 50.3801 87.5462 51.7779 87.5462 53.3714V54.0982C87.5462 56.5863 85.1244 58.3336 82.7586 57.5787Z" fill="white" stroke="#2B3990" stroke-miterlimit="10"/>
<path d="M66.5093 84.2592L1.66588 59.63C1.09192 59.4064 0.699951 58.8612 0.699951 58.2322V9.46311C0.699951 9.04377 1.11992 8.75024 1.51189 8.90399L67.3772 33.9246V83.6581C67.3772 84.1054 66.9293 84.4269 66.4953 84.2592H66.5093Z" fill="#90BEE6" stroke="#2B3990" stroke-miterlimit="10"/>
<path d="M67.3773 33.9245L1.32994 8.93194C1.09196 8.83409 1.06396 8.49862 1.30195 8.3868L6.78956 5.50734C6.90155 5.45142 7.01354 5.43745 7.13953 5.49336L72.7669 30.3042C73.1029 30.43 73.1309 30.8913 72.8089 31.0591L67.3773 33.9106V33.9245Z" fill="white" stroke="#2B3990" stroke-miterlimit="10"/>
<path d="M72.4588 81.869L68.3151 84.0915C67.8952 84.3151 67.3772 84.0076 67.3772 83.5324V33.9246L72.8228 30.9892C72.9348 30.9333 73.0748 31.0172 73.0748 31.143V80.8207C73.0748 81.254 72.8368 81.6593 72.4448 81.869H72.4588Z" fill="white" stroke="#2B3990" stroke-miterlimit="10"/>
<path d="M56.9339 71.9586L46.9666 68.1007C46.6446 67.9749 46.4207 67.6534 46.4207 67.304V55.5066C46.4207 54.9055 47.0226 54.5002 47.5826 54.7098L57.5499 58.5677C57.8718 58.6935 58.0958 59.015 58.0958 59.3645V71.1619C58.0958 71.7629 57.4939 72.1683 56.9339 71.9586Z" fill="#D7DF23" stroke="#2B3990" stroke-miterlimit="10"/>
<path d="M10.3313 30.9752L30.4339 38.1319" stroke="#2B3990" stroke-miterlimit="10" stroke-linecap="round"/>
<path d="M14.083 39.4738L25.9962 43.7231" stroke="#2B3990" stroke-miterlimit="10" stroke-linecap="round"/>
<path d="M15.9868 47.3293L22.1744 49.5239" stroke="#2B3990" stroke-miterlimit="10" stroke-linecap="round"/>
</svg>
