<svg width="138" height="190" viewBox="0 0 138 190" fill="none" xmlns="http://www.w3.org/2000/svg">
<g clip-path="url(#clip0_56_13)">
<path d="M67.2204 141.452L13.5661 109.921C11.1865 108.516 11.2068 105.076 13.5865 103.692L67.017 72.9345C68.1356 72.2831 69.5187 72.3034 70.6373 72.9548L124.414 104.832C126.793 106.236 126.753 109.697 124.353 111.061L70.7797 141.472C69.661 142.103 68.2983 142.103 67.1797 141.452H67.2204Z" fill="#DFE8F6"/>
<path d="M68.7051 126.348L29.7763 103.59C29.0238 103.142 28.556 102.328 28.556 101.453V57.1588C28.556 57.0163 28.7187 56.9146 28.8407 56.996L69.0102 80.4661V126.185C69.0102 126.348 68.8475 126.429 68.7051 126.348Z" fill="#90BEE6" stroke="#2B3990" stroke-miterlimit="10"/>
<path d="M69.356 126.327L108.224 103.611C108.976 103.163 109.444 102.348 109.444 101.473V57.5456C109.444 57.2402 109.119 57.057 108.854 57.1995L68.9899 80.4864V126.124C68.9899 126.307 69.1933 126.429 69.356 126.327Z" fill="#558DCA" stroke="#2B3990" stroke-miterlimit="10"/>
<path d="M109.058 57.057L69.1322 80.3847C69.1322 80.3847 68.9492 80.4254 68.8475 80.3847L28.9424 57.057C28.7594 56.9553 28.7594 56.6906 28.9424 56.5889L66.0814 34.1772C67.8712 33.0984 70.1288 33.0984 71.9187 34.1772L109.058 56.5889C109.241 56.6906 109.241 56.9553 109.058 57.057Z" fill="white" stroke="#2B3990" stroke-miterlimit="10"/>
<path d="M78.9763 88.0791L90.8339 81.2599" stroke="#2B3990" stroke-miterlimit="10" stroke-linecap="round"/>
<path d="M94.8611 78.7969L99.478 76.1507" stroke="#2B3990" stroke-miterlimit="10" stroke-linecap="round"/>
<path d="M78.9763 99.1119L90.8339 92.2927" stroke="#2B3990" stroke-miterlimit="10" stroke-linecap="round"/>
<path d="M94.8611 89.8297L99.478 87.1835" stroke="#2B3990" stroke-miterlimit="10" stroke-linecap="round"/>
<path d="M78.9763 109.595L90.8339 102.776" stroke="#2B3990" stroke-miterlimit="10" stroke-linecap="round"/>
<path d="M94.8611 100.313L99.478 97.6666" stroke="#2B3990" stroke-miterlimit="10" stroke-linecap="round"/>
<path d="M37.8915 62.4309L52.0678 54.5126L59.3492 56.0189L65.7153 52.2327" stroke="#2B3990" stroke-miterlimit="10" stroke-linecap="round"/>
<path d="M46.6373 67.5199L57.1119 61.9017L61.7289 62.4309L65.7153 60.0493" stroke="#2B3990" stroke-miterlimit="10" stroke-linecap="round"/>
<path d="M42.5695 64.9347L53.4305 58.6855" stroke="#2B3990" stroke-miterlimit="10" stroke-linecap="round"/>
<path d="M57.5187 73.6469L68.4 67.3977V63.6523L74.3187 59.6829" stroke="#2B3990" stroke-miterlimit="10" stroke-linecap="round"/>
<path d="M52.0678 70.5122L59.4305 66.2985" stroke="#2B3990" stroke-miterlimit="10" stroke-linecap="round"/>
<path d="M68.9898 156.983C68.9898 157.248 68.7051 157.411 68.4814 157.268L3.07121 119.04C1.78985 118.287 1.01697 116.923 1.01697 115.457V41.0167C1.01697 40.7724 1.28137 40.6096 1.5051 40.7317" stroke="#2B3990" stroke-miterlimit="10"/>
<path d="M135.986 41.0778C136.434 40.8131 136.983 41.1388 136.983 41.6477V115.519C136.983 116.984 136.21 118.348 134.929 119.101L69.6204 157.268C69.356 157.431 69.0102 157.227 69.0102 156.922V137.442" stroke="#2B3990" stroke-miterlimit="10"/>
<path d="M20.7051 52.2327L1.68816 40.8335C1.38308 40.6503 1.38308 40.2229 1.68816 40.0397L64.0882 2.38163C67.0983 0.569974 70.8814 0.569974 73.8916 2.38163L136.312 40.0397C136.617 40.2229 136.617 40.6503 136.312 40.8335L116.949 52.2327" stroke="#2B3990" stroke-miterlimit="10"/>
<path d="M107.471 163.823V127.284C107.471 124.821 106.169 122.562 104.034 121.34L72.4068 103.061C70.2915 101.84 67.6678 101.84 65.5322 103.061L33.9051 121.34C31.7898 122.562 30.4678 124.841 30.4678 127.284V163.823C30.4678 166.286 31.7695 168.545 33.9051 169.766L65.5322 188.046C67.6474 189.267 70.2712 189.267 72.4068 188.046L104.034 169.766C106.149 168.545 107.471 166.265 107.471 163.823Z" fill="white" stroke="#2B3990" stroke-miterlimit="10"/>
<path d="M59.6949 134.002H53.2067C52.2508 134.002 51.4983 134.775 51.4983 135.711V137.157C51.4983 137.808 51.8644 138.398 52.4339 138.683L51.4576 154.622H59.5932C60 154.622 60.3457 154.296 60.3457 153.869C60.3457 153.441 60.0203 153.116 59.5932 153.116H53.044L53.9593 138.297C53.9796 137.849 53.6542 137.442 53.1864 137.381C53.0847 137.381 53.0033 137.279 53.0033 137.157V135.711C53.0033 135.589 53.105 135.487 53.2271 135.487H59.7152C59.8372 135.487 59.9389 135.589 59.9389 135.711V137.116C59.9389 137.116 59.8372 137.258 59.4915 137.421L58.9423 137.747L59.3491 144.363C59.3694 144.77 59.6949 145.095 60.1423 145.055C60.5491 145.034 60.8745 144.668 60.8339 144.261L60.4881 138.582C61.1186 138.195 61.444 137.727 61.444 137.177V135.732C61.444 134.775 60.6711 134.022 59.7355 134.022L59.6949 134.002Z" fill="#2A3B90"/>
<path d="M86.2169 138.704C86.7661 138.419 87.1525 137.828 87.1525 137.177V135.732C87.1525 134.775 86.3796 134.022 85.444 134.022H78.9559C78 134.022 77.2474 134.795 77.2474 135.732V137.177C77.2474 137.727 77.5525 138.215 78.2034 138.582L77.8576 144.261C77.8373 144.668 78.1424 145.034 78.5491 145.055C78.9762 145.095 79.322 144.77 79.3423 144.363L79.7085 138.276L79.6678 137.645L79.2 137.442C78.8339 137.279 78.7322 137.177 78.7525 137.197V135.752C78.7525 135.63 78.8542 135.528 78.9763 135.528H85.4644C85.5864 135.528 85.6881 135.63 85.6881 135.752V137.197C85.6881 137.299 85.6068 137.401 85.5051 137.421C85.0373 137.482 84.7118 137.889 84.7322 138.337L85.6474 153.156H79.0983C78.6915 153.156 78.3457 153.482 78.3457 153.909C78.3457 154.337 78.6712 154.663 79.0983 154.663H87.2339L86.2576 138.724L86.2169 138.704Z" fill="#2A3B90"/>
<path d="M72.5695 134.002H66.0813C65.1254 134.002 64.3729 134.775 64.3729 135.711V137.157C64.3729 137.808 64.739 138.398 65.3085 138.683L65.0441 142.816C65.0237 143.223 65.3288 143.589 65.7356 143.609C66.122 143.65 66.5085 143.324 66.5288 142.917L66.8135 138.317C66.8339 137.869 66.5085 137.462 66.0407 137.401C65.939 137.401 65.8576 137.299 65.8576 137.177V135.732C65.8576 135.61 65.9593 135.508 66.0813 135.508H72.5695C72.6915 135.508 72.7932 135.61 72.7932 135.732V137.136C72.7932 137.136 72.6915 137.279 72.3457 137.442L71.7966 137.767L72.122 142.978C72.1424 143.385 72.4678 143.691 72.8746 143.691H72.9152C73.322 143.67 73.6474 143.304 73.6068 142.897L73.3424 138.622C73.9729 138.236 74.2983 137.767 74.2983 137.218V135.772C74.2983 134.816 73.5254 134.063 72.5898 134.063L72.5695 134.002Z" fill="#2A3B90"/>
<path d="M50.1762 158.021H52.5559C52.9627 158.021 53.3084 157.696 53.3084 157.268C53.3084 156.841 52.983 156.515 52.5559 156.515H50.1762C48.8542 156.515 47.7966 157.594 47.7966 158.897V160.993C47.7966 162.316 48.8745 163.375 50.1762 163.375H52.4745C52.8813 163.375 53.2271 163.049 53.2271 162.622C53.2271 162.194 52.9017 161.868 52.4745 161.868H50.1762C49.6881 161.868 49.2813 161.461 49.2813 160.973V158.876C49.2813 158.388 49.6881 157.981 50.1762 157.981V158.021Z" fill="#2A3B90"/>
<path d="M87.7627 156.515H85.8508C85.444 156.515 85.0983 156.841 85.0983 157.268C85.0983 157.696 85.4237 158.021 85.8508 158.021H87.7627C88.2508 158.021 88.6576 158.428 88.6576 158.917V161.013C88.6576 161.502 88.2508 161.909 87.7627 161.909H85.9118C85.505 161.909 85.1593 162.235 85.1593 162.662C85.1593 163.09 85.4847 163.415 85.9118 163.415H87.7627C89.0847 163.415 90.1423 162.337 90.1423 161.034V158.937C90.1423 157.614 89.0644 156.556 87.7627 156.556V156.515Z" fill="#2A3B90"/>
<path d="M87.7627 130.195L70.0881 117.798C69.722 117.554 69.2338 117.554 68.8677 117.798L51.1932 130.195C50.8067 130.46 50.644 130.948 50.7864 131.396C50.9288 131.844 51.3355 132.149 51.8033 132.149H87.1525C87.6203 132.149 88.0271 131.844 88.1694 131.396C88.3118 130.948 88.1491 130.46 87.7627 130.195ZM53.1661 130.643L69.4779 119.203L85.7898 130.643H53.1661Z" fill="#F8BC7B"/>
<path d="M64.861 124.007L60.0406 127.508C59.7152 127.752 59.6339 128.22 59.8779 128.546C60.0203 128.75 60.244 128.851 60.4881 128.851C60.6508 128.851 60.7932 128.811 60.9356 128.709L65.7559 125.208C66.0813 124.964 66.1627 124.495 65.9186 124.17C65.6745 123.824 65.2067 123.763 64.8813 124.007H64.861Z" fill="#F8BC7B"/>
<path d="M74.6644 162.357V157.248C74.6644 156.881 74.461 156.535 74.1356 156.352L69.7017 153.787C69.3763 153.604 68.9898 153.604 68.6644 153.787L64.2509 156.332C63.9254 156.515 63.722 156.861 63.722 157.227V162.337C63.722 162.703 63.9254 163.049 64.2509 163.232L68.6644 165.797C68.8271 165.899 69.0102 165.94 69.1932 165.94C69.3763 165.94 69.5593 165.899 69.7017 165.797L74.1356 163.232C74.461 163.049 74.6644 162.703 74.6644 162.337V162.357ZM73.1593 162.092L69.1932 164.393L65.2271 162.092V157.512L69.1932 155.212L73.1593 157.512V162.092Z" fill="#F8BC7B"/>
<path d="M67.2406 158.062C66.8339 158.062 66.4881 158.388 66.4881 158.815V160.749C66.4881 161.156 66.8135 161.502 67.2406 161.502C67.6678 161.502 67.9932 161.176 67.9932 160.749V158.815C67.9932 158.408 67.6678 158.062 67.2406 158.062Z" fill="#F8BC7B"/>
<path d="M71.1864 152.098C71.4102 152.098 71.6339 151.996 71.7763 151.813L73.0983 150.103C73.2407 150.123 73.3831 150.144 73.5254 150.144C74.7051 150.144 75.6814 149.187 75.6814 147.986C75.6814 146.785 74.7254 145.828 73.5254 145.828C72.3254 145.828 71.3695 146.785 71.3695 147.986C71.3695 148.474 71.5322 148.922 71.817 149.289L70.5763 150.897C70.3322 151.222 70.3932 151.691 70.7187 151.955C70.861 152.057 71.0237 152.118 71.1661 152.118L71.1864 152.098ZM73.5254 147.335C73.8915 147.335 74.1763 147.619 74.1763 147.986C74.1763 148.352 73.8915 148.637 73.5254 148.637C73.1593 148.637 72.8746 148.352 72.8746 147.986C72.8746 147.619 73.1593 147.335 73.5254 147.335Z" fill="#F8BC7B"/>
<path d="M75.9457 151.548L74.7051 153.156C74.461 153.482 74.522 153.95 74.8474 154.215C74.9898 154.317 75.1525 154.378 75.2949 154.378C75.5186 154.378 75.7424 154.276 75.8847 154.093L77.2068 152.383C77.3491 152.403 77.4915 152.423 77.6339 152.423C78.8135 152.423 79.7898 151.467 79.7898 150.266C79.7898 149.065 78.8339 148.108 77.6339 148.108C76.4339 148.108 75.4779 149.065 75.4779 150.266C75.4779 150.754 75.6407 151.202 75.9254 151.568L75.9457 151.548ZM77.6542 149.594C78.0203 149.594 78.3051 149.879 78.3051 150.245C78.3051 150.612 78.0203 150.897 77.6542 150.897C77.2881 150.897 77.0034 150.612 77.0034 150.245C77.0034 149.879 77.2881 149.594 77.6542 149.594Z" fill="#F8BC7B"/>
<path d="M77.6542 156.861C77.2068 156.861 76.9017 157.187 76.9017 157.614C76.9017 158.042 77.2271 158.367 77.6542 158.367H79.8712C79.9322 158.489 79.9729 158.632 80.0542 158.754C80.4813 159.304 81.1118 159.589 81.7627 159.589C82.2101 159.589 82.6779 159.446 83.0644 159.141C83.5118 158.795 83.8169 158.286 83.8983 157.716C83.9796 157.146 83.8169 156.576 83.4712 156.128C83.1254 155.68 82.6169 155.375 82.0474 155.294C81.4779 155.212 80.9085 155.375 80.461 155.721C80.0746 156.026 79.8508 156.434 79.7288 156.861H77.6745H77.6542ZM81.3559 156.902C81.4779 156.82 81.6 156.759 81.7423 156.759C81.7627 156.759 81.8034 156.759 81.8237 156.759C81.9864 156.78 82.1491 156.861 82.2508 157.003C82.3525 157.146 82.3932 157.309 82.3729 157.492C82.3525 157.655 82.2712 157.818 82.1288 157.919C81.844 158.143 81.4373 158.082 81.2135 157.797C81.1118 157.655 81.0712 157.492 81.0915 157.309C81.1118 157.126 81.2135 156.983 81.3356 156.881L81.3559 156.902Z" fill="#F8BC7B"/>
<path d="M80.4203 160.444C80.0339 160.749 79.8102 161.156 79.6881 161.583H77.6339C77.2271 161.583 76.8813 161.909 76.8813 162.337C76.8813 162.744 77.2068 163.09 77.6339 163.09H79.8508C79.9119 163.212 79.9525 163.354 80.0339 163.477C80.461 164.026 81.0915 164.311 81.7424 164.311C82.1898 164.311 82.6576 164.169 83.0441 163.863C83.9797 163.151 84.1627 161.787 83.4508 160.851C82.739 159.914 81.3763 159.731 80.4407 160.444H80.4203ZM82.1288 162.662C81.8441 162.886 81.4373 162.825 81.2136 162.54C80.9898 162.255 81.0508 161.848 81.3356 161.624C81.4576 161.543 81.5797 161.482 81.722 161.482C81.7424 161.482 81.783 161.482 81.8034 161.482C81.9661 161.502 82.1288 161.604 82.2305 161.726C82.4542 162.011 82.3932 162.418 82.1085 162.642L82.1288 162.662Z" fill="#F8BC7B"/>
<path d="M56.7864 159.589C57.4373 159.589 58.0678 159.304 58.4949 158.754C58.5763 158.632 58.6169 158.51 58.678 158.388H60.8949C61.3017 158.388 61.6474 158.042 61.6474 157.635C61.6474 157.227 61.3017 156.881 60.8949 156.881H58.8407C58.7186 156.454 58.4949 156.047 58.1085 155.741C57.1729 155.029 55.8102 155.192 55.0983 156.149C54.3864 157.085 54.5491 158.449 55.5051 159.161C55.8915 159.467 56.3593 159.609 56.8068 159.609L56.7864 159.589ZM56.278 157.044C56.4 156.881 56.6034 156.78 56.8068 156.78C56.9491 156.78 57.0915 156.82 57.1932 156.922C57.3356 157.024 57.4169 157.187 57.4373 157.35C57.4576 157.512 57.4169 157.696 57.3152 157.838C57.0915 158.123 56.6847 158.184 56.4 157.96C56.1152 157.736 56.0542 157.329 56.278 157.044Z" fill="#F8BC7B"/>
<path d="M58.4949 163.456C58.5763 163.334 58.6169 163.212 58.6779 163.09H60.8949C61.3017 163.09 61.6474 162.744 61.6474 162.337C61.6474 161.93 61.3017 161.583 60.8949 161.583H58.8407C58.7186 161.156 58.4949 160.749 58.1085 160.444C57.1729 159.731 55.8102 159.894 55.0983 160.851C54.3864 161.787 54.5695 163.151 55.5051 163.863C55.8915 164.169 56.3593 164.311 56.8068 164.311C57.4576 164.311 58.0881 164.026 58.5152 163.477L58.4949 163.456ZM57.3152 162.54C57.0915 162.825 56.6847 162.886 56.4 162.662C56.1152 162.438 56.0542 162.031 56.2779 161.746C56.5017 161.461 56.9085 161.4 57.1932 161.624C57.4779 161.848 57.539 162.255 57.3152 162.54Z" fill="#F8BC7B"/>
<path d="M65.3898 167.527L64.0678 169.237C63.9254 169.217 63.783 169.197 63.6407 169.197C62.461 169.197 61.4847 170.153 61.4847 171.354C61.4847 172.555 62.4407 173.512 63.6407 173.512C64.8407 173.512 65.7966 172.555 65.7966 171.354C65.7966 170.866 65.6339 170.418 65.3492 170.051L66.5898 168.443C66.8339 168.118 66.7729 167.649 66.4475 167.385C66.122 167.141 65.6542 167.202 65.3898 167.527ZM63.6407 172.006C63.2746 172.006 62.9898 171.721 62.9898 171.354C62.9898 170.988 63.2746 170.703 63.6407 170.703C64.0068 170.703 64.2915 170.988 64.2915 171.354C64.2915 171.721 64.0068 172.006 63.6407 172.006Z" fill="#F8BC7B"/>
<path d="M61.2407 167.792L62.4814 166.184C62.7254 165.858 62.6644 165.39 62.339 165.125C62.0136 164.881 61.5458 164.942 61.2814 165.268L59.9593 166.978C59.817 166.957 59.6746 166.937 59.5322 166.937C58.3526 166.937 57.3763 167.894 57.3763 169.095C57.3763 170.296 58.3322 171.252 59.5322 171.252C60.7322 171.252 61.6881 170.296 61.6881 169.095C61.6881 168.606 61.5254 168.158 61.2407 167.792ZM59.5322 169.746C59.1661 169.746 58.8814 169.461 58.8814 169.095C58.8814 168.728 59.1661 168.443 59.5322 168.443C59.8983 168.443 60.1831 168.728 60.1831 169.095C60.1831 169.461 59.8983 169.746 59.5322 169.746Z" fill="#F8BC7B"/>
<path d="M64.1085 150.123C64.2508 150.123 64.3932 150.123 64.5356 150.083L65.8576 151.792C66 151.976 66.2237 152.077 66.4474 152.077C66.6102 152.077 66.7729 152.016 66.8949 151.915C67.2203 151.67 67.2813 151.202 67.0373 150.856L65.7966 149.248C66.0813 148.882 66.2441 148.434 66.2441 147.945C66.2441 146.765 65.2881 145.787 64.0881 145.787C62.8881 145.787 61.9322 146.744 61.9322 147.945C61.9322 149.146 62.8881 150.103 64.0881 150.103L64.1085 150.123ZM64.1085 147.314C64.4746 147.314 64.7593 147.599 64.7593 147.966C64.7593 148.332 64.4746 148.617 64.1085 148.617C63.7424 148.617 63.4576 148.332 63.4576 147.966C63.4576 147.599 63.7424 147.314 64.1085 147.314Z" fill="#F8BC7B"/>
<path d="M60.0203 152.383C60.1627 152.383 60.3051 152.383 60.4474 152.342L61.7695 154.052C61.9119 154.235 62.1356 154.337 62.3593 154.337C62.522 154.337 62.6847 154.276 62.8068 154.174C63.1322 153.93 63.1932 153.441 62.9491 153.115L61.7085 151.507C61.9932 151.141 62.1559 150.693 62.1559 150.205C62.1559 149.024 61.2 148.047 60 148.047C58.8 148.047 57.8441 149.004 57.8441 150.205C57.8441 151.406 58.8 152.362 60 152.362L60.0203 152.383ZM60.0203 149.574C60.3864 149.574 60.6712 149.859 60.6712 150.225C60.6712 150.591 60.3864 150.876 60.0203 150.876C59.6542 150.876 59.3695 150.591 59.3695 150.225C59.3695 149.859 59.6542 149.574 60.0203 149.574Z" fill="#F8BC7B"/>
<path d="M74.0135 169.217C73.8712 169.217 73.7288 169.217 73.5864 169.258L72.2644 167.548C72.0203 167.222 71.5322 167.161 71.2067 167.405C70.8813 167.649 70.8203 168.118 71.0644 168.464L72.3051 170.072C72.0203 170.438 71.8576 170.886 71.8576 171.375C71.8576 172.555 72.8135 173.532 74.0135 173.532C75.2135 173.532 76.1695 172.576 76.1695 171.375C76.1695 170.174 75.2135 169.217 74.0135 169.217ZM74.0135 172.026C73.6474 172.026 73.3627 171.741 73.3627 171.375C73.3627 171.008 73.6474 170.723 74.0135 170.723C74.3796 170.723 74.6644 171.008 74.6644 171.375C74.6644 171.741 74.3796 172.026 74.0135 172.026Z" fill="#F8BC7B"/>
<path d="M78.1221 166.937C77.9797 166.937 77.8373 166.937 77.6949 166.978L76.3729 165.268C76.1288 164.942 75.6407 164.881 75.3153 165.125C74.9898 165.37 74.9288 165.838 75.1729 166.184L76.4136 167.792C76.1288 168.158 75.9661 168.606 75.9661 169.095C75.9661 170.275 76.9221 171.252 78.1221 171.252C79.3221 171.252 80.278 170.296 80.278 169.095C80.278 167.894 79.3221 166.937 78.1221 166.937ZM78.1221 169.746C77.7559 169.746 77.4712 169.461 77.4712 169.095C77.4712 168.728 77.7559 168.443 78.1221 168.443C78.4882 168.443 78.7729 168.728 78.7729 169.095C78.7729 169.461 78.4882 169.746 78.1221 169.746Z" fill="#F8BC7B"/>
<path d="M69.0711 169.482C68.8474 169.482 68.6237 169.42 68.4406 169.319L61.1593 165.105C60.7728 164.881 60.5287 164.454 60.5287 164.026V155.599C60.5287 155.151 60.7728 154.724 61.1593 154.5L68.461 150.286C68.8474 150.062 69.3355 150.062 69.722 150.286L77.0237 154.5C77.4101 154.724 77.6542 155.131 77.6542 155.599V164.026C77.6542 164.474 77.4101 164.901 77.0237 165.125L69.7423 169.339C69.5593 169.461 69.3355 169.502 69.1118 169.502L69.0711 169.482ZM62.0135 163.884L69.0711 167.955L76.1287 163.884V155.741L69.0711 151.67L62.0135 155.741V163.884Z" fill="#2A3B90"/>
</g>
<defs>
<clipPath id="clip0_56_13">
<rect width="138" height="190" fill="white"/>
</clipPath>
</defs>
</svg>
