<svg width="137" height="188" viewBox="0 0 137 188" fill="none" xmlns="http://www.w3.org/2000/svg">
<g clip-path="url(#clip0_56_175)">
<path d="M66.7331 139.963L13.4677 108.764C11.1053 107.374 11.1255 103.97 13.4879 102.6L66.5312 72.1667C67.6417 71.5222 69.0148 71.5423 70.1253 72.1868L123.512 103.728C125.874 105.118 125.834 108.542 123.451 109.892L70.2667 139.983C69.1561 140.607 67.8033 140.607 66.6927 139.963H66.7331Z" fill="#DFE8F6"/>
<path d="M68.2072 125.018L29.5605 102.5C28.8134 102.057 28.349 101.251 28.349 100.385V56.5571C28.349 56.4161 28.5105 56.3154 28.6317 56.396L68.5101 79.619V124.857C68.5101 125.018 68.3486 125.098 68.2072 125.018Z" fill="#90BEE6" stroke="#2B3990" stroke-miterlimit="10"/>
<path d="M68.8533 124.998L107.439 102.52C108.187 102.077 108.651 101.271 108.651 100.405V56.9397C108.651 56.6376 108.328 56.4563 108.065 56.5973L68.4899 79.6391V124.796C68.4899 124.977 68.6918 125.098 68.8533 124.998Z" fill="#558DCA" stroke="#2B3990" stroke-miterlimit="10"/>
<path d="M108.267 56.4564L68.6312 79.5384C68.6312 79.5384 68.4495 79.5787 68.3485 79.5384L28.7326 56.4564C28.5509 56.3557 28.5509 56.0938 28.7326 55.9931L65.6025 33.8174C67.3793 32.7499 69.6206 32.7499 71.3975 33.8174L108.267 55.9931C108.449 56.0938 108.449 56.3557 108.267 56.4564Z" fill="white" stroke="#2B3990" stroke-miterlimit="10"/>
<path d="M78.4039 87.1519L90.1756 80.4045" stroke="#2B3990" stroke-miterlimit="10" stroke-linecap="round"/>
<path d="M94.1736 77.9674L98.7571 75.349" stroke="#2B3990" stroke-miterlimit="10" stroke-linecap="round"/>
<path d="M78.4039 98.0685L90.1756 91.3212" stroke="#2B3990" stroke-miterlimit="10" stroke-linecap="round"/>
<path d="M94.1736 88.8841L98.7571 86.2657" stroke="#2B3990" stroke-miterlimit="10" stroke-linecap="round"/>
<path d="M78.4039 108.441L90.1756 101.694" stroke="#2B3990" stroke-miterlimit="10" stroke-linecap="round"/>
<path d="M94.1736 99.2569L98.7571 96.6385" stroke="#2B3990" stroke-miterlimit="10" stroke-linecap="round"/>
<path d="M37.6169 61.7737L51.6905 53.9387L58.9191 55.4292L65.2391 51.6829" stroke="#2B3990" stroke-miterlimit="10" stroke-linecap="round"/>
<path d="M46.2993 66.8091L56.698 61.25L61.2815 61.7737L65.239 59.4172" stroke="#2B3990" stroke-miterlimit="10" stroke-linecap="round"/>
<path d="M42.261 64.2511L53.0433 58.0677" stroke="#2B3990" stroke-miterlimit="10" stroke-linecap="round"/>
<path d="M57.1018 72.8716L67.9043 66.6882V62.9822L73.7801 59.0546" stroke="#2B3990" stroke-miterlimit="10" stroke-linecap="round"/>
<path d="M51.6904 69.7699L58.9998 65.6006" stroke="#2B3990" stroke-miterlimit="10" stroke-linecap="round"/>
<path d="M68.4898 155.331C68.4898 155.592 68.2072 155.754 67.9851 155.613L3.04887 117.787C1.7768 117.042 1.00952 115.692 1.00952 114.242V40.5849C1.00952 40.3432 1.27201 40.1821 1.49412 40.3029" stroke="#2B3990" stroke-miterlimit="10"/>
<path d="M135.001 40.6454C135.445 40.3835 135.99 40.7058 135.99 41.2093V114.303C135.99 115.753 135.223 117.102 133.951 117.847L69.1158 155.613C68.8533 155.774 68.51 155.572 68.51 155.27V135.995" stroke="#2B3990" stroke-miterlimit="10"/>
<path d="M20.555 51.6829L1.67589 40.4037C1.37301 40.2224 1.37301 39.7994 1.67589 39.6181L63.6237 2.35652C66.6121 0.563938 70.3677 0.563938 73.3561 2.35652L135.324 39.6181C135.627 39.7994 135.627 40.2224 135.324 40.4037L116.102 51.6829" stroke="#2B3990" stroke-miterlimit="10"/>
<path d="M106.692 162.098V125.944C106.692 123.507 105.4 121.271 103.28 120.063L71.8821 101.976C69.7822 100.768 67.1775 100.768 65.0574 101.976L33.6595 120.063C31.5595 121.271 30.2471 123.527 30.2471 125.944V162.098C30.2471 164.535 31.5393 166.771 33.6595 167.979L65.0574 186.066C67.1573 187.275 69.762 187.275 71.8821 186.066L103.28 167.979C105.38 166.771 106.692 164.515 106.692 162.098Z" fill="white" stroke="#2B3990" stroke-miterlimit="10"/>
<path d="M64.9363 128.261L64.7142 127.173C62.2306 127.676 59.9086 128.643 57.7885 130.053L58.3942 130.98C60.3932 129.65 62.5739 128.744 64.9161 128.261H64.9363Z" fill="#F8BC7B"/>
<path d="M49.3887 142.521L50.4791 142.742C50.9637 140.386 51.8723 138.17 53.2049 136.156L52.2761 135.552C50.8627 137.687 49.8733 140.023 49.3685 142.521H49.3887Z" fill="#F8BC7B"/>
<path d="M49.3887 150.275C49.8935 152.773 50.8627 155.129 52.2963 157.244L53.2251 156.64C51.8924 154.626 50.9636 152.41 50.4992 150.054L49.4089 150.275H49.3887Z" fill="#F8BC7B"/>
<path d="M57.7885 162.723C59.9288 164.132 62.271 165.119 64.7747 165.623L64.9968 164.535C62.6344 164.072 60.4134 163.145 58.3942 161.816L57.7885 162.743V162.723Z" fill="#F8BC7B"/>
<path d="M72.3264 164.535L72.5485 165.623C75.0523 165.119 77.3945 164.153 79.5348 162.743L78.9291 161.816C76.9099 163.145 74.6888 164.072 72.3466 164.535H72.3264Z" fill="#F8BC7B"/>
<path d="M84.1183 156.64L85.0471 157.244C86.4605 155.109 87.4499 152.773 87.9547 150.275L86.8643 150.054C86.3999 152.41 85.4711 154.626 84.1385 156.64H84.1183Z" fill="#F8BC7B"/>
<path d="M87.9345 142.521C87.4298 140.023 86.4606 137.667 85.027 135.552L84.0981 136.156C85.4308 138.17 86.3596 140.386 86.824 142.742L87.9144 142.521H87.9345Z" fill="#F8BC7B"/>
<path d="M72.3264 128.24C74.6888 128.704 76.9099 129.63 78.9291 130.959L79.5348 130.033C77.3945 128.623 75.0523 127.636 72.5485 127.133L72.3264 128.22V128.24Z" fill="#F8BC7B"/>
<path d="M71.3774 169.631H65.966C65.0776 169.631 64.3507 168.906 64.3507 168.02V162.803C62.8767 162.42 61.4431 161.836 60.1105 161.051L56.4154 164.737C56.1125 165.039 55.7087 165.22 55.2645 165.22C54.8405 165.22 54.4164 165.059 54.1136 164.737L50.2772 160.91C49.6512 160.285 49.6512 159.258 50.2772 158.614L53.9722 154.928C53.2049 153.598 52.5992 152.189 52.2156 150.698H46.9859C46.0975 150.698 45.3706 149.973 45.3706 149.087V143.689C45.3706 142.803 46.0975 142.078 46.9859 142.078H52.2156C52.5992 140.607 53.1848 139.177 53.9722 137.848L50.2772 134.162C49.6512 133.538 49.6512 132.51 50.2772 131.866L54.1136 128.059C54.4164 127.757 54.8203 127.576 55.2645 127.576C55.6885 127.576 56.1125 127.737 56.4154 128.059L60.1105 131.745C61.4431 130.98 62.8565 130.375 64.3507 129.993V124.776C64.3507 123.89 65.0776 123.165 65.966 123.165H71.3774C72.2658 123.165 72.9927 123.89 72.9927 124.776V129.993C74.4667 130.375 75.9003 130.96 77.233 131.745L80.928 128.059C81.2309 127.757 81.6347 127.576 82.0789 127.576C82.503 127.576 82.927 127.737 83.2299 128.059L87.0461 131.866C87.3489 132.168 87.5307 132.571 87.5307 133.014C87.5307 133.457 87.3691 133.86 87.0461 134.162L83.351 137.848C84.1183 139.177 84.724 140.587 85.1077 142.078H90.3373C91.2257 142.078 91.9526 142.803 91.9526 143.689V149.087C91.9526 149.973 91.2257 150.698 90.3373 150.698H85.1077C84.724 152.168 84.1385 153.598 83.351 154.928L87.0461 158.614C87.3489 158.916 87.5307 159.319 87.5307 159.762C87.5307 160.205 87.3691 160.608 87.0461 160.91L83.2097 164.717C82.9068 165.019 82.503 165.2 82.0587 165.2C81.6347 165.2 81.2107 165.039 80.9078 164.717L77.2128 161.031C75.8801 161.796 74.4667 162.4 72.9725 162.783V168C72.9725 168.886 72.2456 169.611 71.3572 169.611L71.3774 169.631ZM59.9489 159.661L60.3124 159.883C61.7662 160.789 63.3613 161.433 65.017 161.836L65.4411 161.937V168.02C65.4411 168.302 65.6834 168.543 65.966 168.543H71.3774C71.6601 168.543 71.9024 168.302 71.9024 168.02V161.937L72.3264 161.836C73.9821 161.454 75.5772 160.789 77.031 159.883L77.3945 159.661L81.7155 163.971C81.7155 163.971 81.9376 164.132 82.0789 164.132C82.2203 164.132 82.3414 164.072 82.4424 163.971L86.2788 160.144C86.2788 160.144 86.4403 159.923 86.4403 159.782C86.4403 159.641 86.3797 159.52 86.2788 159.419L81.9578 155.109L82.1799 154.747C83.0885 153.296 83.7346 151.705 84.1385 150.054L84.2394 149.631H90.3373C90.62 149.631 90.8623 149.409 90.8623 149.107V143.709C90.8623 143.427 90.62 143.185 90.3373 143.185H84.2394L84.1385 142.762C83.7548 141.111 83.0885 139.52 82.1799 138.069L81.9578 137.707L86.2788 133.397C86.2788 133.397 86.4403 133.175 86.4403 133.034C86.4403 132.893 86.3797 132.772 86.2788 132.672L82.4424 128.865C82.4424 128.865 82.2203 128.704 82.0789 128.704C81.9376 128.704 81.8164 128.764 81.7155 128.865L77.3945 133.175L77.031 132.954C75.5772 132.047 73.9821 131.403 72.3264 131L71.9024 130.899V124.816C71.9024 124.534 71.6803 124.293 71.3774 124.293H65.966C65.6834 124.293 65.4411 124.534 65.4411 124.816V130.899L65.017 131C63.3613 131.382 61.7662 132.047 60.3124 132.954L59.9489 133.175L55.6279 128.865C55.6279 128.865 55.4058 128.704 55.2645 128.704C55.1232 128.704 55.002 128.764 54.901 128.865L51.0646 132.672C50.8627 132.873 50.8627 133.195 51.0646 133.397L55.3856 137.707L55.1635 138.069C54.2549 139.52 53.6088 141.111 53.2049 142.762L53.104 143.185H47.0061C46.7234 143.185 46.4811 143.427 46.4811 143.709V149.107C46.4811 149.389 46.7234 149.631 47.0061 149.631H53.104L53.2049 150.054C53.5886 151.705 54.2549 153.296 55.1635 154.747L55.3856 155.109L51.0646 159.419C51.0646 159.419 50.9233 159.641 50.9233 159.782C50.9233 159.923 50.9839 160.044 51.0646 160.144L54.901 163.971C54.901 163.971 55.1232 164.132 55.2645 164.132C55.4058 164.132 55.527 164.072 55.6279 163.971L59.9489 159.661Z" fill="#2B3990"/>
<path d="M58.6163 154.021C58.4749 153.901 58.3942 153.719 58.3942 153.478V149.208C58.3942 148.019 58.7374 147.093 59.4037 146.428C60.0903 145.763 61.0191 145.421 62.2306 145.421C63.018 145.421 63.7046 145.562 64.2901 145.864C64.8757 146.166 65.3199 146.609 65.6228 147.173C65.9256 147.737 66.0872 148.422 66.0872 149.187V153.457C66.0872 153.679 66.0064 153.86 65.8651 154.001C65.7237 154.142 65.5218 154.203 65.2795 154.203C65.0372 154.203 64.8353 154.142 64.6939 154.001C64.5324 153.86 64.4718 153.699 64.4718 153.478V151.484H60.0297V153.478C60.0297 153.699 59.9489 153.88 59.8076 154.001C59.6662 154.142 59.4643 154.203 59.222 154.203C58.9797 154.203 58.7778 154.142 58.6365 154.001L58.6163 154.021ZM64.4516 150.235V149.167C64.4516 148.362 64.2699 147.737 63.8863 147.334C63.5228 146.932 62.9575 146.71 62.2306 146.71C60.7566 146.71 60.0095 147.536 60.0095 149.167V150.235H64.4516Z" fill="#231F20"/>
<path d="M67.6218 154.021C67.4804 153.901 67.3997 153.719 67.3997 153.478V147.355C67.3997 146.791 67.5612 146.348 67.9044 146.025C68.2275 145.703 68.6919 145.542 69.2775 145.542H71.3572C72.5889 145.542 73.5379 145.804 74.184 146.307C74.8302 146.811 75.1532 147.576 75.1532 148.563C75.1532 149.55 74.8302 150.315 74.2042 150.819C73.5783 151.323 72.6495 151.584 71.4178 151.584H69.0352V153.458C69.0352 153.679 68.9544 153.86 68.8131 153.981C68.6515 154.122 68.4698 154.183 68.2275 154.183C67.9852 154.183 67.7833 154.122 67.642 153.981L67.6218 154.021ZM73.4975 148.583C73.4975 147.395 72.7908 146.811 71.3976 146.811H69.54C69.3784 146.811 69.2573 146.871 69.1563 146.972C69.0554 147.073 69.015 147.234 69.015 147.415V150.356H71.3976C72.7908 150.356 73.4975 149.772 73.4975 148.583Z" fill="#231F20"/>
<path d="M76.9907 154.021C76.8493 153.901 76.7686 153.719 76.7686 153.478V146.146C76.7686 145.925 76.8493 145.743 76.9907 145.602C77.132 145.461 77.3339 145.401 77.5762 145.401C77.8185 145.401 78.0002 145.461 78.1618 145.602C78.3233 145.723 78.4041 145.904 78.4041 146.146V153.478C78.4041 153.699 78.3233 153.88 78.1618 154.021C78.0002 154.142 77.8185 154.223 77.5762 154.223C77.3339 154.223 77.132 154.162 76.9907 154.021Z" fill="#231F20"/>
<path d="M80.2213 127.254H78.0608C76.4454 122.158 71.66 118.452 66.0266 118.452C59.5249 118.452 54.1539 123.366 53.4876 129.691H51.2665C48.2176 129.691 45.734 132.168 45.734 135.209C45.734 137.928 47.9349 140.124 50.6608 140.124H80.6049C84.2798 140.124 87.2479 137.062 87.046 133.336C86.8643 129.852 83.7346 127.254 80.2415 127.254H80.2213Z" fill="white"/>
<path d="M80.5847 140.768H50.6406C47.5512 140.768 45.0475 138.271 45.0475 135.189C45.0475 131.785 47.8339 129.006 51.2463 129.006H52.8818C53.8712 122.561 59.4037 117.767 66.0064 117.767C71.66 117.767 76.6473 121.272 78.5252 126.569H80.2011C84.1182 126.569 87.47 129.59 87.672 133.296C87.7729 135.27 87.0864 137.143 85.7336 138.553C84.3807 139.963 82.5433 140.768 80.5645 140.768H80.5847ZM51.2463 130.335C48.5608 130.335 46.3801 132.51 46.3801 135.189C46.3801 137.526 48.2983 139.439 50.6406 139.439H80.5847C82.1798 139.439 83.674 138.795 84.7846 137.646C85.8951 136.498 86.4403 134.968 86.3595 133.377C86.198 130.375 83.4519 127.918 80.2213 127.918H77.556L77.4146 127.455C75.8397 122.48 71.2562 119.116 66.0266 119.116C59.9085 119.116 54.8 123.688 54.1539 129.751L54.0933 130.355H51.2665L51.2463 130.335Z" fill="#F8BC7B"/>
<path d="M66.0669 136.921L61.9276 132.792L59.8479 134.867L59.4642 128.543L65.8044 128.925L63.7247 131L67.8639 135.129L66.0669 136.921ZM61.9276 131.523L66.0669 135.652L66.5919 135.129L62.4526 131L63.765 129.691L60.4132 129.489L60.6152 132.833L61.9276 131.523Z" fill="#2B3990"/>
<path d="M72.71 131.362L66.3698 130.98L68.4496 128.905L64.3103 124.776L66.1074 122.984L70.2466 127.113L72.3264 125.038L72.71 131.362ZM68.4092 130.214L71.761 130.416L71.5591 127.072L70.2466 128.381L66.1074 124.252L65.5824 124.776L69.7216 128.905L68.4092 130.214Z" fill="#2B3990"/>
</g>
<defs>
<clipPath id="clip0_56_175">
<rect width="137" height="188" fill="white"/>
</clipPath>
</defs>
</svg>
