<svg width="137" height="189" viewBox="0 0 137 189" fill="none" xmlns="http://www.w3.org/2000/svg">
<g clip-path="url(#clip0_56_67)">
<path d="M66.7331 140.707L13.4677 109.342C11.1053 107.945 11.1255 104.523 13.4879 103.146L66.5312 72.5506C67.6417 71.9027 69.0148 71.9229 70.1253 72.5709L123.512 104.28C125.874 105.677 125.834 109.119 123.451 110.476L70.2667 140.727C69.1561 141.355 67.8033 141.355 66.6927 140.707H66.7331Z" fill="#DFE8F6"/>
<path d="M68.2072 125.683L29.5605 103.045C28.8134 102.6 28.349 101.79 28.349 100.919V56.858C28.349 56.7163 28.5105 56.615 28.6317 56.696L68.5101 80.0426V125.521C68.5101 125.683 68.3486 125.764 68.2072 125.683Z" fill="#90BEE6" stroke="#2B3990" stroke-miterlimit="10"/>
<path d="M68.8533 125.663L107.439 103.065C108.187 102.62 108.651 101.81 108.651 100.939V57.2427C108.651 56.939 108.328 56.7568 108.065 56.8985L68.4899 80.0628V125.46C68.4899 125.642 68.6918 125.764 68.8533 125.663Z" fill="#558DCA" stroke="#2B3990" stroke-miterlimit="10"/>
<path d="M108.267 56.7568L68.6312 79.9616C68.6312 79.9616 68.4495 80.0021 68.3485 79.9616L28.7326 56.7568C28.5509 56.6555 28.5509 56.3923 28.7326 56.291L65.6025 33.9974C67.3793 32.9242 69.6206 32.9242 71.3975 33.9974L108.267 56.291C108.449 56.3923 108.449 56.6555 108.267 56.7568Z" fill="white" stroke="#2B3990" stroke-miterlimit="10"/>
<path d="M78.4039 87.6155L90.1756 80.8323" stroke="#2B3990" stroke-miterlimit="10" stroke-linecap="round"/>
<path d="M94.1736 78.3822L98.7571 75.7499" stroke="#2B3990" stroke-miterlimit="10" stroke-linecap="round"/>
<path d="M78.4039 98.5903L90.1756 91.807" stroke="#2B3990" stroke-miterlimit="10" stroke-linecap="round"/>
<path d="M94.1736 89.3569L98.7571 86.7246" stroke="#2B3990" stroke-miterlimit="10" stroke-linecap="round"/>
<path d="M78.4039 109.018L90.1756 102.235" stroke="#2B3990" stroke-miterlimit="10" stroke-linecap="round"/>
<path d="M94.1736 99.785L98.7571 97.1526" stroke="#2B3990" stroke-miterlimit="10" stroke-linecap="round"/>
<path d="M37.6169 62.1024L51.6905 54.2257L58.9191 55.7241L65.2391 51.9578" stroke="#2B3990" stroke-miterlimit="10" stroke-linecap="round"/>
<path d="M46.2993 67.1645L56.698 61.5759L61.2815 62.1024L65.239 59.7333" stroke="#2B3990" stroke-miterlimit="10" stroke-linecap="round"/>
<path d="M42.261 64.5929L53.0433 58.3766" stroke="#2B3990" stroke-miterlimit="10" stroke-linecap="round"/>
<path d="M57.1018 73.2593L67.9043 67.043V63.3172L73.7801 59.3688" stroke="#2B3990" stroke-miterlimit="10" stroke-linecap="round"/>
<path d="M51.6904 70.141L58.9998 65.9496" stroke="#2B3990" stroke-miterlimit="10" stroke-linecap="round"/>
<path d="M68.4898 156.157C68.4898 156.42 68.2072 156.582 67.9851 156.44L3.04887 118.414C1.7768 117.664 1.00952 116.308 1.00952 114.85V40.8009C1.00952 40.5579 1.27201 40.3959 1.49412 40.5174" stroke="#2B3990" stroke-miterlimit="10"/>
<path d="M135.001 40.8616C135.445 40.5984 135.99 40.9224 135.99 41.4286V114.911C135.99 116.368 135.223 117.725 133.951 118.474L69.1158 156.44C68.8533 156.602 68.51 156.4 68.51 156.096V136.718" stroke="#2B3990" stroke-miterlimit="10"/>
<path d="M20.555 51.9578L1.67589 40.6186C1.37301 40.4364 1.37301 40.0112 1.67589 39.8289L63.6237 2.36911C66.6121 0.566987 70.3677 0.566987 73.3561 2.36911L135.324 39.8289C135.627 40.0112 135.627 40.4364 135.324 40.6186L116.102 51.9578" stroke="#2B3990" stroke-miterlimit="10"/>
<path d="M106.692 162.96V126.614C106.692 124.164 105.4 121.917 103.28 120.702L71.8821 102.518C69.7822 101.304 67.1775 101.304 65.0574 102.518L33.6595 120.702C31.5595 121.917 30.2471 124.184 30.2471 126.614V162.96C30.2471 165.41 31.5393 167.658 33.6595 168.873L65.0574 187.056C67.1573 188.271 69.762 188.271 71.8821 187.056L103.28 168.873C105.38 167.658 106.692 165.39 106.692 162.96Z" fill="white" stroke="#2B3990" stroke-miterlimit="10"/>
<path d="M64.2496 124.205L64.0073 122.969C61.2006 123.557 58.5757 124.65 56.1931 126.23L56.8796 127.262C59.1209 125.764 61.6045 124.731 64.2496 124.184V124.205Z" fill="#F8BC7B"/>
<path d="M46.6829 140.383L47.9145 140.626C48.4597 137.953 49.4895 135.422 51.0039 133.155L49.9741 132.466C48.379 134.876 47.2684 137.548 46.703 140.383H46.6829Z" fill="#F8BC7B"/>
<path d="M46.6829 149.191C47.2483 152.026 48.3588 154.699 49.9539 157.109L50.9837 156.42C49.4694 154.132 48.4194 151.621 47.8944 148.948L46.6627 149.191H46.6829Z" fill="#F8BC7B"/>
<path d="M56.173 163.345C58.5758 164.965 61.2411 166.058 64.0679 166.625L64.3102 165.39C61.6449 164.843 59.1209 163.811 56.8595 162.292L56.173 163.325V163.345Z" fill="#F8BC7B"/>
<path d="M72.6089 165.41L72.8512 166.646C75.678 166.079 78.3433 164.965 80.7461 163.365L80.0596 162.333C77.7779 163.851 75.2742 164.884 72.6089 165.431V165.41Z" fill="#F8BC7B"/>
<path d="M85.9354 156.42L86.9651 157.109C88.5805 154.679 89.6708 152.026 90.2362 149.191L89.0045 148.948C88.4593 151.621 87.4295 154.152 85.9152 156.42H85.9354Z" fill="#F8BC7B"/>
<path d="M90.2564 140.383C89.691 137.548 88.5805 134.876 86.9853 132.466L85.9556 133.155C87.4699 135.443 88.5199 137.953 89.0449 140.626L90.2766 140.383H90.2564Z" fill="#F8BC7B"/>
<path d="M72.6089 124.184C75.2742 124.731 77.7981 125.764 80.0596 127.282L80.7461 126.25C78.3433 124.63 75.678 123.536 72.8512 122.969L72.6089 124.205V124.184Z" fill="#F8BC7B"/>
<path d="M71.5186 171.181H65.4006C64.391 171.181 63.5631 170.351 63.5631 169.339V163.426C61.8872 162.981 60.2921 162.312 58.7777 161.442L54.5981 165.633C54.2548 165.977 53.7904 166.18 53.3058 166.18C52.8212 166.18 52.3568 165.998 52.0135 165.633L47.6925 161.3C46.9858 160.591 46.9858 159.417 47.6925 158.708L51.8722 154.517C51.004 153.018 50.3376 151.398 49.8934 149.718H43.9975C42.9879 149.718 42.16 148.888 42.16 147.875V141.74C42.16 140.727 42.9879 139.897 43.9975 139.897H49.8934C50.3376 138.217 51.004 136.617 51.8722 135.098L47.6925 130.907C46.9858 130.198 46.9858 129.024 47.6925 128.295L52.0135 123.962C52.3568 123.617 52.8212 123.415 53.3058 123.415C53.7904 123.415 54.2548 123.597 54.5981 123.962L58.7777 128.153C60.2719 127.282 61.8872 126.614 63.5631 126.169V120.256C63.5631 119.244 64.391 118.414 65.4006 118.414H71.5186C72.5282 118.414 73.3561 119.244 73.3561 120.256V126.169C75.032 126.614 76.6271 127.282 78.1415 128.153L82.3211 123.962C82.6644 123.617 83.1288 123.415 83.6134 123.415C84.098 123.415 84.5624 123.597 84.9057 123.962L89.2267 128.295C89.5699 128.639 89.7718 129.105 89.7718 129.591C89.7718 130.077 89.5901 130.542 89.2267 130.887L85.047 135.078C85.9152 136.577 86.5816 138.196 87.0258 139.877H92.9217C93.9313 139.877 94.7592 140.707 94.7592 141.72V147.855C94.7592 148.867 93.9313 149.698 92.9217 149.698H87.0258C86.5816 151.378 85.9152 152.978 85.047 154.497L89.2267 158.688C89.5699 159.032 89.7718 159.498 89.7718 159.984C89.7718 160.47 89.5901 160.936 89.2267 161.28L84.9057 165.613C84.5624 165.957 84.098 166.16 83.6134 166.16C83.1288 166.16 82.6644 165.977 82.3211 165.613L78.1415 161.422C76.6473 162.292 75.032 162.96 73.3561 163.406V169.318C73.3561 170.331 72.5282 171.161 71.5186 171.161V171.181ZM58.596 159.842L59.02 160.105C60.6757 161.138 62.4526 161.867 64.3304 162.312L64.815 162.434V169.339C64.815 169.663 65.0775 169.926 65.4006 169.926H71.5186C71.8417 169.926 72.1042 169.663 72.1042 169.339V162.434L72.5888 162.312C74.4666 161.867 76.2637 161.118 77.8992 160.105L78.3232 159.842L83.1894 164.722C83.2903 164.823 83.4519 164.904 83.6134 164.904C83.7749 164.904 83.9163 164.844 84.0172 164.722L88.3382 160.389C88.4392 160.288 88.52 160.126 88.52 159.984C88.52 159.842 88.4594 159.68 88.3382 159.579L83.472 154.699L83.7345 154.274C84.7643 152.613 85.4912 150.832 85.9354 148.948L86.0566 148.462H92.9419C93.265 148.462 93.5275 148.199 93.5275 147.875V141.74C93.5275 141.416 93.265 141.153 92.9419 141.153H86.0566L85.9354 140.667C85.4912 138.784 84.7441 136.981 83.7345 135.341L83.472 134.916L88.3382 130.036C88.4392 129.935 88.52 129.773 88.52 129.631C88.52 129.49 88.4594 129.328 88.3382 129.206L84.0172 124.873C83.9163 124.772 83.7547 124.691 83.6134 124.691C83.4519 124.691 83.3105 124.751 83.1894 124.873L78.3232 129.753L77.8992 129.49C76.2435 128.457 74.4666 127.728 72.5888 127.282L72.1042 127.161V120.256C72.1042 119.932 71.8417 119.669 71.5186 119.669H65.4006C65.0775 119.669 64.815 119.932 64.815 120.256V127.161L64.3304 127.282C62.4526 127.728 60.6757 128.477 59.02 129.49L58.596 129.753L53.7298 124.873C53.6289 124.772 53.4673 124.691 53.326 124.691C53.1645 124.691 53.0231 124.751 52.902 124.873L48.581 129.206C48.3589 129.429 48.3589 129.814 48.581 130.036L53.4471 134.916L53.1847 135.341C52.1549 137.002 51.428 138.784 50.9838 140.667L50.8626 141.153H43.9773C43.6542 141.153 43.3917 141.416 43.3917 141.74V147.875C43.3917 148.199 43.6542 148.462 43.9773 148.462H50.8626L50.9838 148.948C51.428 150.832 52.1751 152.634 53.1847 154.274L53.4471 154.699L48.581 159.579C48.48 159.68 48.4194 159.842 48.4194 160.004C48.4194 160.166 48.48 160.308 48.581 160.409L52.902 164.742C53.0029 164.844 53.1645 164.924 53.326 164.924C53.4875 164.924 53.6289 164.864 53.7298 164.742L58.596 159.862V159.842Z" fill="#2B3990"/>
<path d="M68.4697 160.571C59.7873 160.571 52.7202 153.484 52.7202 144.777C52.7202 144.433 53.0029 144.149 53.3462 144.149C53.6894 144.149 53.9721 144.433 53.9721 144.777C53.9721 152.796 60.4738 159.316 68.4697 159.316C71.6196 159.316 74.6079 158.323 77.1117 156.44C77.3943 156.238 77.778 156.299 77.9799 156.562C78.1818 156.845 78.1213 157.23 77.8588 157.433C75.1329 159.478 71.882 160.551 68.4697 160.551V160.571Z" fill="#2B3990"/>
<path d="M83.9566 147.592C84.1181 146.66 84.2191 145.729 84.2191 144.777C84.2191 136.07 77.152 128.983 68.4696 128.983C63.7246 128.983 59.3228 131.089 56.3143 134.754C56.1326 134.714 55.971 134.673 55.7691 134.673C54.6182 134.673 53.6692 135.625 53.6692 136.779C53.6692 137.933 54.6182 138.885 55.7691 138.885C56.92 138.885 57.869 137.933 57.869 136.779C57.869 136.273 57.6873 135.807 57.3844 135.443C60.1507 132.142 64.1688 130.239 68.4696 130.239C76.4655 130.239 82.9672 136.759 82.9672 144.777C82.9672 145.587 82.8864 146.397 82.7451 147.207C81.5942 147.207 80.6654 148.159 80.6654 149.313C80.6654 150.467 81.6144 151.419 82.7653 151.419C83.9162 151.419 84.8652 150.467 84.8652 149.313C84.8652 148.604 84.5018 147.976 83.9566 147.592ZM55.7893 137.65C55.3249 137.65 54.9413 137.265 54.9413 136.799C54.9413 136.334 55.3249 135.949 55.7893 135.949C56.2537 135.949 56.6374 136.334 56.6374 136.799C56.6374 137.265 56.2537 137.65 55.7893 137.65ZM82.7653 150.163C82.3009 150.163 81.9172 149.779 81.9172 149.313C81.9172 148.847 82.3009 148.462 82.7653 148.462C83.2297 148.462 83.6133 148.847 83.6133 149.313C83.6133 149.779 83.2297 150.163 82.7653 150.163Z" fill="#F8BC7B"/>
<path d="M78.9088 157.676C77.7578 157.676 76.8088 156.724 76.8088 155.57C76.8088 154.415 77.7578 153.464 78.9088 153.464C80.0597 153.464 81.0087 154.415 81.0087 155.57C81.0087 156.724 80.0597 157.676 78.9088 157.676ZM78.9088 154.719C78.4444 154.719 78.0607 155.104 78.0607 155.57C78.0607 156.035 78.4444 156.42 78.9088 156.42C79.3732 156.42 79.7568 156.035 79.7568 155.57C79.7568 155.104 79.3732 154.719 78.9088 154.719Z" fill="#2B3990"/>
<path d="M53.4068 145.425C52.2559 145.425 51.3069 144.473 51.3069 143.319C51.3069 142.165 52.2559 141.213 53.4068 141.213C54.5577 141.213 55.5067 142.145 55.5067 143.319C55.5067 144.494 54.5577 145.425 53.4068 145.425ZM53.4068 142.469C52.9424 142.469 52.5588 142.854 52.5588 143.319C52.5588 143.785 52.9424 144.17 53.4068 144.17C53.8712 144.17 54.2549 143.785 54.2549 143.319C54.2549 142.854 53.8712 142.469 53.4068 142.469Z" fill="#2B3990"/>
<path d="M71.781 140.565V137.771C71.781 137.569 71.68 137.386 71.4983 137.285L69.0753 135.888C68.8936 135.787 68.6917 135.787 68.5099 135.888L66.1072 137.285C65.9254 137.386 65.8245 137.569 65.8245 137.771V140.565C65.8245 140.768 65.9254 140.95 66.1072 141.051L68.5301 142.449C68.5301 142.449 68.7119 142.53 68.8128 142.53C68.9138 142.53 69.0147 142.509 69.0955 142.449L71.5185 141.051C71.7002 140.95 71.8012 140.768 71.8012 140.565H71.781ZM70.9733 140.424L68.8128 141.679L66.6523 140.424V137.913L68.8128 136.658L70.9733 137.913V140.424Z" fill="#F8BC7B"/>
<path d="M67.7224 138.217C67.5003 138.217 67.3186 138.399 67.3186 138.622V139.675C67.3186 139.897 67.5003 140.08 67.7224 140.08C67.9445 140.08 68.1263 139.897 68.1263 139.675V138.622C68.1263 138.399 67.9445 138.217 67.7224 138.217Z" fill="#F8BC7B"/>
<path d="M68.7119 144.473C68.5907 144.473 68.4696 144.433 68.3686 144.372L64.3909 142.064C64.1688 141.942 64.0476 141.72 64.0476 141.477V136.86C64.0476 136.617 64.1688 136.394 64.3909 136.273L68.3686 133.964C68.5705 133.843 68.833 133.843 69.0551 133.964L73.0329 136.273C73.2348 136.394 73.3761 136.617 73.3761 136.86V141.477C73.3761 141.72 73.2348 141.942 73.0329 142.064L69.0551 144.372C68.9542 144.433 68.833 144.473 68.7119 144.473ZM64.8553 141.396L68.7119 143.623L72.5685 141.396V136.941L68.7119 134.714L64.8553 136.941V141.396Z" fill="#2A3B90"/>
<path d="M66.8544 149.09V146.296C66.8544 146.093 66.7534 145.911 66.5717 145.81L64.1487 144.413C63.967 144.311 63.765 144.311 63.5833 144.413L61.1805 145.81C60.9988 145.911 60.8978 146.093 60.8978 146.296V149.09C60.8978 149.293 60.9988 149.475 61.1805 149.576L63.6035 150.973C63.6035 150.973 63.7852 151.054 63.8862 151.054C63.9871 151.054 64.0881 151.034 64.1689 150.973L66.5919 149.576C66.7736 149.475 66.8745 149.293 66.8745 149.09H66.8544ZM66.0467 148.948L63.8862 150.204L61.7257 148.948V146.438L63.8862 145.182L66.0467 146.438V148.948Z" fill="#F8BC7B"/>
<path d="M62.8159 146.741C62.5938 146.741 62.4121 146.924 62.4121 147.146V148.199C62.4121 148.422 62.5938 148.604 62.8159 148.604C63.0381 148.604 63.2198 148.422 63.2198 148.199V147.146C63.2198 146.924 63.0381 146.741 62.8159 146.741Z" fill="#F8BC7B"/>
<path d="M63.8054 152.998C63.6842 152.998 63.5631 152.958 63.4621 152.897L59.4844 150.589C59.2623 150.467 59.1411 150.244 59.1411 150.001V145.385C59.1411 145.142 59.2623 144.919 59.4844 144.797L63.4621 142.489C63.664 142.368 63.9265 142.368 64.1486 142.489L68.1264 144.797C68.3283 144.919 68.4696 145.142 68.4696 145.385V150.001C68.4696 150.244 68.3283 150.467 68.1264 150.589L64.1486 152.897C64.0477 152.958 63.9265 152.998 63.8054 152.998ZM59.9488 149.92L63.8054 152.148L67.662 149.92V145.466L63.8054 143.238L59.9488 145.466V149.92Z" fill="#2A3B90"/>
<path d="M76.6876 149.09V146.296C76.6876 146.093 76.5866 145.911 76.4049 145.81L73.9819 144.413C73.8002 144.311 73.5983 144.311 73.4166 144.413L71.0138 145.81C70.832 145.911 70.7311 146.093 70.7311 146.296V149.09C70.7311 149.293 70.832 149.475 71.0138 149.576L73.4368 150.973C73.4368 150.973 73.6185 151.054 73.7194 151.054C73.8204 151.054 73.9214 151.034 74.0021 150.973L76.4251 149.576C76.6068 149.475 76.7078 149.293 76.7078 149.09H76.6876ZM75.8799 148.948L73.7194 150.204L71.5589 148.948V146.438L73.7194 145.182L75.8799 146.438V148.948Z" fill="#F8BC7B"/>
<path d="M72.6492 146.741C72.4271 146.741 72.2454 146.924 72.2454 147.146V148.199C72.2454 148.422 72.4271 148.604 72.6492 148.604C72.8713 148.604 73.053 148.422 73.053 148.199V147.146C73.053 146.924 72.8713 146.741 72.6492 146.741Z" fill="#F8BC7B"/>
<path d="M73.6386 152.978C73.5175 152.978 73.3963 152.937 73.2954 152.877L69.3176 150.568C69.0955 150.447 68.9744 150.224 68.9744 149.981V145.364C68.9744 145.121 69.0955 144.899 69.3176 144.777L73.2954 142.469C73.4973 142.347 73.7598 142.347 73.9819 142.469L77.9596 144.777C78.1615 144.899 78.3029 145.121 78.3029 145.364V149.981C78.3029 150.224 78.1615 150.447 77.9596 150.568L73.9819 152.877C73.8809 152.937 73.7598 152.978 73.6386 152.978ZM69.782 149.9L73.6386 152.127L77.4952 149.9V145.445L73.6386 143.218L69.782 145.445V149.9Z" fill="#2A3B90"/>
</g>
<defs>
<clipPath id="clip0_56_67">
<rect width="137" height="189" fill="white"/>
</clipPath>
</defs>
</svg>
