<svg width="81" height="86" viewBox="0 0 81 86" fill="none" xmlns="http://www.w3.org/2000/svg">
<path d="M21.6556 28.3113C24.66 28.3113 27.3074 26.5048 29.1517 23.7211C30.6986 21.3519 31.6802 18.3016 31.6802 14.896C31.6802 7.49242 27.1885 1.48071 21.6556 1.48071C16.1227 1.48071 11.631 7.49242 11.631 14.896C11.631 15.7548 11.6905 16.5544 11.8095 17.354C12.6721 23.573 16.7474 28.3113 21.6556 28.3113Z" fill="white" stroke="#2B3990" stroke-miterlimit="10"/>
<path d="M34.5656 39.4463C34.5656 34.4415 31.9479 29.8809 27.7833 27.2748C27.2776 26.9491 26.6232 27.1268 26.2365 27.571C25.0169 28.9628 23.3808 29.8217 21.6258 29.8217C18.4726 29.8217 15.7955 27.186 14.9031 23.5434C14.7543 22.9807 14.2784 22.5365 13.6834 22.5958C9.57841 23.0104 6.12781 26.3864 6.12781 30.8878V54.2535L30.7283 63.7301L34.5656 60.9463V39.4463Z" fill="white" stroke="#2B3990" stroke-miterlimit="10"/>
<path d="M23.946 31.7169C23.1131 31.095 21.953 31.1839 21.2093 31.8946C20.0492 33.02 18.5916 33.7011 16.9853 33.7011C14.0107 33.7011 11.4822 31.3616 10.4708 28.0744C10.1436 27.0675 9.10247 26.3863 8.09109 26.6233C4.462 27.4525 1.51709 30.6212 1.51709 34.7672V53.6019C1.51709 53.9869 1.75506 54.3423 2.11202 54.4607L28.6757 64.6777C29.3004 64.9146 29.9548 64.4704 29.9548 63.8189V43.3257C29.9548 38.6467 27.6644 34.3526 23.9758 31.7169H23.946Z" fill="#90BEE6" stroke="#2B3990" stroke-miterlimit="10"/>
<path d="M17.491 28.3113C20.4954 28.3113 23.1429 26.5048 24.9872 23.7211C26.534 21.3519 27.5156 18.3016 27.5156 14.896C27.5156 7.49242 23.0239 1.48071 17.491 1.48071C11.9582 1.48071 7.46643 7.49242 7.46643 14.896C7.46643 15.7548 7.52592 16.5544 7.64491 17.354C8.50756 23.573 12.5828 28.3113 17.491 28.3113Z" fill="#90BEE6" stroke="#2B3990" stroke-miterlimit="10"/>
<path d="M66.6324 48.0641C69.6368 48.0641 72.2842 46.2576 74.1285 43.4739C75.6754 41.1047 76.657 38.0545 76.657 34.6488C76.657 27.2452 72.1653 21.2335 66.6324 21.2335C61.0995 21.2335 56.6078 27.2452 56.6078 34.6488C56.6078 35.5076 56.6673 36.3072 56.7863 37.1068C57.6489 43.3258 61.7242 48.0641 66.6324 48.0641Z" fill="white" stroke="#2B3990" stroke-miterlimit="10"/>
<path d="M79.5127 59.2287C79.5127 54.2238 76.895 49.6632 72.7305 47.0572C72.2248 46.7314 71.5704 46.9091 71.1837 47.3533C69.964 48.7452 68.328 49.604 66.5729 49.604C63.4198 49.604 60.7426 46.9683 59.8502 43.3258C59.7015 42.7631 59.2255 42.3189 58.6306 42.3781C54.5256 42.7927 51.075 46.1687 51.075 50.6701V74.0358L75.6754 83.5124L79.5127 80.7287V59.2287Z" fill="white" stroke="#2B3990" stroke-miterlimit="10"/>
<path d="M68.8932 51.4697C68.0603 50.8478 66.9002 50.9367 66.1565 51.6474C64.9964 52.7728 63.5388 53.4539 61.9325 53.4539C58.9578 53.4539 56.4293 51.1144 55.418 47.8272C55.0907 46.8203 54.0496 46.1392 53.0382 46.3761C49.4091 47.2053 46.4642 50.374 46.4642 54.52V73.3547C46.4642 73.7397 46.7022 74.0951 47.0592 74.2135L73.6229 84.4305C74.2476 84.6674 74.902 84.2232 74.902 83.5717V63.0785C74.902 58.3995 72.6115 54.1054 68.9229 51.4697H68.8932Z" fill="#90BEE6" stroke="#2B3990" stroke-miterlimit="10"/>
<path d="M62.4678 48.0641C65.4723 48.0641 68.1197 46.2576 69.964 43.4739C71.5108 41.1047 72.4925 38.0545 72.4925 34.6488C72.4925 27.2452 68.0007 21.2335 62.4678 21.2335C56.935 21.2335 52.4432 27.2452 52.4432 34.6488C52.4432 35.5076 52.5027 36.3072 52.6217 37.1068C53.4844 43.3258 57.5597 48.0641 62.4678 48.0641Z" fill="#90BEE6" stroke="#2B3990" stroke-miterlimit="10"/>
<path d="M38.1946 44.1549C41.1991 44.1549 43.8465 42.3484 45.6908 39.5647C47.2376 37.1956 48.2193 34.1453 48.2193 30.7396C48.2193 23.336 43.7275 17.3243 38.1946 17.3243C32.6618 17.3243 28.17 23.336 28.17 30.7396C28.17 31.5984 28.2295 32.398 28.3485 33.1976C29.2112 39.4166 33.2865 44.1549 38.1946 44.1549Z" fill="white" stroke="#2B3990" stroke-miterlimit="10"/>
<path d="M51.1046 55.3195C51.1046 50.3147 48.4869 45.7541 44.3224 43.148C43.8167 42.8222 43.1623 42.9999 42.7756 43.4441C41.556 44.836 39.9199 45.6948 38.1649 45.6948C35.0117 45.6948 32.3345 43.0592 31.4421 39.4166C31.2934 38.8539 30.8174 38.4097 30.2225 38.4689C26.1175 38.8835 22.6669 42.2596 22.6669 46.7609V70.1266L47.2673 79.6032L51.1046 76.8195V55.3195Z" fill="white" stroke="#2B3990" stroke-miterlimit="10"/>
<path d="M40.4851 47.5606C39.6522 46.9387 38.4921 47.0275 37.7484 47.7382C36.5883 48.8636 35.1307 49.5447 33.5244 49.5447C30.5497 49.5447 28.0213 47.2052 27.0099 43.918C26.6827 42.9111 25.6415 42.23 24.6302 42.4669C21.0011 43.2961 18.0562 46.4648 18.0562 50.6108V69.4455C18.0562 69.8305 18.2941 70.1859 18.6511 70.3044L45.2148 80.5213C45.8395 80.7582 46.4939 80.314 46.4939 79.6625V59.1694C46.4939 54.4903 44.2034 50.1962 40.5148 47.5606H40.4851Z" fill="#90BEE6" stroke="#2B3990" stroke-miterlimit="10"/>
<path d="M34.0301 44.1549C37.0345 44.1549 39.682 42.3484 41.5262 39.5647C43.0731 37.1956 44.0547 34.1453 44.0547 30.7396C44.0547 23.336 39.563 17.3243 34.0301 17.3243C28.4972 17.3243 24.0055 23.336 24.0055 30.7396C24.0055 31.5984 24.065 32.398 24.184 33.1976C25.0466 39.4166 29.1219 44.1549 34.0301 44.1549Z" fill="#90BEE6" stroke="#2B3990" stroke-miterlimit="10"/>
</svg>
