<svg width="110" height="105" viewBox="0 0 110 105" fill="none" xmlns="http://www.w3.org/2000/svg">
<g clip-path="url(#clip0_89_195)">
<path d="M34.904 14.5449C38.6786 14.5449 41.7385 11.4756 41.7385 7.68943C41.7385 3.90327 38.6786 0.833984 34.904 0.833984C31.1295 0.833984 28.0696 3.90327 28.0696 7.68943C28.0696 11.4756 31.1295 14.5449 34.904 14.5449Z" fill="#D7DF23" stroke="#2B3990" stroke-miterlimit="10"/>
<path d="M48.8888 84.5004C37.5147 80.7974 29.8322 70.1723 29.8322 58.1795V52.6751C29.8322 33.8768 48.1239 20.5496 65.9501 26.3542C77.3242 30.0571 85.0068 40.6822 85.0068 52.6751V58.1795C85.0068 76.9777 66.715 90.305 48.8888 84.5004Z" fill="white" stroke="#2B3990" stroke-miterlimit="10"/>
<path d="M58.1512 52.3749C59.8307 52.3749 61.3107 51.3575 62.3417 49.7895C63.2064 48.4552 63.7551 46.7371 63.7551 44.8189C63.7551 40.649 61.2441 37.2629 58.1512 37.2629C55.0582 37.2629 52.5472 40.649 52.5472 44.8189C52.5472 45.3027 52.5805 45.753 52.647 46.2034C53.1293 49.7061 55.4074 52.3749 58.1512 52.3749Z" fill="white" stroke="#2B3990" stroke-miterlimit="10"/>
<path d="M65.3682 58.6466C65.3682 55.8277 63.9048 53.259 61.5768 51.7911C61.2941 51.6076 60.9282 51.7077 60.7121 51.9579C60.0303 52.7419 59.1157 53.2256 58.1346 53.2256C56.3719 53.2256 54.8753 51.7411 54.3765 49.6895C54.2933 49.3725 54.0273 49.1223 53.6947 49.1557C51.3999 49.3892 49.4709 51.2907 49.4709 53.8261V66.9865L63.223 72.3241L65.3682 70.7562V58.6466Z" fill="white" stroke="#2B3990" stroke-miterlimit="10"/>
<path d="M59.415 54.2931C58.9494 53.9428 58.3009 53.9929 57.8851 54.3932C57.2366 55.027 56.4218 55.4107 55.5238 55.4107C53.861 55.4107 52.4475 54.093 51.8821 52.2415C51.6992 51.6744 51.1172 51.2907 50.5518 51.4242C48.5231 51.8912 46.8768 53.676 46.8768 56.0112V66.6196C46.8768 66.8364 47.0099 67.0366 47.2094 67.1033L62.059 72.8579C62.4082 72.9913 62.774 72.7411 62.774 72.3741V60.8316C62.774 58.1962 61.4936 55.7776 59.4316 54.2931H59.415Z" fill="#90BEE6" stroke="#2B3990" stroke-miterlimit="10"/>
<path d="M55.8232 52.3749C57.5027 52.3749 58.9827 51.3575 60.0136 49.7895C60.8783 48.4552 61.4271 46.7371 61.4271 44.8189C61.4271 40.649 58.9161 37.2629 55.8232 37.2629C52.7302 37.2629 50.2192 40.649 50.2192 44.8189C50.2192 45.3027 50.2525 45.753 50.319 46.2034C50.8012 49.7061 53.0794 52.3749 55.8232 52.3749Z" fill="#90BEE6" stroke="#2B3990" stroke-miterlimit="10"/>
<path d="M45.297 27.8054L38.1632 14.3114" stroke="#2B3990" stroke-miterlimit="10"/>
<path d="M91.5752 22.768C95.3498 22.768 98.4097 19.6987 98.4097 15.9126C98.4097 12.1264 95.3498 9.05713 91.5752 9.05713C87.8006 9.05713 84.7407 12.1264 84.7407 15.9126C84.7407 19.6987 87.8006 22.768 91.5752 22.768Z" fill="#D7DF23" stroke="#2B3990" stroke-miterlimit="10"/>
<path d="M74.4142 30.6577L86.071 20.8165" stroke="#2B3990" stroke-miterlimit="10"/>
<path d="M102.334 62.2828C106.109 62.2828 109.169 59.2135 109.169 55.4273C109.169 51.6412 106.109 48.5719 102.334 48.5719C98.5595 48.5719 95.4996 51.6412 95.4996 55.4273C95.4996 59.2135 98.5595 62.2828 102.334 62.2828Z" fill="#D7DF23" stroke="#2B3990" stroke-miterlimit="10"/>
<path d="M85.3228 55.9445H95.4996" stroke="#2B3990" stroke-miterlimit="10"/>
<path d="M82.2963 101.531C86.0708 101.531 89.1307 98.4613 89.1307 94.6751C89.1307 90.889 86.0708 87.8197 82.2963 87.8197C78.5217 87.8197 75.4618 90.889 75.4618 94.6751C75.4618 98.4613 78.5217 101.531 82.2963 101.531Z" fill="#D7DF23" stroke="#2B3990" stroke-miterlimit="10"/>
<path d="M71.3545 81.5981L77.6568 89.6045" stroke="#2B3990" stroke-miterlimit="10"/>
<path d="M7.66589 53.8594C11.4405 53.8594 14.5004 50.7902 14.5004 47.004C14.5004 43.2178 11.4405 40.1486 7.66589 40.1486C3.89132 40.1486 0.831421 43.2178 0.831421 47.004C0.831421 50.7902 3.89132 53.8594 7.66589 53.8594Z" fill="#D7DF23" stroke="#2B3990" stroke-miterlimit="10"/>
<path d="M29.8322 51.4075L14.8662 48.5719" stroke="#2B3990" stroke-miterlimit="10"/>
<path d="M25.7414 104.166C29.516 104.166 32.5759 101.097 32.5759 97.3105C32.5759 93.5244 29.516 90.4551 25.7414 90.4551C21.9669 90.4551 18.907 93.5244 18.907 97.3105C18.907 101.097 21.9669 104.166 25.7414 104.166Z" fill="#D7DF23" stroke="#2B3990" stroke-miterlimit="10"/>
<path d="M40.2586 79.9468L30.3644 91.556" stroke="#2B3990" stroke-miterlimit="10"/>
</g>
<defs>
<clipPath id="clip0_89_195">
<rect width="110" height="105" fill="white"/>
</clipPath>
</defs>
</svg>
