<svg width="88" height="67" viewBox="0 0 88 67" fill="none" xmlns="http://www.w3.org/2000/svg">
<g clip-path="url(#clip0_88_169)">
<path d="M68.0392 24.9949C67.9609 14.7577 61.5734 5.5924 51.9139 1.92627C40.501 -2.3923 28.274 6.13611 28.274 18.2685V19.1074L25.7378 18.1287C17.2994 14.882 8.6419 19.3714 7.27987 28.2416C6.30922 34.4864 9.86304 40.4051 15.6399 42.6109L65.1429 61.6872C74.7241 64.8562 84.3523 60.2425 86.638 51.3258C88.1722 45.3761 88.3601 30.9757 68.0548 24.9949H68.0392Z" fill="white" stroke="#2B3990" stroke-miterlimit="10"/>
<path d="M61.7143 28.5368C61.636 18.2996 55.2486 9.13427 45.5891 5.46814C34.1762 1.14957 21.9492 9.67797 21.9492 21.8104C21.9492 22.2143 21.5421 22.4939 21.1664 22.3385L19.413 21.6706C10.9746 18.4239 2.31706 22.9133 0.955027 31.7835C-0.0312741 38.0283 3.5382 43.9469 9.29945 46.1528L58.8024 65.2291C68.3836 68.3981 78.0118 63.7844 80.2975 54.8676C81.8317 48.9179 82.0196 34.5175 61.7143 28.5368Z" fill="#90BEE6" stroke="#2B3990" stroke-miterlimit="10"/>
<path d="M14.591 41.741C16.9601 41.741 18.8806 39.8353 18.8806 37.4846C18.8806 35.1338 16.9601 33.2281 14.591 33.2281C12.2219 33.2281 10.3014 35.1338 10.3014 37.4846C10.3014 39.8353 12.2219 41.741 14.591 41.741Z" fill="#D7DF23" stroke="#2B3990" stroke-miterlimit="10"/>
<path d="M34.5675 38.2924L27.1624 42.4867L18.8806 39.271" stroke="#2B3990" stroke-miterlimit="10"/>
<path d="M57.5186 57.6794C59.8877 57.6794 61.8083 55.7737 61.8083 53.4229C61.8083 51.0722 59.8877 49.1665 57.5186 49.1665C55.1495 49.1665 53.229 51.0722 53.229 53.4229C53.229 55.7737 55.1495 57.6794 57.5186 57.6794Z" fill="#D7DF23" stroke="#2B3990" stroke-miterlimit="10"/>
<path d="M42.8336 39.9546L45.0724 48.1102L53.2133 51.6675" stroke="#2B3990" stroke-miterlimit="10"/>
<path d="M39.7025 45.0499C44.3024 45.0499 48.0313 41.3498 48.0313 36.7856C48.0313 32.2213 44.3024 28.5212 39.7025 28.5212C35.1027 28.5212 31.3738 32.2213 31.3738 36.7856C31.3738 41.3498 35.1027 45.0499 39.7025 45.0499Z" fill="#D7DF23" stroke="#2B3990" stroke-miterlimit="10"/>
</g>
<defs>
<clipPath id="clip0_88_169">
<rect width="88" height="67" fill="white"/>
</clipPath>
</defs>
</svg>
