<svg width="101" height="97" viewBox="0 0 101 97" fill="none" xmlns="http://www.w3.org/2000/svg">
<g clip-path="url(#clip0_87_109)">
<path d="M40.3252 96.3184L10.1877 83.0088C8.69175 82.34 7.71167 80.8612 7.71167 79.228V45.4716L39.4483 61.1474L40.9055 95.9069C40.9184 96.2156 40.596 96.4342 40.3123 96.3184H40.3252Z" fill="#90BEE6"/>
<path d="M40.5058 97C40.3639 97 40.2092 96.9742 40.0673 96.9099L9.92981 83.6003C8.20177 82.8415 7.07983 81.1183 7.07983 79.228V44.4427L40.0931 60.7487L41.5761 95.894C41.589 96.267 41.4214 96.6142 41.1119 96.8199C40.9313 96.9485 40.725 97 40.5058 97ZM8.36942 46.5003V79.2151C8.36942 80.604 9.19475 81.8513 10.4585 82.4172L40.2737 95.5854L38.8422 61.546L8.36942 46.5003Z" fill="#2B3990"/>
<path d="M90.5157 78.0964L41.3826 96.3313C41.1634 96.4085 40.9313 96.2542 40.9184 96.0227L39.4482 61.1474L94.1007 41.5237L91.8568 76.2961C91.8052 77.1062 91.2765 77.8135 90.5157 78.0964Z" fill="#558DCA"/>
<path d="M41.2795 97C41.086 97 40.8926 96.9486 40.7378 96.8329C40.4799 96.6657 40.3123 96.3699 40.2994 96.0484L38.8035 60.6974L39.2548 60.5431L94.8358 40.585L92.5274 76.3347C92.4629 77.402 91.7666 78.3279 90.7607 78.7008L41.6276 96.9357C41.5116 96.9743 41.3955 97 41.2795 97ZM40.1317 61.5847L41.5632 95.5726L90.2964 77.4792C90.8252 77.2863 91.1863 76.7976 91.2249 76.2446L93.4172 42.4625L40.1317 61.5976V61.5847Z" fill="#2B3990"/>
<path d="M39.3838 72.2066L1.72802 52.7629C1.05744 52.4156 0.644775 51.7341 0.644775 50.9754V42.128C0.644775 41.8451 0.941379 41.665 1.1864 41.7936L39.0872 60.9544C39.3193 61.0702 39.4741 61.3016 39.4741 61.5588L39.9125 71.8722C39.9125 72.1551 39.6288 72.3352 39.3838 72.2066Z" fill="#90BEE6"/>
<path d="M39.5515 72.8882C39.3967 72.8882 39.2291 72.8496 39.0872 72.7724L1.43144 53.3416C0.541624 52.8786 0 51.9785 0 50.9883V42.1409C0 41.7808 0.180541 41.4593 0.490041 41.2793C0.79954 41.0864 1.17352 41.0735 1.48302 41.2407L39.3838 60.4015C39.8223 60.6201 40.106 61.0702 40.1318 61.5589L40.5702 71.8594C40.5831 72.2195 40.4026 72.5538 40.106 72.7467C39.9383 72.8496 39.7578 72.901 39.5644 72.901L39.5515 72.8882ZM1.28958 42.5652V50.9754C1.28958 51.4898 1.57329 51.9527 2.02464 52.1842L39.242 71.4093L38.8293 61.5846L1.28958 42.5652Z" fill="#2B3990"/>
<path d="M40.5316 72.2838L99.5557 50.1652C100.033 49.9852 100.342 49.5351 100.342 49.0207V40.2119C100.342 39.7104 99.8394 39.3632 99.3623 39.5304L40.2092 60.8773C39.7578 61.0445 39.4741 61.4688 39.487 61.9446L39.8997 71.8723C39.9126 72.1809 40.2221 72.3866 40.5187 72.2838H40.5316Z" fill="#558DCA"/>
<path d="M40.3768 72.9525C40.1576 72.9525 39.9512 72.8882 39.7707 72.7724C39.4741 72.5795 39.2936 72.2581 39.2807 71.898L38.868 61.9704C38.8422 61.2117 39.2936 60.5301 40.0157 60.2729L99.1817 38.9388C99.5944 38.7845 100.072 38.8488 100.433 39.106C100.794 39.3632 101.013 39.7876 101.013 40.2248V49.0207C101.013 49.7923 100.523 50.4867 99.8007 50.7568L40.7508 72.8753C40.6218 72.9268 40.4929 72.9396 40.3639 72.9396L40.3768 72.9525ZM99.5944 40.1476L40.4284 61.4817C40.2478 61.546 40.1318 61.726 40.1318 61.9189L40.5445 71.5894L99.3236 49.5609C99.5428 49.4708 99.6975 49.2651 99.6975 49.0207V40.2248L99.5815 40.1476H99.5944Z" fill="#2B3990"/>
<path d="M59.4627 22.8516L1.23807 41.3309C1.01884 41.3952 0.99305 41.6909 1.19938 41.7938L39.1647 60.9803C39.3581 61.0832 39.5902 61.0961 39.7965 61.0189L100.046 39.2862C100.162 39.2476 100.162 39.0933 100.046 39.0418L60.5459 22.8773C60.1977 22.7359 59.8237 22.723 59.4627 22.8387V22.8516Z" fill="white"/>
<path d="M39.5128 61.7133C39.2936 61.7133 39.0614 61.6619 38.8551 61.559L0.902736 42.3725C0.58034 42.2053 0.386903 41.8581 0.412695 41.498C0.438486 41.1379 0.683507 40.8293 1.03169 40.7136L59.2692 22.2215C59.7592 22.0671 60.3008 22.0929 60.7909 22.2858L100.291 38.4503C100.587 38.5789 100.781 38.8618 100.768 39.1833C100.768 39.5048 100.562 39.7748 100.265 39.8906L40.0028 61.6361C39.8481 61.6876 39.6804 61.7262 39.5128 61.7262V61.7133ZM2.33417 41.6652L39.4483 60.4145L98.5627 39.1447L60.3008 23.4817C60.0945 23.3917 59.8753 23.3917 59.6689 23.456L2.33417 41.6652Z" fill="#2B3990"/>
<path d="M72.0132 21.2569V48.9283L67.8291 50.4095V21.244C67.8291 19.4652 66.7849 17.8594 65.174 17.1358L37.6031 4.72644L37.6032 4.72636L37.5944 4.72262L37.3979 5.18239C37.5944 4.72262 37.5942 4.72254 37.594 4.72246L37.5937 4.7223L37.5929 4.72197L37.5913 4.7213L37.5879 4.71987L37.58 4.71669C37.5743 4.71444 37.5677 4.71192 37.5603 4.70922C37.5455 4.70385 37.527 4.69767 37.5054 4.69145C37.4628 4.67918 37.4045 4.66577 37.3351 4.65902C37.1982 4.6457 36.9925 4.65658 36.7882 4.78195C36.3823 5.03107 36.3821 5.43329 36.3821 5.51674V34.8109C36.3821 35.948 35.4466 36.8828 34.3029 36.8828C33.1592 36.8828 32.2238 35.948 32.2238 34.8109V5.72249C32.2238 4.26682 32.7507 2.84144 33.7902 1.88543L33.7903 1.88545L33.7934 1.88247C35.3203 0.453576 37.4902 0.125617 39.3344 0.945022C39.3348 0.945185 39.3351 0.945348 39.3355 0.945511L66.9041 13.3667C70.0016 14.7652 72.0132 17.8668 72.0132 21.2569Z" fill="#90BEE6" stroke="#2B3990"/>
<path d="M62.2352 84.3333L58.3535 85.6707C57.8377 85.8507 57.309 85.465 57.309 84.9249V70.2135C57.309 69.892 57.5153 69.5962 57.8119 69.4805L61.6935 68.0016C62.2094 67.8087 62.7639 68.1816 62.7639 68.7346V83.5746C62.7639 83.9089 62.5447 84.2047 62.2352 84.3204V84.3333Z" fill="#2B3990"/>
<path d="M70.9141 81.0927L67.0325 82.4301C66.5166 82.6101 65.9879 82.2244 65.9879 81.6843V66.9729C65.9879 66.6514 66.1943 66.3556 66.4909 66.2399L70.3725 64.761C70.8883 64.5681 71.4428 64.941 71.4428 65.494V80.334C71.4428 80.6683 71.2236 80.9641 70.9141 81.0798V81.0927Z" fill="#2B3990"/>
<path d="M79.5414 78.1863L75.6598 79.5237C75.144 79.7038 74.6152 79.318 74.6152 78.7779V64.0665C74.6152 63.745 74.8216 63.4492 75.1182 63.3335L78.9998 61.8546C79.5156 61.6617 80.0702 62.0347 80.0702 62.5876V77.4276C80.0702 77.762 79.8509 78.0577 79.5414 78.1735V78.1863Z" fill="#2B3990"/>
<path d="M21.6521 83.4588C18.8666 82.5587 16.9709 79.961 16.9709 77.0419V75.7045C16.9709 71.1136 21.4587 67.873 25.8304 69.2875C28.6159 70.1877 30.5115 72.7853 30.5115 75.7045V77.0419C30.5115 81.6328 26.0238 84.8734 21.6521 83.4588Z" fill="white" stroke="#2B3990" stroke-miterlimit="10"/>
<path d="M23.3544 73.5312V77.1062C23.3544 77.402 23.5607 77.6592 23.8444 77.7363L25.8691 78.2507" stroke="#2B3990" stroke-width="1.5" stroke-miterlimit="10" stroke-linecap="round"/>
</g>
<defs>
<clipPath id="clip0_87_109">
<rect width="101" height="97" fill="white"/>
</clipPath>
</defs>
</svg>
