<svg width="83" height="96" viewBox="0 0 83 96" fill="none" xmlns="http://www.w3.org/2000/svg">
<g clip-path="url(#clip0_70_424)">
<path d="M76.0889 75.4292L14.5266 52.054C13.9816 51.8419 13.6095 51.3248 13.6095 50.7281V4.46822C13.6095 4.07046 14.0082 3.79203 14.3804 3.93787L76.9129 27.6711V74.8591C76.9129 75.2834 76.4876 75.5884 76.0756 75.4292H76.0889Z" fill="#90BEE6" stroke="#2B3990" stroke-miterlimit="10"/>
<path d="M76.9129 27.671L14.2076 3.96432C13.9816 3.87151 13.955 3.5533 14.181 3.44723L19.3909 0.702661C19.4972 0.649625 19.6036 0.636367 19.7232 0.689402L82.0298 24.2503C82.3488 24.3696 82.3753 24.8071 82.0696 24.9662L76.9129 27.671Z" fill="white" stroke="#2B3990" stroke-miterlimit="10"/>
<path d="M81.7374 73.1487L77.8034 75.2569C77.4047 75.469 76.9129 75.1773 76.9129 74.7265V27.6711L82.083 24.8867C82.1893 24.8337 82.3222 24.9133 82.3222 25.0326V72.1543C82.3222 72.5653 82.0963 72.9498 81.7241 73.1487H81.7374Z" fill="white" stroke="#2B3990" stroke-miterlimit="10"/>
<path d="M37.6656 47.1217L56.751 53.9235" stroke="#2B3990" stroke-miterlimit="10" stroke-linecap="round"/>
<path d="M60.9242 55.5676L68.3537 58.2061" stroke="#2B3990" stroke-miterlimit="10" stroke-linecap="round"/>
<path d="M37.6656 36.1036L56.751 42.9054" stroke="#2B3990" stroke-miterlimit="10" stroke-linecap="round"/>
<path d="M60.9242 44.5496L68.3537 47.1881" stroke="#2B3990" stroke-miterlimit="10" stroke-linecap="round"/>
<path d="M37.6656 25.6425L56.751 32.4442" stroke="#2B3990" stroke-miterlimit="10" stroke-linecap="round"/>
<path d="M60.9242 34.0751L68.3537 36.7268" stroke="#2B3990" stroke-miterlimit="10" stroke-linecap="round"/>
<path d="M27.9501 29.5538C29.2924 29.5538 30.4753 28.7451 31.2993 27.4987C31.9904 26.438 32.429 25.0724 32.429 23.5476C32.429 20.2329 30.4221 17.5414 27.9501 17.5414C25.478 17.5414 23.4711 20.2329 23.4711 23.5476C23.4711 23.9321 23.4977 24.2901 23.5509 24.6481C23.9363 27.4324 25.7571 29.5538 27.9501 29.5538Z" fill="white" stroke="#2B3990" stroke-miterlimit="10"/>
<path d="M33.067 35.3479C33.067 33.1072 31.8974 31.0653 30.0367 29.8985C29.8108 29.7527 29.5184 29.8322 29.3456 30.0311C28.8007 30.6543 28.0697 31.0388 27.2856 31.0388C25.8768 31.0388 24.6806 29.8588 24.2819 28.2279C24.2154 27.976 24.0028 27.7771 23.737 27.8036C21.9029 27.9893 20.3611 29.5008 20.3611 31.5161V41.9773L31.3525 46.2201L33.067 44.9738V35.3479Z" fill="white" stroke="#2B3990" stroke-miterlimit="10"/>
<path d="M28.3089 31.8742C27.9368 31.5957 27.4185 31.6355 27.0862 31.9537C26.5679 32.4575 25.9166 32.7625 25.1989 32.7625C23.8699 32.7625 22.7402 31.7151 22.2883 30.2433C22.1421 29.7925 21.6769 29.4876 21.225 29.5936C19.6036 29.9649 18.2878 31.3836 18.2878 33.2398V41.6724C18.2878 41.8448 18.3941 42.0039 18.5536 42.0569L30.4221 46.6312C30.7013 46.7373 30.9936 46.5384 30.9936 46.2467V37.0716C30.9936 34.9767 29.9703 33.0542 28.3222 31.8742H28.3089Z" fill="#D7DF23" stroke="#2B3990" stroke-miterlimit="10"/>
<path d="M25.4382 30.3494C26.7805 30.3494 27.9634 29.5406 28.7874 28.2943C29.4785 27.2336 29.9171 25.8679 29.9171 24.3431C29.9171 21.0284 27.9102 18.3369 25.4382 18.3369C22.9661 18.3369 20.9592 21.0284 20.9592 24.3431C20.9592 24.7276 20.9858 25.0856 21.039 25.4436C21.4244 28.228 23.2452 30.3494 25.4382 30.3494Z" fill="#D7DF23" stroke="#2B3990" stroke-miterlimit="10"/>
</g>
<g clip-path="url(#clip1_70_424)">
<path d="M63.1439 87.6127L1.58161 64.2375C1.03669 64.0253 0.664551 63.5082 0.664551 62.9116V16.6517C0.664551 16.2539 1.06327 15.9755 1.43541 16.1213L63.9679 39.8546V87.0426C63.9679 87.4669 63.5426 87.7718 63.1306 87.6127H63.1439Z" fill="#90BEE6" stroke="#2B3990" stroke-miterlimit="10"/>
<path d="M63.9679 39.8545L1.26262 16.1478C1.03668 16.055 1.01009 15.7368 1.23603 15.6307L6.44597 12.8861C6.5523 12.8331 6.65862 12.8198 6.77824 12.8729L69.0848 36.4337C69.4038 36.5531 69.4304 36.9906 69.1247 37.1497L63.9679 39.8545Z" fill="white" stroke="#2B3990" stroke-miterlimit="10"/>
<path d="M68.7925 85.3322L64.8584 87.4403C64.4597 87.6525 63.968 87.3608 63.968 86.91V39.8546L69.138 37.0702C69.2443 37.0172 69.3773 37.0967 69.3773 37.2161V84.3378C69.3773 84.7488 69.1513 85.1333 68.7792 85.3322H68.7925Z" fill="white" stroke="#2B3990" stroke-miterlimit="10"/>
<path d="M24.7206 59.3052L43.806 66.1069" stroke="#2B3990" stroke-miterlimit="10" stroke-linecap="round"/>
<path d="M47.9792 67.7511L55.4087 70.3896" stroke="#2B3990" stroke-miterlimit="10" stroke-linecap="round"/>
<path d="M24.7206 48.2871L43.806 55.0889" stroke="#2B3990" stroke-miterlimit="10" stroke-linecap="round"/>
<path d="M47.9792 56.733L55.4087 59.3715" stroke="#2B3990" stroke-miterlimit="10" stroke-linecap="round"/>
<path d="M24.7206 37.8259L43.806 44.6277" stroke="#2B3990" stroke-miterlimit="10" stroke-linecap="round"/>
<path d="M47.9792 46.2585L55.4087 48.9103" stroke="#2B3990" stroke-miterlimit="10" stroke-linecap="round"/>
<path d="M15.0051 41.7373C16.3475 41.7373 17.5304 40.9285 18.3544 39.6822C19.0455 38.6215 19.4841 37.2558 19.4841 35.7311C19.4841 32.4164 17.4772 29.7249 15.0051 29.7249C12.5331 29.7249 10.5262 32.4164 10.5262 35.7311C10.5262 36.1156 10.5528 36.4736 10.6059 36.8316C10.9914 39.6159 12.8122 41.7373 15.0051 41.7373Z" fill="white" stroke="#2B3990" stroke-miterlimit="10"/>
<path d="M20.1221 47.5314C20.1221 45.2906 18.9525 43.2488 17.0918 42.082C16.8659 41.9362 16.5735 42.0157 16.4007 42.2146C15.8558 42.8378 15.1248 43.2223 14.3406 43.2223C12.9318 43.2223 11.7357 42.0422 11.3369 40.4114C11.2705 40.1595 11.0578 39.9606 10.792 39.9871C8.95791 40.1727 7.4162 41.6842 7.4162 43.6996V54.1608L18.4076 58.4036L20.1221 57.1572V47.5314Z" fill="white" stroke="#2B3990" stroke-miterlimit="10"/>
<path d="M15.364 44.0576C14.9919 43.7792 14.4735 43.819 14.1412 44.1372C13.6229 44.641 12.9717 44.946 12.254 44.946C10.9249 44.946 9.7952 43.8985 9.34332 42.4268C9.19713 41.976 8.73195 41.671 8.28007 41.7771C6.65861 42.1484 5.34283 43.5671 5.34283 45.4233V53.8559C5.34283 54.0282 5.44916 54.1873 5.60865 54.2404L17.4772 58.8147C17.7563 58.9207 18.0487 58.7218 18.0487 58.4302V49.2551C18.0487 47.1602 17.0253 45.2377 15.3773 44.0576H15.364Z" fill="#D7DF23" stroke="#2B3990" stroke-miterlimit="10"/>
<path d="M12.4932 42.5328C13.8356 42.5328 15.0185 41.7241 15.8425 40.4777C16.5336 39.417 16.9722 38.0514 16.9722 36.5266C16.9722 33.2119 14.9653 30.5204 12.4932 30.5204C10.0212 30.5204 8.01428 33.2119 8.01428 36.5266C8.01428 36.9111 8.04086 37.2691 8.09403 37.6271C8.47946 40.4114 10.3003 42.5328 12.4932 42.5328Z" fill="#D7DF23" stroke="#2B3990" stroke-miterlimit="10"/>
</g>
<defs>
<clipPath id="clip0_70_424">
<rect width="70.055" height="83" fill="white" transform="translate(12.9449)"/>
</clipPath>
<clipPath id="clip1_70_424">
<rect width="70.055" height="83" fill="white" transform="translate(0 12.1835)"/>
</clipPath>
</defs>
</svg>
