<svg width="74" height="80" viewBox="0 0 74 80" fill="none" xmlns="http://www.w3.org/2000/svg">
<g clip-path="url(#clip0_88_158)">
<path d="M66.6996 79.2617L1.6706 54.6988C1.095 54.4759 0.701904 53.9325 0.701904 53.3055V4.69529C0.701904 4.27731 1.12308 3.98473 1.51617 4.13799L67.5701 29.077V78.6626C67.5701 79.1084 67.1208 79.4288 66.6856 79.2617H66.6996Z" fill="#90BEE6" stroke="#2B3990" stroke-miterlimit="10"/>
<path d="M67.5701 29.0769L1.33367 4.16575C1.09501 4.06823 1.06693 3.73385 1.30559 3.62239L6.80891 0.738375C6.92122 0.682645 7.03354 0.668713 7.15989 0.724442L72.9751 25.4824C73.312 25.6078 73.3401 26.0675 73.0172 26.2347L67.5701 29.0769Z" fill="white" stroke="#2B3990" stroke-miterlimit="10"/>
<path d="M72.6663 76.8652L68.5107 79.0804C68.0895 79.3034 67.5701 78.9968 67.5701 78.5231V29.077L73.0313 26.1511C73.1436 26.0954 73.284 26.179 73.284 26.3044V75.8202C73.284 76.2522 73.0453 76.6562 72.6522 76.8652H72.6663Z" fill="white" stroke="#2B3990" stroke-miterlimit="10"/>
<path d="M15.078 37.9938C16.0239 37.9938 16.7908 37.2327 16.7908 36.294C16.7908 35.3552 16.0239 34.5942 15.078 34.5942C14.1321 34.5942 13.3652 35.3552 13.3652 36.294C13.3652 37.2327 14.1321 37.9938 15.078 37.9938Z" stroke="#2B3990" stroke-miterlimit="10"/>
<path d="M24.6385 41.3933C25.5845 41.3933 26.3513 40.6323 26.3513 39.6935C26.3513 38.7548 25.5845 37.9938 24.6385 37.9938C23.6926 37.9938 22.9258 38.7548 22.9258 39.6935C22.9258 40.6323 23.6926 41.3933 24.6385 41.3933Z" stroke="#2B3990" stroke-miterlimit="10"/>
<path d="M34.101 44.7927C35.0469 44.7927 35.8137 44.0317 35.8137 43.0929C35.8137 42.1542 35.0469 41.3932 34.101 41.3932C33.155 41.3932 32.3882 42.1542 32.3882 43.0929C32.3882 44.0317 33.155 44.7927 34.101 44.7927Z" stroke="#2B3990" stroke-miterlimit="10"/>
<path d="M43.8722 48.2062C44.8181 48.2062 45.585 47.4451 45.585 46.5064C45.585 45.5676 44.8181 44.8066 43.8722 44.8066C42.9263 44.8066 42.1594 45.5676 42.1594 46.5064C42.1594 47.4451 42.9263 48.2062 43.8722 48.2062Z" stroke="#2B3990" stroke-miterlimit="10"/>
<path d="M53.6995 51.6057C54.6454 51.6057 55.4122 50.8447 55.4122 49.9059C55.4122 48.9672 54.6454 48.2062 53.6995 48.2062C52.7535 48.2062 51.9867 48.9672 51.9867 49.9059C51.9867 50.8447 52.7535 51.6057 53.6995 51.6057Z" stroke="#2B3990" stroke-miterlimit="10"/>
<path d="M13.2529 21.8879L8.25502 19.9652C8.08655 19.8955 7.98828 19.7423 7.98828 19.5751V13.6956C7.98828 13.403 8.2831 13.194 8.56388 13.3055L13.5618 15.2282C13.7303 15.2978 13.8285 15.4511 13.8285 15.6183V21.4978C13.8285 21.7903 13.5337 21.9993 13.2529 21.8879Z" fill="#D7DF23" stroke="#2B3990" stroke-miterlimit="10"/>
</g>
<defs>
<clipPath id="clip0_88_158">
<rect width="74" height="80" fill="white"/>
</clipPath>
</defs>
</svg>
