<svg xmlns="http://www.w3.org/2000/svg" xmlns:xlink="http://www.w3.org/1999/xlink" width="211.832" height="245.146" viewBox="0 0 211.832 245.146"><defs><style>.a{fill:none;}.b{fill:#6b5e9a;opacity:0.7;}.c{fill:url(#a);}.d{fill:url(#b);}.e{fill:#24126a;}.f{opacity:0.51;}.g{fill:#453c9e;}.h{fill:url(#c);}.i{fill:url(#d);}.j{fill:#fff;}.k{fill:#adb1f2;}.l{fill:#9198db;}.m{fill:url(#e);}.n{opacity:0.11;}.o{clip-path:url(#f);}.p{fill:url(#g);}.q{fill:url(#h);}.r,.s,.t{fill:#42e8e0;}.s{opacity:0.1;}.t{opacity:0.4;}</style><linearGradient id="a" x1="-23.238" y1="0.5" x2="-22.238" y2="0.5" gradientUnits="objectBoundingBox"><stop offset="0" stop-color="#c0bff6"/><stop offset="0.294" stop-color="#c4c3f6"/><stop offset="0.64" stop-color="#d2d2f9"/><stop offset="1" stop-color="#e9e9fd"/></linearGradient><linearGradient id="b" x1="-140.163" y1="0.5" x2="-139.163" y2="0.5" gradientUnits="objectBoundingBox"><stop offset="0" stop-color="#5761d7"/><stop offset="0.178" stop-color="#5b65d8"/><stop offset="0.388" stop-color="#6a72de"/><stop offset="0.613" stop-color="#8188e8"/><stop offset="0.849" stop-color="#a2a6f5"/><stop offset="1" stop-color="#bcbeff"/></linearGradient><linearGradient id="c" x1="-15.972" y1="0.5" x2="-14.972" y2="0.5" xlink:href="#b"/><linearGradient id="d" x1="-15.628" y1="0.5" x2="-14.628" y2="0.5" xlink:href="#a"/><linearGradient id="e" x1="-61.325" y1="0.5" x2="-60.325" y2="0.5" xlink:href="#a"/><clipPath id="f"><path class="a" d="M103.894,119.1l114.1,65.873L203.84,268.386,89.822,202.558Z" transform="translate(-89.822 -119.102)"/></clipPath><linearGradient id="g" x1="-16.392" y1="0.5" x2="-15.392" y2="0.5" xlink:href="#a"/><linearGradient id="h" x1="-66.145" y1="0.5" x2="-65.145" y2="0.5" xlink:href="#a"/></defs><g transform="translate(-454.16 -2603.682)"><path class="b" d="M100.428,192.4a7.48,7.48,0,0,1-3.662-.842L67.34,174.574a2.721,2.721,0,0,1-1.559-2.307,3.639,3.639,0,0,1,2.136-2.917l28.269-16.322c2.47-1.428,6.23-1.577,8.383-.334L134,169.683a2.719,2.719,0,0,1,1.559,2.306,3.644,3.644,0,0,1-2.136,2.918l-28.269,16.322A9.7,9.7,0,0,1,100.428,192.4Zm.48-39.9a9.016,9.016,0,0,0-4.389,1.1l-28.269,16.32a3.031,3.031,0,0,0-1.806,2.342A2.094,2.094,0,0,0,67.672,174L97.1,190.986c1.969,1.137,5.432.988,7.719-.334l28.269-16.322a3.031,3.031,0,0,0,1.806-2.342,2.089,2.089,0,0,0-1.228-1.73L104.238,153.27A6.772,6.772,0,0,0,100.908,152.5Z" transform="translate(425.992 2513.168)"/><path class="b" d="M154.575,270.528a3.8,3.8,0,0,1-1.864-.435l-14.255-8.232a1.481,1.481,0,0,1-.842-1.263,1.928,1.928,0,0,1,1.122-1.564l13.694-7.905a4.625,4.625,0,0,1,4.233-.163l14.255,8.231a1.48,1.48,0,0,1,.842,1.265,1.923,1.923,0,0,1-1.121,1.56l-13.7,7.908A4.848,4.848,0,0,1,154.575,270.528Zm-1.532-1.009a4.038,4.038,0,0,0,3.569-.163l13.7-7.908c.495-.284.789-.654.789-.986a.871.871,0,0,0-.51-.691l-14.255-8.231a4.049,4.049,0,0,0-3.569.161l-13.694,7.907c-.495.287-.79.657-.79.989a.871.871,0,0,0,.51.691Z" transform="translate(473.405 2578.3)"/><g transform="translate(454.16 2603.682)"><g transform="translate(73.238)"><path class="c" d="M88.384,204.445l14.811-87.868-1.19-.5,1.79-1.026,0,.01a1.287,1.287,0,0,1,1.38.1l118.365,68.337a3.34,3.34,0,0,1,1.537,3.006l-14.929,88.568a1.1,1.1,0,0,1-.623.9l0,0-1.751,1.011-.3-1.635.1.032L89.921,207.453A3.346,3.346,0,0,1,88.384,204.445Z" transform="translate(-86.503 -114.902)"/><path class="d" d="M177.844,158.012l1.946-.862a2.672,2.672,0,0,1,.251,1.464l-14.929,88.568a1.1,1.1,0,0,1-.623.9l0,0-1.751,1.011-.3-1.633.1.03-5.953-3.438Z" transform="translate(-41.471 -87.016)"/><path class="e" d="M88.8,208.1l118.366,68.339c.915.528,1.7.222,1.858-.724l14.927-88.567a3.342,3.342,0,0,0-1.536-3.006L104.051,115.8c-.915-.528-1.7-.222-1.858.724L87.266,205.089A3.342,3.342,0,0,0,88.8,208.1Z" transform="translate(-87.241 -114.48)"/><g class="f" transform="translate(4.284 6.972)"><path class="g" d="M103.894,119.1l114.1,65.873L203.84,268.386,89.822,202.558Z" transform="translate(-89.822 -119.102)"/></g></g><g transform="translate(0 93.309)"><path class="b" d="M164.124,292.774a5.331,5.331,0,0,1-2.611-.661L44.35,224.47a2.106,2.106,0,0,1-1.227-1.7,1.608,1.608,0,0,1,.916-1.375l69.914-40.366a5.114,5.114,0,0,1,4.665.179l117.163,67.644a2.106,2.106,0,0,1,1.227,1.7,1.612,1.612,0,0,1-.916,1.375l-69.914,40.364A4.154,4.154,0,0,1,164.124,292.774ZM116,181.219a3.5,3.5,0,0,0-1.71.385L44.371,221.968a1,1,0,0,0-.584.8c0,.388.325.8.895,1.127l117.163,67.644a4.55,4.55,0,0,0,4,.181l69.914-40.367a1,1,0,0,0,.584-.8c0-.388-.327-.8-.895-1.127L118.287,181.783A4.721,4.721,0,0,0,116,181.219Z" transform="translate(-43.123 -164.881)"/><path class="h" d="M43.361,210.25l6.459,3.373,64.772-37.4a4.7,4.7,0,0,1,4.228.174l111.714,64.5c1.069-.6,5.943-2.942,5.943-2.942l-2.364,6.16-.01-.008a1.4,1.4,0,0,1-.661.734l-68.218,39.386a4.7,4.7,0,0,1-4.228-.176l-114.319-66a2.041,2.041,0,0,1-.96-1.019l-.008.007Z" transform="translate(-42.966 -168.012)"/><path class="i" d="M44.384,214.41l117.163,67.644a4.817,4.817,0,0,0,4.333.179l69.914-40.366c1.111-.641.971-1.761-.31-2.5L118.32,171.722a4.817,4.817,0,0,0-4.333-.179L44.073,211.909C42.963,212.55,43.1,213.67,44.384,214.41Z" transform="translate(-42.991 -171.11)"/><path class="j" d="M44.38,197.339l117.163,67.644a4.817,4.817,0,0,0,4.333.179L235.79,224.8a1.4,1.4,0,0,0,.7-.818,1.193,1.193,0,0,1-.7,1.343l-69.914,40.366a4.817,4.817,0,0,1-4.333-.179L44.38,197.863c-.83-.48-1.174-1.117-1.014-1.683A1.977,1.977,0,0,0,44.38,197.339Z" transform="translate(-42.988 -154.563)"/><path class="e" d="M137.761,229.7V228.41c0-.121-.075-.178-.166-.124l-4.532,2.616a.4.4,0,0,0-.164.315V232.5c0,.121.073.178.164.125l4.532-2.616A.4.4,0,0,0,137.761,229.7Z" transform="translate(16.133 -133.385)"/><path class="e" d="M133.68,232.052v-1.285c0-.121-.075-.178-.166-.125l-4.532,2.616a.4.4,0,0,0-.166.315v1.285c0,.123.075.179.166.126l4.532-2.616A.4.4,0,0,0,133.68,232.052Z" transform="translate(13.438 -131.829)"/><path class="k" d="M201.765,233.919,104.4,177.707a2.1,2.1,0,0,0-2.1,0l-34.67,20.058a.748.748,0,0,0,0,1.295l97.315,56.186a2.1,2.1,0,0,0,2.1,0l34.717-20.033A.748.748,0,0,0,201.765,233.919Z" transform="translate(-27.19 -166.942)"/><path class="l" d="M201.765,235.214l-.349.2L104.4,179.4a2.1,2.1,0,0,0-2.1,0l-34.32,19.857-.349-.2a.748.748,0,0,1,0-1.295l34.67-20.058a2.1,2.1,0,0,1,2.1,0l97.362,56.212A.748.748,0,0,1,201.765,235.214Z" transform="translate(-27.19 -166.942)"/><g transform="translate(45.267 13.675)"><path class="e" d="M86.8,181.519l84.572,48.828,3.76-2.171L90.557,179.348Z" transform="translate(-59.564 -179.348)"/><path class="e" d="M81.243,184.726l79.326,45.8,3.76-2.171L85,182.555Z" transform="translate(-63.229 -177.232)"/><path class="e" d="M77.626,186.814l93.4,53.923,3.76-2.171-93.4-53.923Z" transform="translate(-65.617 -175.853)"/><path class="e" d="M74.009,188.9l93.4,53.923,3.76-2.171-93.4-53.923Z" transform="translate(-68.004 -174.475)"/><path class="e" d="M70.392,190.991l93.4,53.923,3.76-2.171-93.4-53.923Z" transform="translate(-70.392 -173.097)"/><path class="e" d="M140.82,212.71l3.76,2.171,3.76-2.171-3.76-2.171Z" transform="translate(-23.905 -158.761)"/><path class="e" d="M132.83,214.51l7.805,4.506,3.76-2.171-7.8-4.506Z" transform="translate(-29.179 -157.573)"/></g><path class="m" d="M98.122,230.828,71.87,215.672a1.132,1.132,0,0,1,0-2.145l17.952-10.365a4.1,4.1,0,0,1,3.715,0l26.252,15.156a1.133,1.133,0,0,1,0,2.146l-17.952,10.364A4.1,4.1,0,0,1,98.122,230.828Z" transform="translate(-24.657 -150.248)"/><path class="l" d="M119.785,219.2,93.533,204.04a4.1,4.1,0,0,0-3.715,0L71.866,214.4a1.622,1.622,0,0,0-.646.634c-.271-.518-.065-1.1.646-1.511l17.952-10.365a4.1,4.1,0,0,1,3.715,0l26.252,15.156c.71.41.916.994.646,1.512A1.611,1.611,0,0,0,119.785,219.2Z" transform="translate(-24.653 -150.248)"/></g><g class="n" transform="translate(77.522 6.972)"><g class="o"><g transform="translate(-3.369 43.51)"><path class="p" d="M88.854,188.611l117.161,67.644a4.817,4.817,0,0,0,4.333.181l69.916-40.366c1.111-.642.971-1.761-.312-2.5L162.791,145.925a4.812,4.812,0,0,0-4.333-.179L88.542,186.109C87.431,186.752,87.571,187.871,88.854,188.611Z" transform="translate(-87.792 -145.312)"/><path class="q" d="M169.963,189.878l-26.252-15.156a1.133,1.133,0,0,1,0-2.146l17.952-10.364a4.107,4.107,0,0,1,3.717,0l26.252,15.156a1.132,1.132,0,0,1,0,2.145L173.68,189.878A4.107,4.107,0,0,1,169.963,189.878Z" transform="translate(-51.392 -134.451)"/><path class="l" d="M191.627,178.246,165.376,163.09a4.107,4.107,0,0,0-3.717,0l-17.952,10.364a1.606,1.606,0,0,0-.644.634c-.272-.518-.065-1.1.644-1.512l17.952-10.364a4.107,4.107,0,0,1,3.717,0l26.252,15.156c.709.41.916.994.644,1.512A1.6,1.6,0,0,0,191.627,178.246Z" transform="translate(-51.388 -134.451)"/><g transform="translate(17.277 22.621)"><path class="k" d="M232.7,215.432,135.342,159.22a2.1,2.1,0,0,0-2.1,0l-34.67,20.06a.748.748,0,0,0,0,1.295l97.317,56.186a2.1,2.1,0,0,0,2.095,0L232.7,216.725A.746.746,0,0,0,232.7,215.432Z" transform="translate(-98.2 -158.938)"/><path class="l" d="M232.7,216.725l-.349.2-97.013-56.012a2.1,2.1,0,0,0-2.1,0L98.922,180.776l-.349-.2a.748.748,0,0,1,0-1.295l34.67-20.06a2.1,2.1,0,0,1,2.1,0L232.7,215.432A.746.746,0,0,1,232.7,216.725Z" transform="translate(-98.2 -158.938)"/><g transform="translate(6.087 4.114)"><path class="e" d="M105.226,170.368l84.819,48.97-3.36,1.94-84.819-48.97Z" transform="translate(-101.866 -155.509)"/><path class="e" d="M110.61,167.26l80.619,46.546-3.36,1.94L107.25,169.2Z" transform="translate(-98.313 -157.56)"/><path class="e" d="M162.8,197.392l7.53,4.347-3.36,1.94-7.529-4.347Z" transform="translate(-63.865 -137.672)"/><path class="e" d="M158.795,201.3l5.243,3.027-3.36,1.94-5.243-3.027Z" transform="translate(-66.509 -135.095)"/><path class="e" d="M113.983,165.312l94.169,54.368-3.36,1.94-94.169-54.368Z" transform="translate(-96.087 -158.846)"/><path class="e" d="M117.356,163.365l94.169,54.368-3.36,1.94L114,165.3Z" transform="translate(-93.86 -160.131)"/><path class="e" d="M120.73,161.417,214.9,215.785l-3.36,1.94L117.37,163.357Z" transform="translate(-91.634 -161.417)"/></g></g></g></g></g><g transform="translate(98.586 39.118)"><g transform="translate(34.11 19.737)"><path class="r" d="M127.121,152.808l.421-2.453,2.123,1.229-.421,2.453Z" transform="translate(-120.376 -150.356)"/><path class="s" d="M126.613,155.763l.422-2.453,2.123,1.229-.422,2.453Z" transform="translate(-120.711 -148.405)"/><path class="t" d="M126.105,158.718l.422-2.453,2.123,1.229-.422,2.452Z" transform="translate(-121.046 -146.455)"/><path class="r" d="M125.6,161.673l.422-2.453,2.123,1.229-.422,2.453Z" transform="translate(-121.382 -144.505)"/><path class="t" d="M125.09,164.627l.421-2.453,2.123,1.229-.422,2.453Z" transform="translate(-121.717 -142.555)"/><path class="r" d="M124.582,167.582,125,165.13l2.123,1.229-.421,2.452Z" transform="translate(-122.052 -140.604)"/><path class="r" d="M124.074,170.537l.421-2.452,2.123,1.228-.421,2.453Z" transform="translate(-122.387 -138.654)"/><path class="r" d="M123.566,173.492l.422-2.453,2.123,1.229-.421,2.453Z" transform="translate(-122.723 -136.704)"/><path class="s" d="M123.058,176.447l.422-2.453,2.123,1.229-.422,2.453Z" transform="translate(-123.058 -134.753)"/></g><g transform="translate(29.846 17.27)"><path class="r" d="M124.553,151.322l.422-2.453L127.1,150.1l-.422,2.453Z" transform="translate(-117.808 -148.87)"/><path class="r" d="M124.045,154.277l.421-2.453,2.123,1.229-.422,2.453Z" transform="translate(-118.143 -146.919)"/><path class="r" d="M123.537,157.232l.421-2.453,2.123,1.229-.421,2.452Z" transform="translate(-118.478 -144.969)"/><path class="r" d="M123.029,160.186l.421-2.453,2.123,1.229-.421,2.453Z" transform="translate(-118.813 -143.019)"/><path class="r" d="M122.521,163.141l.422-2.453,2.123,1.229-.422,2.453Z" transform="translate(-119.149 -141.068)"/><path class="r" d="M122.013,166.1l.422-2.453,2.123,1.229-.422,2.452Z" transform="translate(-119.484 -139.118)"/><path class="r" d="M121.505,169.051l.422-2.452,2.123,1.228-.422,2.453Z" transform="translate(-119.819 -137.168)"/><path class="r" d="M121,172.006l.421-2.453,2.123,1.229-.422,2.453Z" transform="translate(-120.154 -135.218)"/><path class="r" d="M120.49,174.96l.421-2.453,2.123,1.229-.421,2.453Z" transform="translate(-120.49 -133.267)"/></g><g transform="translate(25.582 14.803)"><path class="r" d="M121.984,149.836l.422-2.453,2.123,1.229-.422,2.453Z" transform="translate(-115.239 -147.383)"/><path class="r" d="M121.476,152.791l.422-2.453,2.123,1.229-.422,2.453Z" transform="translate(-115.574 -145.433)"/><path class="r" d="M120.968,155.746l.422-2.453,2.123,1.229-.422,2.452Z" transform="translate(-115.91 -143.483)"/><path class="s" d="M120.461,158.7l.422-2.452,2.123,1.228-.422,2.453Z" transform="translate(-116.245 -141.532)"/><path class="t" d="M119.953,161.655l.421-2.453,2.123,1.229-.421,2.453Z" transform="translate(-116.58 -139.582)"/><path class="t" d="M119.445,164.61l.421-2.453,2.123,1.229-.421,2.453Z" transform="translate(-116.915 -137.632)"/><path class="r" d="M118.937,167.565l.422-2.453,2.123,1.228-.421,2.453Z" transform="translate(-117.251 -135.682)"/><path class="r" d="M118.429,170.519l.422-2.453,2.123,1.229-.422,2.453Z" transform="translate(-117.586 -133.731)"/><path class="r" d="M117.921,173.474l.422-2.453,2.123,1.229-.422,2.453Z" transform="translate(-117.921 -131.781)"/></g><g transform="translate(21.319 12.336)"><path class="t" d="M119.416,148.35l.421-2.453,2.123,1.229-.422,2.453Z" transform="translate(-112.671 -145.897)"/><path class="t" d="M118.908,151.3l.421-2.453,2.123,1.229-.421,2.453Z" transform="translate(-113.006 -143.947)"/><path class="s" d="M118.4,154.259l.421-2.453,2.123,1.229-.421,2.453Z" transform="translate(-113.341 -141.997)"/><path class="r" d="M117.892,157.214l.422-2.452,2.123,1.228-.421,2.453Z" transform="translate(-113.676 -140.046)"/><path class="r" d="M117.384,160.169l.422-2.453,2.123,1.229-.422,2.453Z" transform="translate(-114.012 -138.096)"/><path class="r" d="M116.876,163.124l.422-2.453,2.123,1.229L119,164.352Z" transform="translate(-114.347 -136.146)"/><path class="t" d="M116.368,166.078l.422-2.453,2.123,1.229-.422,2.452Z" transform="translate(-114.682 -134.195)"/><path class="r" d="M115.86,169.033l.421-2.453,2.123,1.229-.421,2.453Z" transform="translate(-115.017 -132.245)"/><path class="r" d="M115.353,171.988l.421-2.453,2.123,1.229-.421,2.453Z" transform="translate(-115.353 -130.295)"/></g><g transform="translate(17.055 9.869)"><path class="r" d="M116.847,146.863l.422-2.452,2.123,1.228-.422,2.453Z" transform="translate(-110.102 -144.411)"/><path class="r" d="M116.339,149.818l.422-2.453,2.123,1.229-.422,2.453Z" transform="translate(-110.437 -142.461)"/><path class="r" d="M115.832,152.773l.422-2.453,2.123,1.229L117.955,154Z" transform="translate(-110.773 -140.511)"/><path class="r" d="M115.324,155.728l.421-2.452,2.123,1.228-.422,2.453Z" transform="translate(-111.108 -138.56)"/><path class="r" d="M114.816,158.683l.421-2.453,2.123,1.229-.421,2.453Z" transform="translate(-111.443 -136.61)"/><path class="r" d="M114.308,161.637l.421-2.453,2.123,1.229-.421,2.453Z" transform="translate(-111.778 -134.66)"/><path class="r" d="M113.8,164.592l.422-2.453,2.123,1.229-.421,2.452Z" transform="translate(-112.114 -132.709)"/><path class="r" d="M113.292,167.547l.422-2.453,2.123,1.229-.422,2.453Z" transform="translate(-112.449 -130.759)"/><path class="r" d="M112.784,170.5l.422-2.453,2.123,1.229-.422,2.452Z" transform="translate(-112.784 -128.809)"/></g><g transform="translate(12.791 7.401)"><path class="r" d="M114.279,145.377l.421-2.452,2.123,1.228-.421,2.453Z" transform="translate(-107.534 -142.925)"/><path class="r" d="M113.771,148.332l.421-2.453,2.123,1.229-.421,2.453Z" transform="translate(-107.869 -140.975)"/><path class="t" d="M113.263,151.287l.422-2.453,2.123,1.229-.421,2.453Z" transform="translate(-108.204 -139.024)"/><path class="r" d="M112.755,154.242l.422-2.453,2.123,1.228-.422,2.453Z" transform="translate(-108.54 -137.074)"/><path class="s" d="M112.247,157.2l.422-2.453,2.123,1.229-.422,2.453Z" transform="translate(-108.875 -135.124)"/><path class="r" d="M111.739,160.151l.422-2.453,2.123,1.229-.422,2.453Z" transform="translate(-109.21 -133.173)"/><path class="r" d="M111.231,163.106l.421-2.453,2.123,1.229-.422,2.452Z" transform="translate(-109.545 -131.223)"/><path class="r" d="M110.724,166.061l.421-2.452,2.123,1.228-.421,2.453Z" transform="translate(-109.88 -129.273)"/><path class="r" d="M110.216,169.016l.421-2.453,2.123,1.229-.421,2.453Z" transform="translate(-110.216 -127.323)"/></g><g transform="translate(8.527 4.934)"><path class="r" d="M111.71,143.891l.422-2.452,2.123,1.228-.422,2.453Z" transform="translate(-104.965 -141.439)"/><path class="r" d="M111.2,146.846l.422-2.453,2.123,1.229-.422,2.453Z" transform="translate(-105.3 -139.488)"/><path class="t" d="M110.695,149.8l.421-2.453,2.123,1.229-.422,2.453Z" transform="translate(-105.636 -137.538)"/><path class="r" d="M110.187,152.756l.421-2.453,2.123,1.229-.421,2.452Z" transform="translate(-105.971 -135.588)"/><path class="r" d="M109.679,155.71l.421-2.453,2.123,1.229-.421,2.453Z" transform="translate(-106.306 -133.638)"/><path class="s" d="M109.171,158.665l.422-2.453,2.123,1.229-.421,2.453Z" transform="translate(-106.641 -131.687)"/><path class="t" d="M108.663,161.62l.422-2.453,2.123,1.229-.422,2.453Z" transform="translate(-106.977 -129.737)"/><path class="r" d="M108.155,164.574l.422-2.452,2.123,1.228-.422,2.453Z" transform="translate(-107.312 -127.787)"/><path class="s" d="M107.647,167.529l.422-2.453,2.123,1.229-.422,2.453Z" transform="translate(-107.647 -125.836)"/></g><g transform="translate(4.264 2.467)"><path class="r" d="M109.142,142.405l.421-2.453,2.123,1.228-.421,2.453Z" transform="translate(-102.397 -139.952)"/><path class="t" d="M108.634,145.36l.422-2.453,2.123,1.229-.421,2.453Z" transform="translate(-102.732 -138.002)"/><path class="r" d="M108.126,148.315l.422-2.453,2.123,1.229-.422,2.453Z" transform="translate(-103.067 -136.052)"/><path class="r" d="M107.618,151.269l.422-2.453,2.123,1.229-.422,2.452Z" transform="translate(-103.402 -134.102)"/><path class="r" d="M107.11,154.224l.422-2.452L109.655,153l-.422,2.453Z" transform="translate(-103.738 -132.151)"/><path class="r" d="M106.6,157.179l.421-2.453,2.123,1.229-.422,2.453Z" transform="translate(-104.073 -130.201)"/><path class="r" d="M106.095,160.134l.422-2.453,2.123,1.229-.422,2.453Z" transform="translate(-104.408 -128.251)"/><path class="t" d="M105.587,163.088l.421-2.452,2.123,1.228-.421,2.453Z" transform="translate(-104.743 -126.3)"/><path class="r" d="M105.079,166.043l.422-2.453,2.123,1.229-.422,2.453Z" transform="translate(-105.079 -124.35)"/></g><path class="r" d="M106.574,140.919l.422-2.453,2.123,1.229-.422,2.452Z" transform="translate(-99.828 -138.466)"/><path class="s" d="M106.066,143.874l.422-2.453,2.123,1.229-.422,2.453Z" transform="translate(-100.164 -136.516)"/><path class="r" d="M105.558,146.828l.422-2.453L108.1,145.6l-.421,2.453Z" transform="translate(-100.499 -134.566)"/><path class="r" d="M105.05,149.783l.422-2.453,2.123,1.229-.421,2.452Z" transform="translate(-100.834 -132.615)"/><path class="r" d="M104.542,152.738l.422-2.452,2.123,1.228-.421,2.453Z" transform="translate(-101.169 -130.665)"/><path class="r" d="M104.034,155.693l.422-2.453,2.123,1.229-.422,2.453Z" transform="translate(-101.505 -128.715)"/><path class="t" d="M103.526,158.647l.422-2.453,2.123,1.229-.422,2.453Z" transform="translate(-101.84 -126.765)"/><path class="r" d="M103.018,161.6l.422-2.453,2.123,1.228-.422,2.453Z" transform="translate(-102.175 -124.814)"/><path class="r" d="M102.51,164.557l.421-2.453,2.123,1.229-.422,2.453Z" transform="translate(-102.51 -122.864)"/><g transform="translate(38.326 22.087)"><g transform="translate(34.11 19.737)"><path class="r" d="M150.208,166.114l.422-2.453,2.123,1.229-.421,2.453Z" transform="translate(-143.463 -163.661)"/><path class="s" d="M149.7,169.068l.421-2.453,2.123,1.229-.422,2.452Z" transform="translate(-143.798 -161.711)"/><path class="t" d="M149.193,172.023l.422-2.452,2.123,1.228-.422,2.453Z" transform="translate(-144.134 -159.76)"/><path class="r" d="M148.685,174.978l.422-2.453,2.123,1.229-.422,2.453Z" transform="translate(-144.469 -157.81)"/><path class="t" d="M148.177,177.933l.422-2.453,2.123,1.229-.422,2.453Z" transform="translate(-144.804 -155.86)"/><path class="r" d="M147.669,180.887l.422-2.452,2.123,1.228-.422,2.453Z" transform="translate(-145.139 -153.91)"/><path class="r" d="M147.161,183.842l.422-2.453,2.123,1.229-.422,2.453Z" transform="translate(-145.475 -151.959)"/><path class="r" d="M146.653,186.8l.421-2.453,2.123,1.229-.422,2.453Z" transform="translate(-145.81 -150.009)"/><path class="s" d="M146.145,189.752l.422-2.453,2.123,1.229-.422,2.452Z" transform="translate(-146.145 -148.059)"/></g><g transform="translate(29.846 17.27)"><path class="r" d="M147.64,164.627l.422-2.453,2.123,1.229-.422,2.453Z" transform="translate(-140.895 -162.175)"/><path class="r" d="M147.132,167.582l.422-2.453,2.123,1.229-.422,2.452Z" transform="translate(-141.23 -160.225)"/><path class="r" d="M146.624,170.537l.421-2.452,2.123,1.228-.422,2.453Z" transform="translate(-141.565 -158.274)"/><path class="r" d="M146.116,173.492l.421-2.453,2.123,1.229-.422,2.453Z" transform="translate(-141.9 -156.324)"/><path class="r" d="M145.608,176.447l.422-2.453,2.123,1.229-.421,2.453Z" transform="translate(-142.236 -154.374)"/><path class="r" d="M145.1,179.4l.422-2.452,2.123,1.228-.422,2.453Z" transform="translate(-142.571 -152.423)"/><path class="r" d="M144.592,182.356l.422-2.453,2.123,1.229-.422,2.453Z" transform="translate(-142.906 -150.473)"/><path class="r" d="M144.085,185.311l.422-2.452,2.123,1.229-.422,2.453Z" transform="translate(-143.241 -148.523)"/><path class="r" d="M143.577,188.266l.422-2.453,2.123,1.229-.422,2.452Z" transform="translate(-143.577 -146.573)"/></g><g transform="translate(25.582 14.803)"><path class="r" d="M145.072,163.141l.422-2.453,2.123,1.229-.421,2.453Z" transform="translate(-138.326 -160.689)"/><path class="r" d="M144.564,166.1l.422-2.453,2.123,1.229-.422,2.452Z" transform="translate(-138.661 -158.738)"/><path class="r" d="M144.056,169.051l.422-2.452,2.123,1.228-.422,2.453Z" transform="translate(-138.997 -156.788)"/><path class="s" d="M143.548,172.006l.422-2.453,2.123,1.229-.422,2.453Z" transform="translate(-139.332 -154.838)"/><path class="t" d="M143.04,174.96l.422-2.453,2.123,1.229-.422,2.453Z" transform="translate(-139.667 -152.888)"/><path class="t" d="M142.532,177.915l.422-2.453,2.123,1.229-.422,2.452Z" transform="translate(-140.002 -150.937)"/><path class="r" d="M142.024,180.87l.422-2.453,2.123,1.229-.422,2.453Z" transform="translate(-140.338 -148.987)"/><path class="r" d="M141.516,183.825l.421-2.453,2.123,1.229-.422,2.453Z" transform="translate(-140.673 -147.037)"/><path class="r" d="M141.008,186.779l.422-2.453,2.123,1.229-.422,2.453Z" transform="translate(-141.008 -145.086)"/></g><g transform="translate(21.319 12.336)"><path class="t" d="M142.5,161.655l.422-2.453,2.123,1.229-.422,2.453Z" transform="translate(-135.758 -159.202)"/><path class="t" d="M142,164.61l.422-2.453,2.123,1.229-.422,2.453Z" transform="translate(-136.093 -157.252)"/><path class="s" d="M141.487,167.565l.421-2.453,2.123,1.228-.422,2.453Z" transform="translate(-136.428 -155.302)"/><path class="r" d="M140.979,170.519l.422-2.453,2.123,1.229-.421,2.453Z" transform="translate(-136.764 -153.352)"/><path class="r" d="M140.471,173.474l.422-2.453,2.123,1.229-.421,2.453Z" transform="translate(-137.099 -151.401)"/><path class="r" d="M139.963,176.429l.422-2.453,2.123,1.229-.422,2.452Z" transform="translate(-137.434 -149.451)"/><path class="t" d="M139.456,179.384l.422-2.452L142,178.16l-.422,2.453Z" transform="translate(-137.769 -147.501)"/><path class="r" d="M138.948,182.338l.422-2.453,2.123,1.229-.422,2.453Z" transform="translate(-138.105 -145.55)"/><path class="r" d="M138.44,185.293l.421-2.453,2.123,1.229-.422,2.453Z" transform="translate(-138.44 -143.6)"/></g><g transform="translate(17.055 9.868)"><path class="r" d="M139.935,160.169l.422-2.453,2.123,1.229-.421,2.453Z" transform="translate(-133.189 -157.716)"/><path class="r" d="M139.427,163.124l.422-2.453,2.123,1.229-.422,2.453Z" transform="translate(-133.525 -155.766)"/><path class="r" d="M138.919,166.078l.422-2.453,2.123,1.229-.422,2.452Z" transform="translate(-133.86 -153.816)"/><path class="r" d="M138.411,169.033l.422-2.453,2.123,1.229-.422,2.453Z" transform="translate(-134.195 -151.865)"/><path class="r" d="M137.9,171.988l.422-2.453,2.123,1.229-.422,2.453Z" transform="translate(-134.53 -149.915)"/><path class="r" d="M137.4,174.943l.422-2.453,2.123,1.229-.421,2.452Z" transform="translate(-134.866 -147.965)"/><path class="r" d="M136.887,177.9l.421-2.452,2.123,1.228-.422,2.453Z" transform="translate(-135.201 -146.015)"/><path class="r" d="M136.379,180.852l.422-2.453,2.123,1.229-.422,2.453Z" transform="translate(-135.536 -144.064)"/><path class="r" d="M135.871,183.807l.422-2.453,2.123,1.229-.422,2.453Z" transform="translate(-135.871 -142.114)"/></g><g transform="translate(12.791 7.401)"><path class="r" d="M137.366,158.683l.422-2.453,2.123,1.229-.422,2.453Z" transform="translate(-130.621 -156.23)"/><path class="r" d="M136.858,161.637l.421-2.453,2.123,1.229-.422,2.453Z" transform="translate(-130.956 -154.28)"/><path class="t" d="M136.35,164.592l.421-2.453,2.123,1.229-.422,2.452Z" transform="translate(-131.291 -152.329)"/><path class="r" d="M135.842,167.547l.422-2.453,2.123,1.229-.421,2.453Z" transform="translate(-131.627 -150.379)"/><path class="s" d="M135.335,170.5l.422-2.453,2.123,1.229-.422,2.452Z" transform="translate(-131.962 -148.429)"/><path class="r" d="M134.827,173.457l.422-2.453,2.123,1.229-.422,2.453Z" transform="translate(-132.297 -146.479)"/><path class="r" d="M134.319,176.411l.422-2.452,2.123,1.228-.422,2.453Z" transform="translate(-132.632 -144.528)"/><path class="r" d="M133.811,179.366l.421-2.453,2.123,1.229-.422,2.453Z" transform="translate(-132.968 -142.578)"/><path class="r" d="M133.3,182.321l.421-2.453,2.123,1.229-.422,2.453Z" transform="translate(-133.303 -140.628)"/></g><g transform="translate(8.527 4.934)"><path class="r" d="M134.8,157.2l.422-2.453,2.123,1.229-.422,2.453Z" transform="translate(-128.052 -154.744)"/><path class="r" d="M134.29,160.151l.422-2.453,2.123,1.229-.422,2.453Z" transform="translate(-128.388 -152.794)"/><path class="t" d="M133.782,163.106l.422-2.453,2.123,1.229-.422,2.452Z" transform="translate(-128.723 -150.843)"/><path class="r" d="M133.274,166.061l.422-2.452,2.123,1.228-.422,2.453Z" transform="translate(-129.058 -148.893)"/><path class="r" d="M132.766,169.016l.421-2.453,2.123,1.229-.421,2.453Z" transform="translate(-129.393 -146.943)"/><path class="s" d="M132.258,171.97l.421-2.453,2.123,1.229-.422,2.453Z" transform="translate(-129.729 -144.992)"/><path class="t" d="M131.75,174.925l.422-2.453L134.3,173.7l-.422,2.453Z" transform="translate(-130.064 -143.042)"/><path class="r" d="M131.242,177.88l.422-2.453,2.123,1.229-.422,2.453Z" transform="translate(-130.399 -141.092)"/><path class="s" d="M130.734,180.835l.422-2.453,2.123,1.229-.422,2.453Z" transform="translate(-130.734 -139.142)"/></g><g transform="translate(4.264 2.467)"><path class="r" d="M132.229,155.71l.421-2.453,2.123,1.229-.422,2.453Z" transform="translate(-125.484 -153.258)"/><path class="t" d="M131.721,158.665l.421-2.453,2.123,1.229-.421,2.453Z" transform="translate(-125.819 -151.307)"/><path class="r" d="M131.214,161.62l.421-2.453,2.123,1.229-.421,2.453Z" transform="translate(-126.155 -149.357)"/><path class="r" d="M130.706,164.574l.422-2.452,2.123,1.228-.421,2.453Z" transform="translate(-126.49 -147.407)"/><path class="r" d="M130.2,167.529l.422-2.453,2.123,1.229-.422,2.453Z" transform="translate(-126.825 -145.457)"/><path class="r" d="M129.69,170.484l.422-2.453,2.123,1.229-.422,2.453Z" transform="translate(-127.16 -143.506)"/><path class="r" d="M129.182,173.439l.421-2.453,2.123,1.229-.422,2.452Z" transform="translate(-127.496 -141.556)"/><path class="t" d="M128.674,176.394l.421-2.453,2.123,1.229-.422,2.453Z" transform="translate(-127.831 -139.606)"/><path class="r" d="M128.166,179.348l.422-2.453,2.123,1.229-.421,2.453Z" transform="translate(-128.166 -137.655)"/></g><path class="r" d="M129.661,154.224l.422-2.452L132.206,153l-.422,2.453Z" transform="translate(-122.916 -151.772)"/><path class="s" d="M129.153,157.179l.422-2.453,2.123,1.229-.422,2.453Z" transform="translate(-123.251 -149.821)"/><path class="r" d="M128.645,160.134l.422-2.453,2.123,1.229-.422,2.453Z" transform="translate(-123.586 -147.871)"/><path class="r" d="M128.137,163.088l.422-2.452,2.123,1.228-.422,2.453Z" transform="translate(-123.921 -145.921)"/><path class="r" d="M127.629,166.043l.421-2.453,2.123,1.229-.421,2.453Z" transform="translate(-124.256 -143.971)"/><path class="r" d="M127.121,169l.421-2.453,2.123,1.229-.421,2.453Z" transform="translate(-124.592 -142.02)"/><path class="t" d="M126.613,171.953l.422-2.453,2.123,1.229-.422,2.452Z" transform="translate(-124.927 -140.07)"/><path class="r" d="M126.105,174.907l.422-2.453,2.123,1.229-.422,2.453Z" transform="translate(-125.262 -138.12)"/><path class="r" d="M125.6,177.862l.422-2.453,2.123,1.229-.422,2.453Z" transform="translate(-125.597 -136.169)"/></g></g></g></g></svg>