<svg xmlns="http://www.w3.org/2000/svg" xmlns:xlink="http://www.w3.org/1999/xlink" width="182.677" height="226.917" viewBox="0 0 182.677 226.917"><defs><style>.a{fill:#6b5e9a;opacity:0.7;}.b{fill:#bcbeff;}.c,.h{fill:#453c9e;}.d{fill:#fff;}.e{fill:url(#a);}.f{fill:#24126a;}.g,.h{opacity:0.51;}.i,.j,.k{fill:#42e8e0;}.j{opacity:0.1;}.k{opacity:0.4;}</style><linearGradient id="a" x1="0.5" y1="0.777" x2="0.5" y2="0.021" gradientUnits="objectBoundingBox"><stop offset="0" stop-color="#c0bff6"/><stop offset="0.294" stop-color="#c4c3f6"/><stop offset="0.64" stop-color="#d2d2f9"/><stop offset="1" stop-color="#e9e9fd"/></linearGradient></defs><g transform="translate(-1282.803 -2617.324)"><path class="a" d="M519.868,276.772a6.589,6.589,0,0,1-3.3-.883l-68.834-39.741a1.351,1.351,0,0,1,0-2.34l72.129-41.645.164.1L592,233.81a1.351,1.351,0,0,1,0,2.34l-68.834,39.739A6.584,6.584,0,0,1,519.868,276.772Zm0-83.843-71.8,41.454a.686.686,0,0,0,0,1.188L516.9,275.317a5.957,5.957,0,0,0,5.931,0l68.834-39.743a.686.686,0,0,0,0-1.188Z" transform="translate(836.429 2539.824)"/><path class="a" d="M549.316,219.01a7.449,7.449,0,0,1-3.66-.843L516.233,201.18a2.722,2.722,0,0,1-1.559-2.305,3.646,3.646,0,0,1,2.138-2.918l28.263-16.319c2.472-1.422,6.233-1.573,8.382-.334l29.422,16.988a2.719,2.719,0,0,1,1.559,2.307,3.643,3.643,0,0,1-2.136,2.916l-28.265,16.318A9.727,9.727,0,0,1,549.316,219.01Zm.48-39.894a9.018,9.018,0,0,0-4.389,1.1l-28.265,16.319a3.026,3.026,0,0,0-1.806,2.342,2.091,2.091,0,0,0,1.228,1.73l29.422,16.988c1.97,1.137,5.433.984,7.72-.335l28.265-16.318a3.028,3.028,0,0,0,1.8-2.34,2.1,2.1,0,0,0-1.228-1.733l-29.42-16.987A6.79,6.79,0,0,0,549.8,179.116Z" transform="translate(881.042 2530.785)"/><g transform="translate(1282.803 2617.324)"><g transform="translate(0 81.106)"><path class="b" d="M520.143,256.81l-73.5-42.433,73.493-42.431,73.5,42.432Z" transform="translate(-446.647 -171.946)"/><path class="c" d="M512.165,240.618l-53.427-30.846,53.425-30.845,53.427,30.846Z" transform="translate(-438.67 -167.34)"/><path class="d" d="M512.163,181.015l51.618,29.8,1.809-1.045-53.427-30.846-53.426,30.845,1.809,1.044Z" transform="translate(-438.67 -167.34)"/><path class="e" d="M564.419,197.51v24.052l-73.493,42.431V239.942Z" transform="translate(-417.431 -155.078)"/><path class="f" d="M446.647,197.509v24.052l73.5,42.433V239.942Z" transform="translate(-446.647 -155.078)"/><g class="g" transform="translate(4.979 53.238)"><path class="c" d="M449.647,204.02v7.574l63.538,36.684V240.7Z" transform="translate(-449.647 -204.02)"/></g><path class="d" d="M520.143,238.837l-72.3-41.743-1.194.689,73.5,42.433,73.493-42.431-1.194-.689Z" transform="translate(-446.647 -155.352)"/><path class="c" d="M549.013,207.664v4.305l-51.445,29.7v-4.305Z" transform="translate(-413.049 -148.378)"/><path class="h" d="M446.647,197.509v24.052l73.5,42.433V239.942Z" transform="translate(-446.647 -155.078)"/><path class="i" d="M483.292,225.359l-13.309-7.685,0,1.587,13.309,7.685Z" transform="translate(-431.251 -141.773)"/><path class="i" d="M470.26,217.845l-3.606-2.082,0,1.587,3.606,2.082Z" transform="translate(-433.447 -143.034)"/><path class="i" d="M461.582,212.836l-7.378-4.26,0,1.587,7.378,4.26Z" transform="translate(-441.662 -147.776)"/><path class="i" d="M464.827,214.709l-5.335-3.081,0,1.587,5.335,3.081Z" transform="translate(-438.173 -145.762)"/><path class="i" d="M467.153,216.053l-3.606-2.082,0,1.587,3.606,2.082Z" transform="translate(-435.497 -144.217)"/><g transform="translate(33.745 19.482)"><g transform="translate(37.491)"><path class="i" d="M491.9,186.378l-2.334-1.347,2.334-1.347,2.334,1.347Z" transform="translate(-489.565 -183.683)"/><path class="j" d="M494.711,188l-2.334-1.347,2.334-1.347,2.334,1.347Z" transform="translate(-487.71 -182.612)"/><path class="k" d="M497.523,189.625l-2.334-1.347,2.334-1.347,2.334,1.347Z" transform="translate(-485.854 -181.541)"/><path class="i" d="M500.335,191.249,498,189.9l2.334-1.347,2.334,1.347Z" transform="translate(-483.999 -180.47)"/><path class="k" d="M503.147,192.872l-2.334-1.347,2.334-1.347,2.334,1.347Z" transform="translate(-482.143 -179.398)"/><path class="i" d="M505.959,194.5l-2.334-1.347,2.334-1.347,2.334,1.347Z" transform="translate(-480.288 -178.327)"/><path class="i" d="M508.771,196.119l-2.334-1.347,2.334-1.347,2.334,1.347Z" transform="translate(-478.432 -177.256)"/><path class="i" d="M511.583,197.743,509.25,196.4l2.334-1.347,2.334,1.347Z" transform="translate(-476.577 -176.185)"/><path class="j" d="M514.4,199.367l-2.334-1.347,2.334-1.347,2.334,1.347Z" transform="translate(-474.721 -175.113)"/></g><g transform="translate(32.805 2.706)"><path class="i" d="M489.075,188.008l-2.334-1.347,2.334-1.347,2.334,1.347Z" transform="translate(-486.742 -185.314)"/><path class="i" d="M491.887,189.632l-2.334-1.347,2.333-1.347,2.334,1.347Z" transform="translate(-484.886 -184.242)"/><path class="i" d="M494.7,191.255l-2.334-1.347,2.334-1.347,2.334,1.347Z" transform="translate(-483.031 -183.171)"/><path class="i" d="M497.512,192.879l-2.334-1.347,2.334-1.347,2.334,1.347Z" transform="translate(-481.175 -182.1)"/><path class="i" d="M500.324,194.5l-2.334-1.347,2.334-1.347,2.334,1.347Z" transform="translate(-479.32 -181.028)"/><path class="i" d="M503.136,196.126l-2.334-1.347,2.334-1.347,2.334,1.347Z" transform="translate(-477.464 -179.957)"/><path class="i" d="M505.948,197.75l-2.334-1.347,2.334-1.347,2.334,1.347Z" transform="translate(-475.609 -178.886)"/><path class="i" d="M508.76,199.373l-2.334-1.347,2.334-1.347,2.334,1.347Z" transform="translate(-473.754 -177.815)"/><path class="i" d="M511.572,201l-2.334-1.347,2.334-1.347,2.334,1.347Z" transform="translate(-471.898 -176.743)"/></g><g transform="translate(28.118 5.411)"><path class="i" d="M486.252,189.638l-2.334-1.347,2.334-1.347,2.334,1.347Z" transform="translate(-483.918 -186.944)"/><path class="i" d="M489.064,191.262l-2.334-1.347,2.334-1.347,2.334,1.347Z" transform="translate(-482.063 -185.872)"/><path class="i" d="M491.876,192.886l-2.334-1.347,2.334-1.347,2.334,1.347Z" transform="translate(-480.207 -184.801)"/><path class="j" d="M494.688,194.509l-2.334-1.347,2.334-1.347,2.334,1.347Z" transform="translate(-478.352 -183.73)"/><path class="k" d="M497.5,196.132l-2.334-1.347,2.334-1.347,2.334,1.347Z" transform="translate(-476.496 -182.659)"/><path class="k" d="M500.312,197.756l-2.334-1.347,2.333-1.347,2.334,1.347Z" transform="translate(-474.641 -181.587)"/><path class="i" d="M503.124,199.38l-2.334-1.347,2.334-1.347,2.334,1.347Z" transform="translate(-472.785 -180.516)"/><path class="i" d="M505.936,201l-2.334-1.347,2.334-1.347,2.334,1.347Z" transform="translate(-470.93 -179.445)"/><path class="i" d="M508.749,202.627l-2.334-1.347,2.334-1.347,2.334,1.347Z" transform="translate(-469.075 -178.374)"/></g><g transform="translate(23.432 8.117)"><path class="k" d="M483.428,191.268l-2.334-1.347,2.334-1.347,2.334,1.347Z" transform="translate(-481.095 -188.574)"/><path class="k" d="M486.241,192.892l-2.334-1.347,2.334-1.347,2.334,1.347Z" transform="translate(-479.239 -187.503)"/><path class="j" d="M489.053,194.516l-2.334-1.347,2.334-1.347,2.334,1.347Z" transform="translate(-477.384 -186.431)"/><path class="i" d="M491.865,196.139l-2.334-1.347,2.334-1.347,2.334,1.347Z" transform="translate(-475.528 -185.36)"/><path class="i" d="M494.677,197.763l-2.334-1.347,2.334-1.347,2.334,1.347Z" transform="translate(-473.673 -184.289)"/><path class="i" d="M497.489,199.386l-2.334-1.347,2.334-1.347,2.334,1.347Z" transform="translate(-471.818 -183.218)"/><path class="k" d="M500.3,201.01l-2.334-1.347,2.334-1.347,2.334,1.347Z" transform="translate(-469.962 -182.146)"/><path class="i" d="M503.113,202.633l-2.334-1.347,2.334-1.347,2.334,1.347Z" transform="translate(-468.107 -181.075)"/><path class="i" d="M505.925,204.257l-2.334-1.347,2.334-1.347,2.334,1.347Z" transform="translate(-466.251 -180.004)"/></g><g transform="translate(18.746 10.823)"><path class="i" d="M480.605,192.9l-2.334-1.347L480.6,190.2l2.334,1.347Z" transform="translate(-478.271 -190.204)"/><path class="i" d="M483.417,194.522l-2.334-1.347,2.334-1.347,2.334,1.347Z" transform="translate(-476.416 -189.133)"/><path class="i" d="M486.229,196.146,483.9,194.8l2.334-1.347,2.334,1.347Z" transform="translate(-474.56 -188.061)"/><path class="i" d="M489.041,197.769l-2.334-1.347,2.334-1.347,2.334,1.347Z" transform="translate(-472.705 -186.99)"/><path class="i" d="M491.853,199.393l-2.334-1.347,2.334-1.347,2.334,1.347Z" transform="translate(-470.85 -185.919)"/><path class="i" d="M494.665,201.016l-2.334-1.347,2.334-1.347L497,199.669Z" transform="translate(-468.994 -184.848)"/><path class="i" d="M497.478,202.64l-2.334-1.347,2.334-1.347,2.334,1.347Z" transform="translate(-467.139 -183.776)"/><path class="i" d="M500.289,204.263l-2.334-1.347,2.334-1.347,2.334,1.347Z" transform="translate(-465.283 -182.705)"/><path class="i" d="M503.1,205.887l-2.334-1.347,2.333-1.347,2.334,1.347Z" transform="translate(-463.428 -181.634)"/></g><g transform="translate(14.059 13.529)"><path class="i" d="M477.782,194.529l-2.334-1.347,2.334-1.347,2.334,1.347Z" transform="translate(-475.448 -191.834)"/><path class="i" d="M480.594,196.152,478.26,194.8l2.334-1.347,2.334,1.347Z" transform="translate(-473.592 -190.763)"/><path class="k" d="M483.406,197.776l-2.334-1.347,2.334-1.347,2.334,1.347Z" transform="translate(-471.737 -189.691)"/><path class="i" d="M486.218,199.4l-2.334-1.347,2.334-1.347,2.334,1.347Z" transform="translate(-469.882 -188.62)"/><path class="j" d="M489.03,201.023l-2.334-1.347,2.334-1.347,2.334,1.347Z" transform="translate(-468.026 -187.549)"/><path class="i" d="M491.842,202.646l-2.334-1.347,2.334-1.347,2.334,1.347Z" transform="translate(-466.171 -186.478)"/><path class="i" d="M494.654,204.27l-2.334-1.347,2.334-1.347,2.334,1.347Z" transform="translate(-464.315 -185.406)"/><path class="i" d="M497.466,205.893l-2.334-1.347,2.334-1.347,2.334,1.347Z" transform="translate(-462.46 -184.335)"/><path class="i" d="M500.278,207.517l-2.334-1.347,2.334-1.347,2.334,1.347Z" transform="translate(-460.604 -183.264)"/></g><g transform="translate(9.373 16.234)"><path class="i" d="M474.958,196.159l-2.334-1.347,2.333-1.347,2.334,1.347Z" transform="translate(-472.624 -193.464)"/><path class="i" d="M477.77,197.782l-2.334-1.347,2.334-1.347,2.334,1.347Z" transform="translate(-470.769 -192.393)"/><path class="k" d="M480.582,199.406l-2.334-1.347,2.334-1.347,2.334,1.347Z" transform="translate(-468.914 -191.322)"/><path class="i" d="M483.394,201.03l-2.334-1.347,2.334-1.347,2.334,1.347Z" transform="translate(-467.058 -190.25)"/><path class="i" d="M486.206,202.653l-2.334-1.347,2.334-1.347,2.334,1.347Z" transform="translate(-465.203 -189.179)"/><path class="j" d="M489.018,204.277l-2.334-1.347,2.334-1.347,2.334,1.347Z" transform="translate(-463.347 -188.108)"/><path class="k" d="M491.831,205.9l-2.334-1.347,2.334-1.347,2.334,1.347Z" transform="translate(-461.492 -187.037)"/><path class="i" d="M494.643,207.524l-2.334-1.347,2.334-1.347,2.334,1.347Z" transform="translate(-459.636 -185.965)"/><path class="j" d="M497.455,209.147l-2.334-1.347,2.334-1.347,2.334,1.347Z" transform="translate(-457.781 -184.894)"/></g><g transform="translate(4.686 18.94)"><path class="i" d="M472.135,197.789l-2.334-1.347,2.334-1.347,2.334,1.347Z" transform="translate(-469.801 -195.094)"/><path class="k" d="M474.947,199.412l-2.334-1.347,2.334-1.347,2.334,1.347Z" transform="translate(-467.945 -194.023)"/><path class="i" d="M477.759,201.036l-2.334-1.347,2.334-1.347,2.334,1.347Z" transform="translate(-466.09 -192.952)"/><path class="i" d="M480.571,202.66l-2.334-1.347,2.334-1.347,2.334,1.347Z" transform="translate(-464.235 -191.88)"/><path class="i" d="M483.383,204.283l-2.334-1.347,2.334-1.347,2.334,1.347Z" transform="translate(-462.379 -190.809)"/><path class="i" d="M486.2,205.907l-2.334-1.347,2.334-1.347,2.334,1.347Z" transform="translate(-460.524 -189.738)"/><path class="i" d="M489.007,207.53l-2.334-1.347,2.334-1.347,2.334,1.347Z" transform="translate(-458.668 -188.667)"/><path class="k" d="M491.819,209.154l-2.334-1.347,2.334-1.347,2.334,1.347Z" transform="translate(-456.813 -187.595)"/><path class="i" d="M494.631,210.777,492.3,209.43l2.334-1.347,2.334,1.347Z" transform="translate(-454.957 -186.524)"/></g><g transform="translate(0 21.646)"><path class="i" d="M469.311,199.419l-2.334-1.347,2.334-1.347,2.334,1.347Z" transform="translate(-466.978 -196.724)"/><path class="j" d="M472.124,201.043,469.79,199.7l2.334-1.347,2.334,1.347Z" transform="translate(-465.122 -195.653)"/><path class="i" d="M474.935,202.666l-2.334-1.347,2.334-1.347,2.334,1.347Z" transform="translate(-463.267 -194.582)"/><path class="i" d="M477.747,204.29l-2.334-1.347,2.334-1.347,2.334,1.347Z" transform="translate(-461.411 -193.51)"/><path class="i" d="M480.56,205.913l-2.334-1.347,2.334-1.347,2.334,1.347Z" transform="translate(-459.556 -192.439)"/><path class="i" d="M483.372,207.537l-2.334-1.347,2.334-1.347,2.334,1.347Z" transform="translate(-457.7 -191.368)"/><path class="k" d="M486.184,209.16l-2.334-1.347,2.334-1.347,2.334,1.347Z" transform="translate(-455.845 -190.297)"/><path class="i" d="M489,210.784l-2.334-1.347L489,208.089l2.334,1.347Z" transform="translate(-453.989 -189.225)"/><path class="i" d="M491.808,212.407l-2.334-1.347,2.334-1.347,2.334,1.347Z" transform="translate(-452.134 -188.154)"/></g></g></g><g transform="translate(0 40.553)"><path class="b" d="M520.143,232.377l-73.5-42.432,73.493-42.431,73.5,42.432Z" transform="translate(-446.647 -147.513)"/><path class="c" d="M512.165,216.185l-53.427-30.846,53.425-30.845L565.59,185.34Z" transform="translate(-438.67 -142.908)"/><path class="d" d="M512.163,156.583l51.618,29.8,1.809-1.045-53.427-30.846-53.426,30.845,1.809,1.045Z" transform="translate(-438.67 -142.908)"/><path class="e" d="M564.419,173.078V197.13l-73.493,42.431V215.509Z" transform="translate(-417.431 -130.646)"/><path class="f" d="M446.647,173.077v24.052l73.5,42.433V215.51Z" transform="translate(-446.647 -130.646)"/><g class="g" transform="translate(4.979 53.238)"><path class="c" d="M449.647,179.588v7.574l63.538,36.684v-7.574Z" transform="translate(-449.647 -179.588)"/></g><path class="d" d="M520.143,214.4l-72.3-41.743-1.194.689,73.5,42.433,73.493-42.431-1.194-.689Z" transform="translate(-446.647 -130.92)"/><path class="c" d="M549.013,183.232v4.305l-51.445,29.7v-4.305Z" transform="translate(-413.049 -123.945)"/><path class="h" d="M446.647,173.077v24.052l73.5,42.433V215.51Z" transform="translate(-446.647 -130.646)"/><path class="i" d="M483.292,200.927l-13.309-7.685,0,1.587,13.309,7.685Z" transform="translate(-431.251 -117.341)"/><path class="i" d="M470.26,193.412l-3.606-2.082,0,1.587L470.258,195Z" transform="translate(-433.447 -118.602)"/><path class="i" d="M461.582,188.4l-7.378-4.26,0,1.587,7.378,4.26Z" transform="translate(-441.662 -123.344)"/><path class="i" d="M464.827,190.277l-5.335-3.081,0,1.587,5.335,3.081Z" transform="translate(-438.173 -121.33)"/><path class="i" d="M467.153,191.62l-3.606-2.082,0,1.587,3.606,2.082Z" transform="translate(-435.497 -119.785)"/><g transform="translate(33.745 19.482)"><g transform="translate(37.491)"><path class="i" d="M491.9,161.946l-2.334-1.347,2.334-1.347,2.334,1.347Z" transform="translate(-489.565 -159.251)"/><path class="j" d="M494.711,163.57l-2.334-1.347,2.334-1.347,2.334,1.347Z" transform="translate(-487.71 -158.18)"/><path class="k" d="M497.523,165.193l-2.334-1.347,2.334-1.347,2.334,1.347Z" transform="translate(-485.854 -157.109)"/><path class="i" d="M500.335,166.817,498,165.469l2.334-1.347,2.334,1.347Z" transform="translate(-483.999 -156.037)"/><path class="k" d="M503.147,168.44l-2.334-1.347,2.334-1.347,2.334,1.347Z" transform="translate(-482.143 -154.966)"/><path class="i" d="M505.959,170.064l-2.334-1.347,2.334-1.347,2.334,1.347Z" transform="translate(-480.288 -153.895)"/><path class="i" d="M508.771,171.687l-2.334-1.347,2.334-1.347,2.334,1.347Z" transform="translate(-478.432 -152.824)"/><path class="i" d="M511.583,173.311l-2.334-1.347,2.334-1.347,2.334,1.347Z" transform="translate(-476.577 -151.752)"/><path class="j" d="M514.4,174.934l-2.334-1.347,2.334-1.347,2.334,1.347Z" transform="translate(-474.721 -150.681)"/></g><g transform="translate(32.805 2.706)"><path class="i" d="M489.075,163.576l-2.334-1.347,2.334-1.347,2.334,1.347Z" transform="translate(-486.742 -160.881)"/><path class="i" d="M491.887,165.2l-2.334-1.347,2.333-1.347,2.334,1.347Z" transform="translate(-484.886 -159.81)"/><path class="i" d="M494.7,166.823l-2.334-1.347,2.334-1.347,2.334,1.347Z" transform="translate(-483.031 -158.739)"/><path class="i" d="M497.512,168.447l-2.334-1.347,2.334-1.347,2.334,1.347Z" transform="translate(-481.175 -157.668)"/><path class="i" d="M500.324,170.07l-2.334-1.347,2.334-1.347,2.334,1.347Z" transform="translate(-479.32 -156.596)"/><path class="i" d="M503.136,171.694l-2.334-1.347L503.136,169l2.334,1.347Z" transform="translate(-477.464 -155.525)"/><path class="i" d="M505.948,173.317l-2.334-1.347,2.334-1.347,2.334,1.347Z" transform="translate(-475.609 -154.454)"/><path class="i" d="M508.76,174.941l-2.334-1.347,2.334-1.347,2.334,1.347Z" transform="translate(-473.754 -153.383)"/><path class="i" d="M511.572,176.564l-2.334-1.347,2.334-1.347,2.334,1.347Z" transform="translate(-471.898 -152.311)"/></g><g transform="translate(28.118 5.412)"><path class="i" d="M486.252,165.206l-2.334-1.347,2.334-1.347,2.334,1.347Z" transform="translate(-483.918 -162.512)"/><path class="i" d="M489.064,166.83l-2.334-1.347,2.334-1.347,2.334,1.347Z" transform="translate(-482.063 -161.44)"/><path class="i" d="M491.876,168.453l-2.334-1.347,2.334-1.347,2.334,1.347Z" transform="translate(-480.207 -160.369)"/><path class="j" d="M494.688,170.077l-2.334-1.347,2.334-1.347,2.334,1.347Z" transform="translate(-478.352 -159.298)"/><path class="k" d="M497.5,171.7l-2.334-1.347,2.334-1.347,2.334,1.347Z" transform="translate(-476.496 -158.227)"/><path class="k" d="M500.312,173.324l-2.334-1.347,2.333-1.347,2.334,1.347Z" transform="translate(-474.641 -157.155)"/><path class="i" d="M503.124,174.947l-2.334-1.347,2.334-1.347,2.334,1.347Z" transform="translate(-472.785 -156.084)"/><path class="i" d="M505.936,176.571l-2.334-1.347,2.334-1.347,2.334,1.347Z" transform="translate(-470.93 -155.013)"/><path class="i" d="M508.749,178.195l-2.334-1.347,2.334-1.347,2.334,1.347Z" transform="translate(-469.075 -153.942)"/></g><g transform="translate(23.432 8.117)"><path class="k" d="M483.428,166.836l-2.334-1.347,2.334-1.347,2.334,1.347Z" transform="translate(-481.095 -164.142)"/><path class="k" d="M486.241,168.46l-2.334-1.347,2.334-1.347,2.334,1.347Z" transform="translate(-479.239 -163.07)"/><path class="j" d="M489.053,170.083l-2.334-1.347,2.334-1.347,2.334,1.347Z" transform="translate(-477.384 -161.999)"/><path class="i" d="M491.865,171.707l-2.334-1.347,2.334-1.347,2.334,1.347Z" transform="translate(-475.528 -160.928)"/><path class="i" d="M494.677,173.331l-2.334-1.347,2.334-1.347,2.334,1.347Z" transform="translate(-473.673 -159.857)"/><path class="i" d="M497.489,174.954l-2.334-1.347,2.334-1.347,2.334,1.347Z" transform="translate(-471.818 -158.785)"/><path class="k" d="M500.3,176.578l-2.334-1.347,2.334-1.347,2.334,1.347Z" transform="translate(-469.962 -157.714)"/><path class="i" d="M503.113,178.2l-2.334-1.347,2.334-1.347,2.334,1.347Z" transform="translate(-468.107 -156.643)"/><path class="i" d="M505.925,179.825l-2.334-1.347,2.334-1.347,2.334,1.347Z" transform="translate(-466.251 -155.572)"/></g><g transform="translate(18.746 10.823)"><path class="i" d="M480.605,168.466l-2.334-1.347,2.334-1.347,2.334,1.347Z" transform="translate(-478.271 -165.772)"/><path class="i" d="M483.417,170.09l-2.334-1.347,2.334-1.347,2.334,1.347Z" transform="translate(-476.416 -164.7)"/><path class="i" d="M486.229,171.714l-2.334-1.347,2.334-1.347,2.334,1.347Z" transform="translate(-474.56 -163.629)"/><path class="i" d="M489.041,173.337l-2.334-1.347,2.334-1.347,2.334,1.347Z" transform="translate(-472.705 -162.558)"/><path class="i" d="M491.853,174.961l-2.334-1.347,2.334-1.347,2.334,1.347Z" transform="translate(-470.85 -161.487)"/><path class="i" d="M494.665,176.584l-2.334-1.347,2.334-1.347L497,175.237Z" transform="translate(-468.994 -160.415)"/><path class="i" d="M497.478,178.208l-2.334-1.347,2.334-1.347,2.334,1.347Z" transform="translate(-467.139 -159.344)"/><path class="i" d="M500.289,179.831l-2.334-1.347,2.334-1.347,2.334,1.347Z" transform="translate(-465.283 -158.273)"/><path class="i" d="M503.1,181.455l-2.334-1.347,2.333-1.347,2.334,1.347Z" transform="translate(-463.428 -157.202)"/></g><g transform="translate(14.059 13.529)"><path class="i" d="M477.782,170.1l-2.334-1.347,2.334-1.347,2.334,1.347Z" transform="translate(-475.448 -167.402)"/><path class="i" d="M480.594,171.72l-2.334-1.347,2.334-1.347,2.334,1.347Z" transform="translate(-473.592 -166.33)"/><path class="k" d="M483.406,173.344,481.072,172l2.334-1.347L485.74,172Z" transform="translate(-471.737 -165.259)"/><path class="i" d="M486.218,174.967l-2.334-1.347,2.334-1.347,2.334,1.347Z" transform="translate(-469.882 -164.188)"/><path class="j" d="M489.03,176.591l-2.334-1.347,2.334-1.347,2.334,1.347Z" transform="translate(-468.026 -163.117)"/><path class="i" d="M491.842,178.214l-2.334-1.347,2.334-1.347,2.334,1.347Z" transform="translate(-466.171 -162.046)"/><path class="i" d="M494.654,179.838l-2.334-1.347,2.334-1.347,2.334,1.347Z" transform="translate(-464.315 -160.974)"/><path class="i" d="M497.466,181.461l-2.334-1.347,2.334-1.347,2.334,1.347Z" transform="translate(-462.46 -159.903)"/><path class="i" d="M500.278,183.085l-2.334-1.347,2.334-1.347,2.334,1.347Z" transform="translate(-460.604 -158.832)"/></g><g transform="translate(9.373 16.234)"><path class="i" d="M474.958,171.727l-2.334-1.347,2.333-1.347,2.334,1.347Z" transform="translate(-472.624 -169.032)"/><path class="i" d="M477.77,173.35,475.437,172l2.334-1.347L480.1,172Z" transform="translate(-470.769 -167.961)"/><path class="k" d="M480.582,174.974l-2.334-1.347,2.334-1.347,2.334,1.347Z" transform="translate(-468.914 -166.889)"/><path class="i" d="M483.394,176.6l-2.334-1.347,2.334-1.347,2.334,1.347Z" transform="translate(-467.058 -165.818)"/><path class="i" d="M486.206,178.221l-2.334-1.347,2.334-1.347,2.334,1.347Z" transform="translate(-465.203 -164.747)"/><path class="j" d="M489.018,179.844l-2.334-1.347,2.334-1.347,2.334,1.347Z" transform="translate(-463.347 -163.676)"/><path class="k" d="M491.831,181.468,489.5,180.12l2.334-1.347,2.334,1.347Z" transform="translate(-461.492 -162.604)"/><path class="i" d="M494.643,183.092l-2.334-1.347,2.334-1.347,2.334,1.347Z" transform="translate(-459.636 -161.533)"/><path class="j" d="M497.455,184.715l-2.334-1.347,2.334-1.347,2.334,1.347Z" transform="translate(-457.781 -160.462)"/></g><g transform="translate(4.686 18.94)"><path class="i" d="M472.135,173.357l-2.334-1.347,2.334-1.347,2.334,1.347Z" transform="translate(-469.801 -170.662)"/><path class="k" d="M474.947,174.98l-2.334-1.347,2.334-1.347,2.334,1.347Z" transform="translate(-467.945 -169.591)"/><path class="i" d="M477.759,176.6l-2.334-1.347,2.334-1.347,2.334,1.347Z" transform="translate(-466.09 -168.52)"/><path class="i" d="M480.571,178.227l-2.334-1.347,2.334-1.347,2.334,1.347Z" transform="translate(-464.235 -167.448)"/><path class="i" d="M483.383,179.851l-2.334-1.347,2.334-1.347,2.334,1.347Z" transform="translate(-462.379 -166.377)"/><path class="i" d="M486.2,181.475l-2.334-1.347,2.334-1.347,2.334,1.347Z" transform="translate(-460.524 -165.306)"/><path class="i" d="M489.007,183.1l-2.334-1.347,2.334-1.347,2.334,1.347Z" transform="translate(-458.668 -164.234)"/><path class="k" d="M491.819,184.722l-2.334-1.347,2.334-1.347,2.334,1.347Z" transform="translate(-456.813 -163.163)"/><path class="i" d="M494.631,186.345,492.3,185l2.334-1.347L496.965,185Z" transform="translate(-454.957 -162.092)"/></g><g transform="translate(0 21.646)"><path class="i" d="M469.311,174.987l-2.334-1.347,2.334-1.347,2.334,1.347Z" transform="translate(-466.978 -172.292)"/><path class="j" d="M472.124,176.61l-2.334-1.347,2.334-1.347,2.334,1.347Z" transform="translate(-465.122 -171.221)"/><path class="i" d="M474.935,178.234l-2.334-1.347,2.334-1.347,2.334,1.347Z" transform="translate(-463.267 -170.15)"/><path class="i" d="M477.747,179.858l-2.334-1.347,2.334-1.347,2.334,1.347Z" transform="translate(-461.411 -169.079)"/><path class="i" d="M480.56,181.481l-2.334-1.347,2.334-1.347,2.334,1.347Z" transform="translate(-459.556 -168.007)"/><path class="i" d="M483.372,183.1l-2.334-1.347,2.334-1.347,2.334,1.347Z" transform="translate(-457.7 -166.936)"/><path class="k" d="M486.184,184.728l-2.334-1.347,2.334-1.347,2.334,1.347Z" transform="translate(-455.845 -165.865)"/><path class="i" d="M489,186.352,486.662,185,489,183.657,491.329,185Z" transform="translate(-453.989 -164.793)"/><path class="i" d="M491.808,187.975l-2.334-1.347,2.334-1.347,2.334,1.347Z" transform="translate(-452.134 -163.722)"/></g></g></g><path class="b" d="M520.143,207.945l-73.5-42.432,73.493-42.431,73.5,42.433Z" transform="translate(-446.647 -123.081)"/><path class="c" d="M512.165,191.753l-53.427-30.846,53.425-30.845,53.427,30.846Z" transform="translate(-438.67 -118.475)"/><path class="d" d="M512.163,132.151l51.618,29.8,1.809-1.045-53.427-30.846-53.426,30.845,1.809,1.045Z" transform="translate(-438.67 -118.476)"/><path class="e" d="M564.419,148.646V172.7l-73.493,42.431V191.077Z" transform="translate(-417.431 -106.213)"/><path class="f" d="M446.647,148.645V172.7l73.5,42.432V191.078Z" transform="translate(-446.647 -106.214)"/><g class="g" transform="translate(4.979 53.238)"><path class="c" d="M449.647,155.156v7.574l63.538,36.684v-7.574Z" transform="translate(-449.647 -155.156)"/></g><path class="d" d="M520.143,189.973l-72.3-41.743-1.194.689,73.5,42.432,73.493-42.431-1.194-.689Z" transform="translate(-446.647 -106.488)"/><path class="c" d="M549.013,158.8v4.305l-51.445,29.7V188.5Z" transform="translate(-413.049 -99.513)"/><path class="h" d="M446.647,148.645V172.7l73.5,42.432V191.078Z" transform="translate(-446.647 -106.214)"/><path class="i" d="M483.292,176.495l-13.309-7.685,0,1.587,13.309,7.685Z" transform="translate(-431.251 -92.909)"/><path class="i" d="M470.26,168.98l-3.606-2.082,0,1.587,3.606,2.082Z" transform="translate(-433.447 -94.17)"/><path class="i" d="M461.582,163.971l-7.378-4.26,0,1.587,7.378,4.26Z" transform="translate(-441.662 -98.912)"/><path class="i" d="M464.827,165.845l-5.335-3.081,0,1.587,5.335,3.081Z" transform="translate(-438.173 -96.898)"/><path class="i" d="M467.153,167.188l-3.606-2.082,0,1.587,3.606,2.082Z" transform="translate(-435.497 -95.352)"/><g transform="translate(33.745 19.482)"><g transform="translate(37.491)"><path class="i" d="M491.9,137.514l-2.334-1.347,2.334-1.347,2.334,1.347Z" transform="translate(-489.565 -134.819)"/><path class="j" d="M494.711,139.137l-2.334-1.347,2.334-1.347,2.334,1.347Z" transform="translate(-487.71 -133.748)"/><path class="k" d="M497.523,140.761l-2.334-1.347,2.334-1.347,2.334,1.347Z" transform="translate(-485.854 -132.676)"/><path class="i" d="M500.335,142.384,498,141.037l2.334-1.347,2.334,1.347Z" transform="translate(-483.999 -131.605)"/><path class="k" d="M503.147,144.008l-2.334-1.347,2.334-1.347,2.334,1.347Z" transform="translate(-482.143 -130.534)"/><path class="i" d="M505.959,145.632l-2.334-1.347,2.334-1.347,2.334,1.347Z" transform="translate(-480.288 -129.463)"/><path class="i" d="M508.771,147.255l-2.334-1.347,2.334-1.347,2.334,1.347Z" transform="translate(-478.432 -128.391)"/><path class="i" d="M511.583,148.879l-2.334-1.347,2.334-1.347,2.334,1.347Z" transform="translate(-476.577 -127.32)"/><path class="j" d="M514.4,150.5l-2.334-1.347,2.334-1.347,2.334,1.347Z" transform="translate(-474.721 -126.249)"/></g><g transform="translate(32.805 2.706)"><path class="i" d="M489.075,139.144l-2.334-1.347,2.334-1.347,2.334,1.347Z" transform="translate(-486.742 -136.449)"/><path class="i" d="M491.887,140.767l-2.334-1.347,2.333-1.347,2.334,1.347Z" transform="translate(-484.886 -135.378)"/><path class="i" d="M494.7,142.391l-2.334-1.347L494.7,139.7l2.334,1.347Z" transform="translate(-483.031 -134.307)"/><path class="i" d="M497.512,144.015l-2.334-1.347,2.334-1.347,2.334,1.347Z" transform="translate(-481.175 -133.235)"/><path class="i" d="M500.324,145.638l-2.334-1.347,2.334-1.347,2.334,1.347Z" transform="translate(-479.32 -132.164)"/><path class="i" d="M503.136,147.262l-2.334-1.347,2.334-1.347,2.334,1.347Z" transform="translate(-477.464 -131.093)"/><path class="i" d="M505.948,148.885l-2.334-1.347,2.334-1.347,2.334,1.347Z" transform="translate(-475.609 -130.022)"/><path class="i" d="M508.76,150.509l-2.334-1.347,2.334-1.347,2.334,1.347Z" transform="translate(-473.754 -128.95)"/><path class="i" d="M511.572,152.132l-2.334-1.347,2.334-1.347,2.334,1.347Z" transform="translate(-471.898 -127.879)"/></g><g transform="translate(28.118 5.412)"><path class="i" d="M486.252,140.774l-2.334-1.347,2.334-1.347,2.334,1.347Z" transform="translate(-483.918 -138.079)"/><path class="i" d="M489.064,142.4l-2.334-1.347,2.334-1.347,2.334,1.347Z" transform="translate(-482.063 -137.008)"/><path class="i" d="M491.876,144.021l-2.334-1.347,2.334-1.347,2.334,1.347Z" transform="translate(-480.207 -135.937)"/><path class="j" d="M494.688,145.645l-2.334-1.347,2.334-1.347,2.334,1.347Z" transform="translate(-478.352 -134.866)"/><path class="k" d="M497.5,147.268l-2.334-1.347,2.334-1.347,2.334,1.347Z" transform="translate(-476.496 -133.794)"/><path class="k" d="M500.312,148.892l-2.334-1.347,2.333-1.347,2.334,1.347Z" transform="translate(-474.641 -132.723)"/><path class="i" d="M503.124,150.515l-2.334-1.347,2.334-1.347,2.334,1.347Z" transform="translate(-472.785 -131.652)"/><path class="i" d="M505.936,152.139l-2.334-1.347,2.334-1.347,2.334,1.347Z" transform="translate(-470.93 -130.581)"/><path class="i" d="M508.749,153.762l-2.334-1.347,2.334-1.347,2.334,1.347Z" transform="translate(-469.075 -129.509)"/></g><g transform="translate(23.432 8.117)"><path class="k" d="M483.428,142.4l-2.334-1.347,2.334-1.347,2.334,1.347Z" transform="translate(-481.095 -139.709)"/><path class="k" d="M486.241,144.028l-2.334-1.347,2.334-1.347,2.334,1.347Z" transform="translate(-479.239 -138.638)"/><path class="j" d="M489.053,145.651l-2.334-1.347,2.334-1.347,2.334,1.347Z" transform="translate(-477.384 -137.567)"/><path class="i" d="M491.865,147.275l-2.334-1.347,2.334-1.347,2.334,1.347Z" transform="translate(-475.528 -136.496)"/><path class="i" d="M494.677,148.9l-2.334-1.347,2.334-1.347,2.334,1.347Z" transform="translate(-473.673 -135.424)"/><path class="i" d="M497.489,150.522l-2.334-1.347,2.334-1.347,2.334,1.347Z" transform="translate(-471.818 -134.353)"/><path class="k" d="M500.3,152.145l-2.334-1.347,2.334-1.347,2.334,1.347Z" transform="translate(-469.962 -133.282)"/><path class="i" d="M503.113,153.769l-2.334-1.347,2.334-1.347,2.334,1.347Z" transform="translate(-468.107 -132.211)"/><path class="i" d="M505.925,155.393l-2.334-1.347,2.334-1.347,2.334,1.347Z" transform="translate(-466.251 -131.139)"/></g><g transform="translate(18.746 10.823)"><path class="i" d="M480.605,144.034l-2.334-1.347,2.334-1.347,2.334,1.347Z" transform="translate(-478.271 -141.339)"/><path class="i" d="M483.417,145.658l-2.334-1.347,2.334-1.347,2.334,1.347Z" transform="translate(-476.416 -140.268)"/><path class="i" d="M486.229,147.281l-2.334-1.347,2.334-1.347,2.334,1.347Z" transform="translate(-474.56 -139.197)"/><path class="i" d="M489.041,148.9l-2.334-1.347,2.334-1.347,2.334,1.347Z" transform="translate(-472.705 -138.126)"/><path class="i" d="M491.853,150.528l-2.334-1.347,2.334-1.347,2.334,1.347Z" transform="translate(-470.85 -137.054)"/><path class="i" d="M494.665,152.152l-2.334-1.347,2.334-1.347L497,150.8Z" transform="translate(-468.994 -135.983)"/><path class="i" d="M497.478,153.776l-2.334-1.347,2.334-1.347,2.334,1.347Z" transform="translate(-467.139 -134.912)"/><path class="i" d="M500.289,155.4l-2.334-1.347,2.334-1.347,2.334,1.347Z" transform="translate(-465.283 -133.841)"/><path class="i" d="M503.1,157.023l-2.334-1.347,2.333-1.347,2.334,1.347Z" transform="translate(-463.428 -132.769)"/></g><g transform="translate(14.059 13.529)"><path class="i" d="M477.782,145.664l-2.334-1.347,2.334-1.347,2.334,1.347Z" transform="translate(-475.448 -142.97)"/><path class="i" d="M480.594,147.288l-2.334-1.347,2.334-1.347,2.334,1.347Z" transform="translate(-473.592 -141.898)"/><path class="k" d="M483.406,148.911l-2.334-1.347,2.334-1.347,2.334,1.347Z" transform="translate(-471.737 -140.827)"/><path class="i" d="M486.218,150.535l-2.334-1.347,2.334-1.347,2.334,1.347Z" transform="translate(-469.882 -139.756)"/><path class="j" d="M489.03,152.159l-2.334-1.347,2.334-1.347,2.334,1.347Z" transform="translate(-468.026 -138.685)"/><path class="i" d="M491.842,153.782l-2.334-1.347,2.334-1.347,2.334,1.347Z" transform="translate(-466.171 -137.613)"/><path class="i" d="M494.654,155.406l-2.334-1.347,2.334-1.347,2.334,1.347Z" transform="translate(-464.315 -136.542)"/><path class="i" d="M497.466,157.029l-2.334-1.347,2.334-1.347,2.334,1.347Z" transform="translate(-462.46 -135.471)"/><path class="i" d="M500.278,158.653l-2.334-1.347,2.334-1.347,2.334,1.347Z" transform="translate(-460.604 -134.4)"/></g><g transform="translate(9.373 16.234)"><path class="i" d="M474.958,147.295l-2.334-1.347,2.333-1.347,2.334,1.347Z" transform="translate(-472.624 -144.6)"/><path class="i" d="M477.77,148.918l-2.334-1.347,2.334-1.347,2.334,1.347Z" transform="translate(-470.769 -143.528)"/><path class="k" d="M480.582,150.542l-2.334-1.347,2.334-1.347,2.334,1.347Z" transform="translate(-468.914 -142.457)"/><path class="i" d="M483.394,152.165l-2.334-1.347,2.334-1.347,2.334,1.347Z" transform="translate(-467.058 -141.386)"/><path class="i" d="M486.206,153.789l-2.334-1.347,2.334-1.347,2.334,1.347Z" transform="translate(-465.203 -140.315)"/><path class="j" d="M489.018,155.412l-2.334-1.347,2.334-1.347,2.334,1.347Z" transform="translate(-463.347 -139.243)"/><path class="k" d="M491.831,157.036l-2.334-1.347,2.334-1.347,2.334,1.347Z" transform="translate(-461.492 -138.172)"/><path class="i" d="M494.643,158.659l-2.334-1.347,2.334-1.347,2.334,1.347Z" transform="translate(-459.636 -137.101)"/><path class="j" d="M497.455,160.283l-2.334-1.347,2.334-1.347,2.334,1.347Z" transform="translate(-457.781 -136.03)"/></g><g transform="translate(4.686 18.94)"><path class="i" d="M472.135,148.925l-2.334-1.347,2.334-1.347,2.334,1.347Z" transform="translate(-469.801 -146.23)"/><path class="k" d="M474.947,150.548l-2.334-1.347,2.334-1.347,2.334,1.347Z" transform="translate(-467.945 -145.159)"/><path class="i" d="M477.759,152.172l-2.334-1.347,2.334-1.347,2.334,1.347Z" transform="translate(-466.09 -144.087)"/><path class="i" d="M480.571,153.8l-2.334-1.347,2.334-1.347,2.334,1.347Z" transform="translate(-464.235 -143.016)"/><path class="i" d="M483.383,155.419l-2.334-1.347,2.334-1.347,2.334,1.347Z" transform="translate(-462.379 -141.945)"/><path class="i" d="M486.2,157.042l-2.334-1.347,2.334-1.347,2.334,1.347Z" transform="translate(-460.524 -140.874)"/><path class="i" d="M489.007,158.666l-2.334-1.347,2.334-1.347,2.334,1.347Z" transform="translate(-458.668 -139.802)"/><path class="k" d="M491.819,160.289l-2.334-1.347,2.334-1.347,2.334,1.347Z" transform="translate(-456.813 -138.731)"/><path class="i" d="M494.631,161.913l-2.334-1.347,2.334-1.347,2.334,1.347Z" transform="translate(-454.957 -137.66)"/></g><g transform="translate(0 21.646)"><path class="i" d="M469.311,150.555l-2.334-1.347,2.334-1.347,2.334,1.347Z" transform="translate(-466.978 -147.86)"/><path class="j" d="M472.124,152.178l-2.334-1.347,2.334-1.347,2.334,1.347Z" transform="translate(-465.122 -146.789)"/><path class="i" d="M474.935,153.8l-2.334-1.347,2.334-1.347,2.334,1.347Z" transform="translate(-463.267 -145.717)"/><path class="i" d="M477.747,155.425l-2.334-1.347,2.334-1.347,2.334,1.347Z" transform="translate(-461.411 -144.646)"/><path class="i" d="M480.56,157.049l-2.334-1.347,2.334-1.347,2.334,1.347Z" transform="translate(-459.556 -143.575)"/><path class="i" d="M483.372,158.672l-2.334-1.347,2.334-1.347,2.334,1.347Z" transform="translate(-457.7 -142.504)"/><path class="k" d="M486.184,160.3l-2.334-1.347,2.334-1.347,2.334,1.347Z" transform="translate(-455.845 -141.433)"/><path class="i" d="M489,161.92l-2.334-1.347L489,159.225l2.334,1.347Z" transform="translate(-453.989 -140.361)"/><path class="i" d="M491.808,163.543l-2.334-1.347,2.334-1.347,2.334,1.347Z" transform="translate(-452.134 -139.29)"/></g></g></g><path class="a" d="M477.88,267.742a3.756,3.756,0,0,1-1.861-.437l-14.255-8.229a1.478,1.478,0,0,1-.842-1.265,1.923,1.923,0,0,1,1.122-1.56l13.692-7.907a4.631,4.631,0,0,1,4.231-.159l14.253,8.229a1.475,1.475,0,0,1,.841,1.263,1.924,1.924,0,0,1-1.122,1.562l-13.692,7.906A4.842,4.842,0,0,1,477.88,267.742Zm.232-19.327a4.24,4.24,0,0,0-2.045.5l-13.692,7.907c-.495.286-.79.654-.79.986a.871.871,0,0,0,.51.692l14.255,8.229a4.054,4.054,0,0,0,3.569-.163l13.692-7.906c.495-.286.79-.654.79-.988a.869.869,0,0,0-.51-.689l-14.255-8.231A3.132,3.132,0,0,0,478.112,248.415Z" transform="translate(845.575 2576.499)"/><path class="a" d="M553.1,244.657a3.787,3.787,0,0,1-1.867-.438l-14.253-8.229a1.475,1.475,0,0,1-.842-1.263,1.921,1.921,0,0,1,1.122-1.562l13.693-7.906a4.643,4.643,0,0,1,4.229-.163l14.253,8.231a1.479,1.479,0,0,1,.842,1.266,1.919,1.919,0,0,1-1.12,1.559l-13.694,7.907A4.836,4.836,0,0,1,553.1,244.657Zm-1.535-1.011a4.053,4.053,0,0,0,3.569-.161l13.693-7.907c.493-.286.789-.652.789-.984a.869.869,0,0,0-.51-.692l-14.253-8.229a4.037,4.037,0,0,0-3.569.163l-13.693,7.9c-.493.285-.788.654-.788.988a.869.869,0,0,0,.508.69Z" transform="translate(895.203 2561.267)"/></g></svg>