<svg xmlns="http://www.w3.org/2000/svg" width="73.398" height="84.438" viewBox="0 0 73.398 84.438"><defs><style>.a{fill:#47b8f0;}</style></defs><g transform="translate(-610.115 -538.342)"><path class="a" d="M657.015,584.107a2.22,2.22,0,1,0,2.221,2.221A2.22,2.22,0,0,0,657.015,584.107Z" transform="translate(10.02 10.263)"/><path class="a" d="M679.517,557.231l-28.206-17.609a8.54,8.54,0,0,0-9,0l-28.2,17.609a8.5,8.5,0,0,0-3.616,9.713c4.346,14.031,14.822,36.349,30.043,53.067a8.5,8.5,0,0,0,6.274,2.769h0a8.508,8.508,0,0,0,6.277-2.769,126.555,126.555,0,0,0,12.328-16.081,2.448,2.448,0,1,0-4.1-2.674,121.659,121.659,0,0,1-11.846,15.456,3.6,3.6,0,0,1-5.312,0c-19.329-21.229-28.055-48.21-28.987-51.218a3.6,3.6,0,0,1,1.534-4.11l28.2-17.61a3.62,3.62,0,0,1,3.81,0l28.206,17.61a3.6,3.6,0,0,1,1.533,4.11A115.224,115.224,0,0,1,668.385,589.2a2.448,2.448,0,1,0,4.287,2.364,119.825,119.825,0,0,0,10.463-24.621A8.5,8.5,0,0,0,679.517,557.231Z" transform="translate(0 0)"/><path class="a" d="M652.5,564.995,637.36,581.048a.412.412,0,0,1-.288.119.368.368,0,0,1-.278-.133l-3.876-4.571a2.448,2.448,0,1,0-3.735,3.166l3.876,4.571a5.28,5.28,0,0,0,3.882,1.863h.141a5.286,5.286,0,0,0,3.839-1.655l15.144-16.055a2.448,2.448,0,1,0-3.562-3.359Z" transform="translate(4.146 5.805)"/></g></svg>