<svg xmlns="http://www.w3.org/2000/svg" width="101.177" height="75.675" viewBox="0 0 101.177 75.675"><defs><style>.a{fill:#47b8f0;}</style></defs><g transform="translate(0 0)"><ellipse class="a" cx="2.15" cy="2.15" rx="2.15" ry="2.15" transform="translate(21.241 35.293)"/><path class="a" d="M825.12,571.805l-20.744-13.848a4.718,4.718,0,0,0-3.288-.749,87.955,87.955,0,0,0-13.346,3.072,6.438,6.438,0,0,0,.055-1.479l0-.055c-.043-.4-1.112-9.9-6.759-13.907a9.988,9.988,0,0,0-8.312-1.46c-8.982,2.114-21,6.06-24.476,7.22a3.385,3.385,0,0,0-2.138,4.295c1.5,4.464,5.18,8.66,11.07,7.717a10.064,10.064,0,0,0,4.644,5.013,8.827,8.827,0,0,0,6.24.388,5.222,5.222,0,0,0,.955.839c-.73.473-1.456.959-2.173,1.469A48.182,48.182,0,0,1,755.764,576a2.371,2.371,0,1,0,1.653,4.444c1.726-.643,3.345-1.35,4.906-2.089l19,15.967c-14.182,7.668-23.138,6.047-25.044,5.554L735.4,585.464c2.484-.28,4.969-.646,7.389-1.088a2.372,2.372,0,0,0-.855-4.666c-2.312.423-4.688.774-7.064,1.042a4.724,4.724,0,0,0-2.158,8.579l20.856,14.448a4.7,4.7,0,0,0,1.5.689,22.978,22.978,0,0,0,5.6.6c6.535,0,18.025-2.039,32.84-12.915.635-.467,1.285-.914,1.943-1.352a5.277,5.277,0,0,0,.052,1.049,8.832,8.832,0,0,0-3.7,5.039,10.048,10.048,0,0,0,.872,6.777c-4.508,3.916-3.639,9.426-1.176,13.446a3.373,3.373,0,0,0,2.1,1.522,3.436,3.436,0,0,0,.788.092,3.382,3.382,0,0,0,1.774-.506c3.109-1.915,13.825-8.6,21.235-14.151a10.006,10.006,0,0,0,4.21-7.315c.548-6.9-6.058-13.812-6.34-14.1l-.039-.039c-.143-.142-.293-.258-.441-.382a59.956,59.956,0,0,1,8.323-1.819,4.727,4.727,0,0,0,2-8.613Zm-57.664-8.573a4.607,4.607,0,0,1-3.613.1,6.142,6.142,0,0,1-2.65-3.422,3.4,3.4,0,0,0-4.047-2.138c-2.7.715-4.734-.333-6.041-3.126,4.541-1.5,14.847-4.8,22.7-6.652a5.263,5.263,0,0,1,4.476.707c3.219,2.277,4.541,8.326,4.787,10.514.1,1.558-2.833,2.886-7.615,4.918l-.726.309c-1.607.682-2.906.836-3.158.372a3.373,3.373,0,0,0-2.969-1.784A3.419,3.419,0,0,0,767.456,563.233Zm23.256,25.1c-1.741,1.277-3.422,2.418-5.049,3.446l-18.809-15.809c.954-.574,1.869-1.168,2.734-1.782a61.431,61.431,0,0,1,9.011-5.257l18.643,15.282A56.661,56.661,0,0,0,790.712,588.334Zm26.174,8.059a5.26,5.26,0,0,1-2.328,3.887c-6.479,4.859-15.607,10.636-19.661,13.157-1.307-2.792-.812-5.021,1.475-6.638a3.363,3.363,0,0,0,.956-4.476,6.138,6.138,0,0,1-.93-4.228,4.636,4.636,0,0,1,2.4-2.71,3.364,3.364,0,0,0,1.423-4.175c-.194-.49.755-1.387,2.31-2.181l.695-.356c3.549-1.815,6.081-3.063,7.583-3.063a1.507,1.507,0,0,1,1.084.369C813.41,587.57,817.2,592.464,816.887,596.393Zm-14.955-14.468L783.482,566.8a84.755,84.755,0,0,1,18.26-4.9l20.721,13.819A79.979,79.979,0,0,0,801.932,581.925Z" transform="translate(-726.046 -543.058)"/><path class="a" d="M782.358,597.865c-.1.031-10.2,3-18.357,6.092-6.659,2.518-14.385-4.622-14.457-4.692L730.5,586.012a2.371,2.371,0,1,0-2.7,3.895l18.637,12.937c1.058.96,7.363,6.4,14.551,6.4a13.187,13.187,0,0,0,4.7-.848c7.988-3.022,17.915-5.946,18.014-5.976a2.371,2.371,0,1,0-1.336-4.551Z" transform="translate(-726.772 -535.161)"/></g></svg>