<svg xmlns="http://www.w3.org/2000/svg" width="91.891" height="84.439" viewBox="0 0 91.891 84.439"><defs><style>.a{fill:#43b6ef;}</style></defs><g transform="translate(-840.398 -389.069)"><path class="a" d="M867.387,395.225a2.626,2.626,0,1,0-2.625-2.626A2.626,2.626,0,0,0,867.387,395.225Z" transform="translate(8.705 0.323)"/><path class="a" d="M899.865,448.085a10.853,10.853,0,0,1,1.8-1.805c2.029-1.606,2.41-3.518,1.169-5.85a4.862,4.862,0,0,1,.251-3.77,4.326,4.326,0,0,1,2.221-2.542c2.711-.8,3.908-2.58,3.555-5.3a7.5,7.5,0,0,1,0-2.026c.379-2.59-.774-4.327-3.422-5.162a4.759,4.759,0,0,1-2.446-2.806,4.432,4.432,0,0,1-.213-3.439c1.3-2.421.892-4.463-1.227-6.066a6.821,6.821,0,0,1-1.268-1.265c-1.847-2.425-4.092-2.868-6.674-1.323a4.624,4.624,0,0,1-3.243-.422,4.515,4.515,0,0,1-2.537-1.945c-.713-2.82-2.48-4.045-5.4-3.741a16.867,16.867,0,0,1-2.886.007c-2.037-.137-3.408.81-4.151,2.911a5.018,5.018,0,0,1-2.89,2.786,4.863,4.863,0,0,1-3.885.042,3.9,3.9,0,0,0-5.227.958,11.039,11.039,0,0,1-1.807,1.811c-2.318,1.782-2.747,3.963-1.273,6.484a5.144,5.144,0,0,1-.466,3.519c-.646,1.528-1.424,2.231-1.763,2.316-3.126.774-4.427,2.743-3.981,6.021a6.437,6.437,0,0,1,0,1.777c-.348,2.375.752,3.984,3.264,4.782a4.037,4.037,0,0,1,1.422.689c.21.516.464,1.032.719,1.549,1.057,2.14,1.593,3.43.319,5.031a2.549,2.549,0,0,0-.472,1.23c-.018.107-.037.224-.071.352l-.149.581.33.5c.065.1.128.2.194.316a6.324,6.324,0,0,0,.8,1.129c.394.419.808.821,1.221,1.223a21.082,21.082,0,0,1,1.579,1.635c1.464,1.756,3.24,2.1,5.433,1.032a5.525,5.525,0,0,1,6.632,2.724,4.146,4.146,0,0,0,4.776,3.21,8.683,8.683,0,0,1,2.481,0,6.236,6.236,0,0,0,.932.073,4.344,4.344,0,0,0,4.2-3.514,5.677,5.677,0,0,1,6.276-2.626C896.4,450.416,898.322,450.059,899.865,448.085Zm-1.706-5.975a6.605,6.605,0,0,1-1.777,2.62c-3.253-1.983-6.041-.588-8.293.536a15.316,15.316,0,0,1-2.4,1.042,3.711,3.711,0,0,0-2.2,2.575c-.285,1.162-.6,1.524-2.011,1.527h-.022c-1.28,0-1.622-.273-2.028-1.593a5.248,5.248,0,0,0-2.587-2.658,24.872,24.872,0,0,0-4.893-2.017,7.83,7.83,0,0,0-2.013-.278,4.675,4.675,0,0,0-2.086.438c-.865.433-1.184.441-2.112-.5-1.118-1.139-1.2-1.393-.729-2.271a6.106,6.106,0,0,0,.19-4.133,22.957,22.957,0,0,0-2.039-4.913,5.714,5.714,0,0,0-2.849-2.63c-1.128-.364-1.371-.718-1.367-2s.263-1.655,1.383-2.022a5.661,5.661,0,0,0,2.846-2.621,22.619,22.619,0,0,0,2.039-4.912,6.215,6.215,0,0,0-.189-4.114c-.424-.833-.425-1.152.547-2.135,1.1-1.11,1.433-1.114,2.287-.645a5.879,5.879,0,0,0,3.912.246,15.4,15.4,0,0,0,2.482-.937c.555-.248,1.08-.483,1.6-.657A5.164,5.164,0,0,0,879.769,406c.092-.517.106-.6,1.538-.613l.308-.005c1.452-.022,1.475.147,1.562.615a5.251,5.251,0,0,0,3.866,4.051c.517.186,1.026.407,1.534.624,2.263.977,4.82,2.078,7.927.384a4.163,4.163,0,0,1,1.622,2.55c-1.707,4.422,1.018,10.891,5.3,12.585.512.2.543.214.521,1.223l-.005.425.008.452c.027.97.008,1.017-.5,1.231C899.031,431.366,896.535,437.338,898.159,442.11Z" transform="translate(4.865 4.111)"/><path class="a" d="M878.651,408.218h-.015A16.536,16.536,0,0,0,861.8,425.195a16.5,16.5,0,0,0,16.851,16.822h.053c.228.01.455.015.681.015a15.811,15.811,0,0,0,11.154-4.73,16.908,16.908,0,0,0,5.115-12.286C895.34,415.28,888.189,408.218,878.651,408.218Zm.193,28.914h-.11a11.926,11.926,0,0,1-12.077-11.621,11.425,11.425,0,0,1,3.192-8.415A12.712,12.712,0,0,1,878.41,413a11.8,11.8,0,0,1,8.491,3.506,12.239,12.239,0,0,1,3.913,8.438,12.755,12.755,0,0,1-3.943,8.974A10.714,10.714,0,0,1,878.844,437.132Z" transform="translate(7.647 6.841)"/><path class="a" d="M884.248,416.046a10.1,10.1,0,0,0-7.234-2.879h-.029a9.825,9.825,0,0,0-10.235,10.171c-.008,5.93,4.092,10.124,9.968,10.2h.159a10.353,10.353,0,0,0,7.352-2.823,10.06,10.06,0,0,0,2.891-7.211A10.37,10.37,0,0,0,884.248,416.046Zm-7.3,2.014h.015a5.3,5.3,0,1,1-5.315,5.424,5.4,5.4,0,0,1,1.475-3.954A5.245,5.245,0,0,1,876.951,418.06Z" transform="translate(9.415 8.61)"/><path class="a" d="M882.494,446.507a2.626,2.626,0,1,0,2.625,2.625A2.625,2.625,0,0,0,882.494,446.507Z" transform="translate(14.102 20.521)"/><g transform="translate(840.398 389.069)"><path class="a" d="M845.073,420.689a2.056,2.056,0,0,0,2.549-1.338,39.211,39.211,0,0,1,18.212-22.544,2.035,2.035,0,0,0-.456-3.733,2.059,2.059,0,0,0-.55-.076,2.021,2.021,0,0,0-1,.265,43.272,43.272,0,0,0-20.1,24.878A2.038,2.038,0,0,0,845.073,420.689Z" transform="translate(-839.24 -387.665)"/><path class="a" d="M917.467,416.345l-2.2.552-.219-.55a43.3,43.3,0,0,0-40.281-27.279,2.036,2.036,0,1,0,0,4.072,39.258,39.258,0,0,1,34.72,20.868c.5.932.983,1.965,1.488,3.16l.308.729-1.427.358a2.629,2.629,0,0,0-1.253,4.381l5.467,5.642a2.678,2.678,0,0,0,2.525.722,2.638,2.638,0,0,0,1.891-1.826l2.151-7.552a2.629,2.629,0,0,0-3.168-3.279Z" transform="translate(-828.847 -389.069)"/><path class="a" d="M886.372,457.74a39.261,39.261,0,0,1-34.72-20.868c-.5-.932-.983-1.965-1.488-3.16l-.308-.729,1.426-.36a2.628,2.628,0,0,0,1.253-4.38l-5.467-5.644a2.691,2.691,0,0,0-2.525-.722,2.642,2.642,0,0,0-1.891,1.827l-2.151,7.552a2.631,2.631,0,0,0,3.168,3.279l2.2-.554.219.551a43.313,43.313,0,0,0,40.281,27.279,2.036,2.036,0,0,0,0-4.072Z" transform="translate(-840.398 -377.373)"/><path class="a" d="M909.54,426.974h0a2.037,2.037,0,0,0-2.548,1.34,39.193,39.193,0,0,1-18.212,22.543,2.037,2.037,0,0,0-.77,2.776,2.087,2.087,0,0,0,2.773.77,43.265,43.265,0,0,0,20.1-24.879A2.039,2.039,0,0,0,909.54,426.974Z" transform="translate(-823.482 -375.56)"/></g></g></svg>