<svg xmlns="http://www.w3.org/2000/svg" width="91.764" height="92.499" viewBox="0 0 91.764 92.499"><defs><style>.a{fill:#47b8f0;}</style></defs><path class="a" d="M902.421,517.838a2.407,2.407,0,1,0-2.407-2.407A2.407,2.407,0,0,0,902.421,517.838Z" transform="translate(-829.891 -482.204)"/><path class="a" d="M885.031,509.3c.193,0,.389-.007.583-.017a9.673,9.673,0,0,0,4.6-1.477l11.921,10.584a2.655,2.655,0,0,0,3.527-3.97l-11.895-10.561a9.733,9.733,0,1,0-8.736,5.441Zm-.256-14.163c.089-.005.177-.008.264-.008a4.434,4.434,0,1,1-.264.008Z" transform="translate(-837.994 -489.813)"/><path class="a" d="M895.452,551.14a9.738,9.738,0,0,0-11.646-.964l-18.627-16.539a2.655,2.655,0,1,0-3.527,3.97l18.6,16.515a9.736,9.736,0,0,0,8.719,14.043c.2,0,.394-.007.591-.019a9.741,9.741,0,0,0,5.89-17.007ZM892.3,561.366A4.43,4.43,0,1,1,888.721,554c.092-.005.181-.008.27-.008a4.429,4.429,0,0,1,3.306,7.371Z" transform="translate(-842.76 -475.666)"/><path class="a" d="M924.957,526.957a9.74,9.74,0,1,0-17.886,5.882l-16.513,18.6a2.655,2.655,0,1,0,3.97,3.527l16.538-18.628a9.647,9.647,0,0,0,4.155.937c.2,0,.393-.007.59-.019a9.739,9.739,0,0,0,9.146-10.3Zm-6.411,3.519a4.427,4.427,0,1,1,1.11-3.2A4.411,4.411,0,0,1,918.547,530.476Z" transform="translate(-833.211 -480.64)"/><path class="a" d="M866.666,531.34a9.652,9.652,0,0,0-1.565-4.722l16.519-18.605a2.655,2.655,0,1,0-3.97-3.527L861.1,523.121a9.736,9.736,0,1,0-4.173,18.538c.2,0,.393-.007.591-.018a9.737,9.737,0,0,0,9.145-10.3Zm-6.411,3.519a4.429,4.429,0,1,1-3.574-7.363c.089-.005.178-.008.266-.008a4.429,4.429,0,0,1,3.309,7.371Z" transform="translate(-847.204 -485.295)"/></svg>