<svg xmlns="http://www.w3.org/2000/svg" width="108.196" height="66.591" viewBox="0 0 108.196 66.591"><defs><style>.a,.b,.c,.d,.e{fill:#fff;}.a{opacity:0.83;}.b{opacity:0.89;}.c{opacity:0.9;}.d{opacity:0.65;}.e{font-size:11px;font-family:Gotham-Light, Gotham;font-weight:300;}</style></defs><g transform="translate(-310.668 -84.923)"><g transform="translate(0 -4.063)"><path class="a" d="M545.027,667.412,531.3,699.592h-9.572v15.136H508.84V687.913h21.947a6.793,6.793,0,1,0,0-13.587H508.84V662.34h23.415A18.572,18.572,0,0,1,545.027,667.412Z" transform="translate(-191.472 -573.355)"/><path class="a" d="M586.741,714.617a26.635,26.635,0,0,1-16.31-38.213l-6-14.064H552.991l-2.165,5.072c.14.125.264.25.4.382a18.628,18.628,0,0,1-13.168,31.8H537.1l-6.459,15.136h12.743l4.977-11.869,24.8,11.869h13.624Zm-32.158-22.968L558.716,682l7.135,14.409Z" transform="translate(-197.27 -573.355)"/><path class="b" d="M559.016,682.807a18.624,18.624,0,0,1-18.622,18.622h-.954l13.726-32.18c.14.125.264.25.4.382A18.579,18.579,0,0,1,559.016,682.807Z" transform="translate(-199.611 -575.193)"/><rect class="a" width="22.491" height="13.593" transform="translate(310.668 100.969)"/><path class="c" d="M600.019,719.713a26.635,26.635,0,0,1-16.31-38.213Z" transform="translate(-210.548 -578.451)"/><path class="a" d="M629.552,705.053A26.589,26.589,0,0,1,608.331,715.6a26.273,26.273,0,0,1-7.172-.984L584.85,676.4a26.621,26.621,0,0,1,43.329-5.175l-17.073,17.154Z" transform="translate(-211.689 -573.355)"/><circle class="d" cx="5.892" cy="5.892" r="5.892" transform="translate(393.527 108.605)"/></g><text class="e" transform="translate(310.863 149.514)"><tspan x="0" y="0">PT. Sarana Pactindo</tspan></text></g></svg>