<svg xmlns="http://www.w3.org/2000/svg" width="102.32" height="105.447" viewBox="0 0 102.32 105.447"><defs><style>.a,.c{opacity:0.83;}.b{fill:#0065aa;}.c{fill:#009ed6;}.d,.e{fill:#fff;}.e{font-size:23px;font-family:WalkwayBold, Walkway Bold;}</style></defs><g transform="translate(-10.433 -2.928)"><g class="a" transform="translate(10.433 19.246)"><path class="b" d="M175.178,456.774l.067.117s4.118,12.008,15.326,5.071c3.692-2.285,8.854-5.779,14.435-9.672C195.234,453.972,184.417,455.534,175.178,456.774Z" transform="translate(-140.856 -374.991)"/><path class="b" d="M12.849,104.266c1.925,4.13,4.755,9.646,7.945,15.65,1.76-13.9,3.841-28.846,5.646-37.829.056-.283.117-.559.178-.831l-7.13,2.389S4.786,86.969,12.849,104.266Z" transform="translate(-10.433 -81.256)"/></g><path class="c" d="M119.36,8.284,70.877,3.141S54.963-.165,50.6,19.246c-.061.273-.121.548-.178.831-1.805,8.983-3.886,23.933-5.646,37.829-2.226,17.568-3.938,33.449-3.938,33.449s-2.035,13.38,11.228,11.793c4.034-.482,9.933-1.215,16.67-2.119,9.239-1.24,20.056-2.8,29.828-4.484,12.658-2.179,23.557-4.56,26.968-6.7a21.321,21.321,0,0,0,10.176-18.072c.06-2.922,1.024-49.437,1.024-49.437S137.292,10.185,119.36,8.284Z" transform="translate(-23.982)"/><g transform="translate(38.23 27.113)"><g transform="translate(0)"><path class="d" d="M215.765,122.723l-10.833,28.449h6.689l2.35-6.379,12.627,6.379h6.774l-10.878-28.449Zm1.056,16.333,2.667-6.857,3.964,10.242Z" transform="translate(-192.209 -121.951)"/><path class="d" d="M173.539,187.475a3.56,3.56,0,0,1-2.165.734h-11.6c-.118,0-.233-.006-.345-.016v14.241h6.689V194.58h4.718Z" transform="translate(-156.183 -173.213)"/><path class="d" d="M319.531,137.419a3.523,3.523,0,0,1,0-7.045,3.485,3.485,0,0,1,2.108.708l7.781-7.787a14.608,14.608,0,0,0-22.975,3.018l8.071,21.191a14.615,14.615,0,0,0,14.9-3.541l-7.488-7.495A3.511,3.511,0,0,1,319.531,137.419Z" transform="translate(-272.573 -119.017)"/><path class="d" d="M361.109,178.78a2.491,2.491,0,0,0-1.442-.456,2.531,2.531,0,1,0,1.442.456Z" transform="translate(-312.709 -165.968)"/><rect class="d" width="11.448" height="5.231" transform="translate(0 8.794)"/><path class="d" d="M174.891,132.667l3.134-8.233a9.521,9.521,0,0,0-5.454-1.711H159.426v7.05h11.947A3.586,3.586,0,0,1,174.891,132.667Z" transform="translate(-156.183 -121.951)"/></g><text class="e" transform="translate(3.637 46.699)"><tspan x="0" y="0">cash</tspan></text></g></g></svg>